<svg xmlns="http://www.w3.org/2000/svg" xmlns:xlink="http://www.w3.org/1999/xlink" viewBox="0 0 1872.48 262.78"><defs><clipPath id="a" transform="translate(0 0)"><rect x="755.49" y="8.29" width="351" height="255.46" fill="none"/></clipPath></defs><path d="M1871.87,201.38v-13.9q-.06-2.23,0-4.47v-.78l-.76-2q-.43-4.17-.46-8.29h0v-1.38a84.81,84.81,0,0,1,1.22-14.58V.68H.37v224h1871.5V205.86C1871.83,204.37,1871.83,202.88,1871.87,201.38Z" transform="translate(0 0)" fill="#101010" stroke="#000" stroke-miterlimit="10" stroke-width="0.75"/><rect x="625.66" y="0.5" width="312.34" height="229.18" fill="#101010" stroke="#39303a" stroke-miterlimit="10"/><rect x="313.33" y="0.5" width="312.34" height="229.18" fill="#101010" stroke="#39303a" stroke-miterlimit="10"/><rect x="1559.65" y="0.5" width="312.34" height="229.18" fill="#101010" stroke="#39303a" stroke-miterlimit="10"/><rect x="1248.82" y="0.5" width="312.34" height="229.18" fill="#101010" stroke="#39303a" stroke-miterlimit="10"/><rect x="936.48" y="0.5" width="312.34" height="229.18" fill="#101010" stroke="#39303a" stroke-miterlimit="10"/><rect x="0.99" y="0.5" width="312.34" height="229.18" fill="#101010" stroke="#39303a" stroke-miterlimit="10"/><ellipse cx="1416.7" cy="122.21" rx="11.06" ry="10.15" fill="none" stroke="#a96dc8" stroke-miterlimit="10" stroke-width="1.77"/><ellipse cx="1416.24" cy="121.79" rx="23.49" ry="21.57" fill="none" stroke="#a96dc8" stroke-miterlimit="10" stroke-width="1.77"/><ellipse cx="1416.24" cy="121.79" rx="35.47" ry="32.57" fill="none" stroke="#a96dc8" stroke-miterlimit="10" stroke-width="1.77"/><path d="M1151.76,95.31c10.37,7.49,11.62,19.77,6.64,23.74s-19.32,1.7-24.68-9.36c-4.09-8.44-8.62-24.47-6.64-23.74C1129.82,86.94,1142.11,88.34,1151.76,95.31Z" transform="translate(0 0)" fill="none" stroke="#a96dc8" stroke-miterlimit="10" stroke-width="1.77"/><path d="M1189.4,109.75c-6.59,10.49-19.66,13.38-24.65,9.42s-4.59-17.31,6.57-23.76c8.53-4.93,25.16-11.33,24.66-9.42C1195.29,88.65,1195.54,100,1189.4,109.75Z" transform="translate(0 0)" fill="none" stroke="#a96dc8" stroke-miterlimit="10" stroke-width="1.77"/><path d="M1172.58,146.61c-10.76-7-12.69-19.21-7.94-23.41s19.2-2.6,25.17,8.2c4.55,8.24,10,24,7.94,23.41C1195,153.94,1182.6,153.12,1172.58,146.61Z" transform="translate(0 0)" fill="none" stroke="#a96dc8" stroke-miterlimit="10" stroke-width="1.77"/><path d="M1134.19,133.91c6-10.78,18.9-14.28,24.1-10.55s5.54,17.07-5.25,24c-8.24,5.32-24.5,12.48-24.1,10.55C1129.49,155.29,1128.6,143.94,1134.19,133.91Z" transform="translate(0 0)" fill="none" stroke="#a96dc8" stroke-miterlimit="10" stroke-width="1.77"/><ellipse cx="460.24" cy="128.74" rx="11.06" ry="10.15" fill="none" stroke="#a96dc8" stroke-miterlimit="10" stroke-width="1.77"/><ellipse cx="459.78" cy="128.32" rx="23.49" ry="21.57" fill="none" stroke="#a96dc8" stroke-miterlimit="10" stroke-width="1.77"/><ellipse cx="459.78" cy="128.32" rx="35.47" ry="32.57" fill="none" stroke="#a96dc8" stroke-miterlimit="10" stroke-width="1.77"/><path d="M119.1,97.64c10.37,7.48,11.62,19.77,6.64,23.74s-19.32,1.7-24.68-9.36c-4.09-8.44-8.57-24.47-6.63-23.74C97.16,89.27,109.49,90.67,119.1,97.64Z" transform="translate(0 0)" fill="none" stroke="#a96dc8" stroke-miterlimit="10" stroke-width="1.77"/><path d="M156.74,112.11c-6.59,10.49-19.66,13.38-24.65,9.41s-4.6-17.31,6.57-23.77c8.53-4.93,25.16-11.33,24.66-9.42C162.63,91,162.88,102.35,156.74,112.11Z" transform="translate(0 0)" fill="none" stroke="#a96dc8" stroke-miterlimit="10" stroke-width="1.77"/><path d="M139.92,148.94c-10.76-7-12.69-19.21-7.94-23.41s19.2-2.6,25.17,8.2c4.55,8.24,10,24,7.94,23.4C162.3,156.27,149.94,155.45,139.92,148.94Z" transform="translate(0 0)" fill="none" stroke="#a96dc8" stroke-miterlimit="10" stroke-width="1.77"/><path d="M101.49,136.24c6-10.78,18.9-14.28,24.1-10.55s5.54,17.07-5.25,24c-8.24,5.31-24.5,12.48-24.1,10.55C96.82,157.62,95.94,146.27,101.49,136.24Z" transform="translate(0 0)" fill="none" stroke="#a96dc8" stroke-miterlimit="10" stroke-width="1.77"/><g clip-path="url(#a)"><g clip-path="url(#a)"><path d="M978.76,227.23h36c4.47-41.63-31.86-61.68-76.61-59.37-46.85,2.41-86,20.42-76.62,59.69q58.61-.44,117.21-.35" transform="translate(0 0)" fill="#3b344d"/><path d="M978.76,227.23h36c4.47-41.63-31.86-61.68-76.61-59.37-46.85,2.41-86,20.42-76.62,59.69Q920.17,227.15,978.76,227.23Z" transform="translate(0 0)" fill="none" stroke="#000" stroke-miterlimit="10" stroke-width="3.32"/><path d="M901.33,241.32c-2.14,12.35-10.92,21.14-19.62,19.63s-14-12.73-11.88-25.08,10.92-21.12,19.66-19.63,14,12.73,11.89,25.08" transform="translate(0 0)" fill="#3b344d"/><path d="M901.33,241.32c-2.14,12.35-10.92,21.14-19.62,19.63s-14-12.73-11.88-25.08,10.92-21.12,19.66-19.63S903.49,229,901.33,241.32Z" transform="translate(0 0)" fill="none" stroke="#000" stroke-miterlimit="10" stroke-width="3.32"/><path d="M1005.14,235.88c1.8,12.4-3.82,23.48-12.56,24.75s-17.28-7.76-19.08-20.16,3.82-23.48,12.56-24.75,17.27,7.76,19.08,20.16" transform="translate(0 0)" fill="#3b344d"/><path d="M1005.14,235.88c1.8,12.4-3.82,23.48-12.56,24.75s-17.28-7.76-19.08-20.16,3.82-23.48,12.56-24.75S1003.33,223.48,1005.14,235.88Z" transform="translate(0 0)" fill="none" stroke="#000" stroke-miterlimit="10" stroke-width="3.32"/><path d="M985.74,246.65a25,25,0,0,1-1.6,10.68" transform="translate(0 0)" fill="#3b344d"/><path d="M985.74,246.65a25,25,0,0,1-1.6,10.68" transform="translate(0 0)" fill="none" stroke="#000" stroke-linecap="round" stroke-miterlimit="10" stroke-width="2.49"/><path d="M996.78,248.75a24.63,24.63,0,0,1-1.61,10.68" transform="translate(0 0)" fill="#3b344d"/><path d="M996.78,248.75a24.63,24.63,0,0,1-1.61,10.68" transform="translate(0 0)" fill="none" stroke="#000" stroke-linecap="round" stroke-miterlimit="10" stroke-width="2.49"/><path d="M879.81,247.08a25.12,25.12,0,0,1,0,3.47,25.46,25.46,0,0,1-1.6,7.21" transform="translate(0 0)" fill="#3b344d"/><path d="M879.81,247.08a25.12,25.12,0,0,1,0,3.47,25.46,25.46,0,0,1-1.6,7.21" transform="translate(0 0)" fill="none" stroke="#000" stroke-linecap="round" stroke-miterlimit="10" stroke-width="2.49"/><path d="M890.84,249.2a22.33,22.33,0,0,1,0,3.47,24.79,24.79,0,0,1-1.6,7.21" transform="translate(0 0)" fill="#3b344d"/><path d="M890.84,249.2a22.33,22.33,0,0,1,0,3.47,24.79,24.79,0,0,1-1.6,7.21" transform="translate(0 0)" fill="none" stroke="#000" stroke-linecap="round" stroke-miterlimit="10" stroke-width="2.49"/><path d="M1033.34,65.62c-.59-5.72-1.32-13.48-2.09-24.46C1027.51-27,974.87,41,957.54,77.48L1028,109c1.36-5.27,2.48-9.32,3.39-12.55A11.8,11.8,0,0,1,1032,93c.18-.59.36-1.19.55-1.78a11.48,11.48,0,0,1,.06-1.45,43.38,43.38,0,0,1,.64-5.32,69.47,69.47,0,0,1,.14-18.78" transform="translate(0 0)" fill="#3b344d"/><path d="M1033.34,65.62c-.59-5.72-1.32-13.48-2.09-24.46C1027.51-27,974.87,41,957.54,77.48L1028,109c1.36-5.27,2.48-9.32,3.39-12.55A11.8,11.8,0,0,1,1032,93c.18-.59.36-1.19.55-1.78a11.48,11.48,0,0,1,.06-1.45,43.38,43.38,0,0,1,.64-5.32A69.47,69.47,0,0,1,1033.34,65.62Z" transform="translate(0 0)" fill="none" stroke="#000" stroke-miterlimit="10" stroke-width="3.32"/><path d="M886.49,32.62c-4.61-4.82-11.94-13.09-23-19.23a27.19,27.19,0,0,0-4.31-2l-6.33.08c-1.31.69-3,2.43-6.45,9.39a74.92,74.92,0,0,0-4.81,11.21c-7.3,23.1-3.74,47.54-3.74,47.54A112,112,0,0,0,846.49,109l63-34.71a69.05,69.05,0,0,0-4.82-16.53C899.9,46.75,893.49,39.85,886.49,32.62Z" transform="translate(0 0)" fill="#3b344d"/><path d="M857.17,10.88a17.49,17.49,0,0,1-3.61.46c-9.65,9.65-14.47,22.51-16.07,35.41-1.61,20.9-1.61,43.41,9,62.28" transform="translate(0 0)" fill="none" stroke="#000" stroke-miterlimit="10" stroke-width="3.32"/><path d="M909.49,74.28C906,52.07,890.35,33.53,873.15,19.85" transform="translate(0 0)" fill="none" stroke="#000" stroke-miterlimit="10" stroke-width="3.32"/><path d="M845.39,101.51c-5.26-16.19-9-67.68,6.94-87.05,11.5,14.16,31.74,41.93,31,57.14" transform="translate(0 0)" fill="#ffdafc"/><path d="M845.39,101.51c-5.26-16.19-9-67.68,6.94-87.05,11.5,14.16,31.74,41.93,31,57.14" transform="translate(0 0)" fill="none" stroke="#000" stroke-miterlimit="10" stroke-width="1.66"/><path d="M1027,102.58c7.69-16.86,5.18-71-7.47-87.59-5.76,2-41.93,49.06-32,58.22" transform="translate(0 0)" fill="#ffdafc"/><path d="M1027,102.58c7.69-16.86,5.18-71-7.47-87.59-5.76,2-41.93,49.06-32,58.22" transform="translate(0 0)" fill="none" stroke="#000" stroke-miterlimit="10" stroke-width="1.66"/><path d="M1025.64,167.2c-20.81,31-65.31,30.48-96.94,31.25-62.1,1.66-123.8-33.82-81.71-99.34,52.7-66.94,230.15-30.6,178.65,68.09" transform="translate(0 0)" fill="#3b344d"/><path d="M1025.64,167.2c-20.81,31-65.31,30.48-96.94,31.25-62.1,1.66-123.8-33.82-81.71-99.34C899.69,32.17,1077.14,68.51,1025.64,167.2Z" transform="translate(0 0)" fill="none" stroke="#000" stroke-miterlimit="10" stroke-width="4.15"/><path d="M985.82,72.14c1.17-.17,2.89-.39,5-.54a29,29,0,0,1,6.59,0c3.69.57,6.7,2.21,6.58,2.68,0,.16-.47.07-2.47.49-.48.1-.85.18-1.21.28,0,0-.78.21-1.48.47-1,.37-3.12,1.29-3,1.6s7.66-.17,7.66-.17,3.13,1.24,3.74,1.6a17.76,17.76,0,0,1,3.56,2.85c1.15,1.1,1.73,1.65,1.6,1.95-.28.66-2.88-.35-6.59-.17a18.69,18.69,0,0,0-4.27.71" transform="translate(0 0)" fill="#3d334b"/><path d="M985.82,72.14c1.17-.17,2.89-.39,5-.54a29,29,0,0,1,6.59,0c3.69.57,6.7,2.21,6.58,2.68,0,.16-.47.07-2.47.49-.48.1-.85.18-1.21.28,0,0-.78.21-1.48.47-1,.37-3.12,1.29-3,1.6s7.66-.17,7.66-.17,3.13,1.24,3.74,1.6a17.76,17.76,0,0,1,3.56,2.85c1.15,1.1,1.73,1.65,1.6,1.95-.28.66-2.88-.35-6.59-.17a18.69,18.69,0,0,0-4.27.71" transform="translate(0 0)" fill="none" stroke="#000" stroke-miterlimit="10" stroke-width="1.66"/><path d="M956.12,168.21l1.74,1.59-3.23,3.38-1.4-3.6,1.18-1.24a16.19,16.19,0,0,0,1.71-.13" transform="translate(0 0)" fill="#fff"/><path d="M956.12,168.21l1.74,1.59-3.23,3.38-1.4-3.6,1.18-1.24C955,168.32,955.55,168.27,956.12,168.21Z" transform="translate(0 0)" fill="none" stroke="#fff" stroke-miterlimit="10" stroke-width="0.42"/><path d="M938,146.46h.22c.57,0,1.14.07,1.72.07h2c.8.31,1.63.59,2.46.82h0v2.88a27.91,27.91,0,0,0-6.23,4.33c-.27.25-.54.5-.79.76H937v-8.89h1" transform="translate(0 0)"/><path d="M938,146.38h.22c.58,0,1.16.08,1.74.08H942c.82.32,1.65.59,2.49.83v.08s.2.19,0,.28v2.69a34.93,34.93,0,0,0-6.06,4.32c-.28.25-.8.68-.8.68H937v-9C937.33,146.37,937.65,146.38,938,146.38Z" transform="translate(0 0)" fill="none" stroke="#000" stroke-miterlimit="10" stroke-width="3.32"/><path d="M966.81,164.88a22.72,22.72,0,0,1-6,2.33,20.52,20.52,0,0,1-10.44,0,16.68,16.68,0,0,1-9.83-6.69,15.19,15.19,0,0,1-2.39-9.3" transform="translate(0 0)" fill="none" stroke="#000" stroke-linecap="round" stroke-miterlimit="10" stroke-width="3.32"/><path d="M962.49,137a34.81,34.81,0,0,1,6.41-6.25,36.75,36.75,0,0,1,7.45-4.22,41.14,41.14,0,0,1,7.3-2.18c1.8-.41,1.37-.23,6.45-1h.54a26.23,26.23,0,0,0,4.06-.29,22.17,22.17,0,0,0,2.49-.16h.2l.5,0c.51.24,1,.45,1.57.64a4.89,4.89,0,0,1,1.78,2.35,4.32,4.32,0,0,1-.3,3.63A4,4,0,0,1,999.3,131a5.17,5.17,0,0,1-2.83.29c-1.78-.18-3.58.06-5.36,0-3-.1-5.55,0-6.26,0-9.41.41-18.48,7.89-19.68,9.74a3.44,3.44,0,0,1-1.49,1.31,2.71,2.71,0,0,1-1.64.14,2.42,2.42,0,0,1-1.49-1c-.47-.83.07-2.15,1.94-4.5" transform="translate(0 0)"/><path d="M962.49,137a34.81,34.81,0,0,1,6.41-6.25,36.75,36.75,0,0,1,7.45-4.22,41.14,41.14,0,0,1,7.3-2.18c1.8-.41,1.37-.23,6.45-1h.54a26.23,26.23,0,0,0,4.06-.29,22.17,22.17,0,0,0,2.49-.16h.2l.5,0c.51.24,1,.45,1.57.64a4.89,4.89,0,0,1,1.78,2.35,4.32,4.32,0,0,1-.3,3.63A4,4,0,0,1,999.3,131a5.17,5.17,0,0,1-2.83.29c-1.78-.18-3.58.06-5.36,0-3-.1-5.55,0-6.26,0-9.41.41-18.48,7.89-19.68,9.74a3.44,3.44,0,0,1-1.49,1.31,2.71,2.71,0,0,1-1.64.14,2.42,2.42,0,0,1-1.49-1C960.08,140.64,960.62,139.32,962.49,137Z" transform="translate(0 0)" fill="none" stroke="#000" stroke-linecap="round" stroke-miterlimit="10" stroke-width="0.42"/><path d="M981.71,115.75a7.53,7.53,0,0,1,3,9.88" transform="translate(0 0)" fill="none" stroke="#000" stroke-linecap="round" stroke-miterlimit="10" stroke-width="1.66"/><path d="M990.3,115a7.54,7.54,0,0,1,3,9.89" transform="translate(0 0)" fill="none" stroke="#000" stroke-linecap="round" stroke-miterlimit="10" stroke-width="1.66"/><path d="M998.87,113.36a7.53,7.53,0,0,1,1.88,10.15" transform="translate(0 0)" fill="none" stroke="#000" stroke-linecap="round" stroke-miterlimit="10" stroke-width="1.66"/><path d="M919,168.24l-1.74,1.58,3.24,3.39,1.4-3.6-1.19-1.24a16.4,16.4,0,0,1-1.71-.13" transform="translate(0 0)" fill="#fff"/><path d="M919,168.24l-1.74,1.58,3.24,3.39,1.4-3.6-1.19-1.24C920.1,168.35,919.49,168.3,919,168.24Z" transform="translate(0 0)" fill="none" stroke="#fff" stroke-miterlimit="10" stroke-width="0.42"/><path d="M936.82,146.49h-.22c-.58,0-1.15.08-1.72.08h-2a23.7,23.7,0,0,1-2.46.83h0l.41.28v2.57a26.26,26.26,0,0,1,5.88,4.33c.26.25.51.5.75.76h.43v-8.87h-1" transform="translate(0 0)"/><path d="M936.88,146.38h-.22c-.58,0-1.16.08-1.74.08h-2.07c-.81.32-1.64.59-2.48.83v.11s0,.19.41.28v2.68a42.92,42.92,0,0,1,5.87,4.33c.28.25.8.65.8.65h.39v-9C937.52,146.37,937.2,146.38,936.88,146.38Z" transform="translate(0 0)" fill="none" stroke="#000" stroke-miterlimit="10" stroke-width="3.32"/><path d="M908.27,164.91a23.07,23.07,0,0,0,6,2.33,20.52,20.52,0,0,0,10.44,0,16.69,16.69,0,0,0,9.78-6.69,15.19,15.19,0,0,0,2.39-9.3" transform="translate(0 0)" fill="none" stroke="#000" stroke-linecap="round" stroke-miterlimit="10" stroke-width="3.32"/><path d="M912.59,137a34.54,34.54,0,0,0-6.41-6.26,36.23,36.23,0,0,0-7.45-4.21,41.14,41.14,0,0,0-7.3-2.18c-1.8-.41-1.37-.23-6.45-1h-.54a26.23,26.23,0,0,1-4.06-.29,22.17,22.17,0,0,1-2.49-.16h-.7a12.65,12.65,0,0,1-1.57.65,4.89,4.89,0,0,0-1.78,2.35,4.32,4.32,0,0,0,.3,3.63,4,4,0,0,0,1.64,1.46,5.17,5.17,0,0,0,2.83.29,53.44,53.44,0,0,1,5.37,0c3-.1,5.54,0,6.26,0,9.4.41,18.47,7.89,19.67,9.73a3.27,3.27,0,0,0,1.49,1.31,2.57,2.57,0,0,0,1.64.15,2.42,2.42,0,0,0,1.49-1c.47-.83-.07-2.15-1.94-4.5" transform="translate(0 0)"/><path d="M912.59,137a34.54,34.54,0,0,0-6.41-6.26,36.23,36.23,0,0,0-7.45-4.21,41.14,41.14,0,0,0-7.3-2.18c-1.8-.41-1.37-.23-6.45-1h-.54a26.23,26.23,0,0,1-4.06-.29,22.17,22.17,0,0,1-2.49-.16h-.7a12.65,12.65,0,0,1-1.57.65,4.89,4.89,0,0,0-1.78,2.35,4.32,4.32,0,0,0,.3,3.63,4,4,0,0,0,1.64,1.46,5.17,5.17,0,0,0,2.83.29,53.44,53.44,0,0,1,5.37,0c3-.1,5.54,0,6.26,0,9.4.41,18.47,7.89,19.67,9.73a3.27,3.27,0,0,0,1.49,1.31,2.57,2.57,0,0,0,1.64.15,2.42,2.42,0,0,0,1.49-1C915,140.67,914.49,139.35,912.59,137Z" transform="translate(0 0)" fill="none" stroke="#000" stroke-linecap="round" stroke-miterlimit="10" stroke-width="0.42"/><path d="M893.38,115.75a7.68,7.68,0,0,0-3.13,3.49,7.86,7.86,0,0,0,.14,6.39" transform="translate(0 0)" fill="none" stroke="#000" stroke-linecap="round" stroke-miterlimit="10" stroke-width="1.66"/><path d="M884.78,115a7.54,7.54,0,0,0-3,9.89" transform="translate(0 0)" fill="none" stroke="#000" stroke-linecap="round" stroke-miterlimit="10" stroke-width="1.66"/><path d="M876.22,113.39a7.52,7.52,0,0,0-1.89,10.15" transform="translate(0 0)" fill="none" stroke="#000" stroke-linecap="round" stroke-miterlimit="10" stroke-width="1.66"/><path d="M890.49,72.43c-1.17-.17-2.89-.39-5-.54a27.85,27.85,0,0,0-6.58,0c-3.7.57-6.71,2.21-6.59,2.67,0,.17.48.08,2.47.5.49.1.85.18,1.22.28,0,0,.77.21,1.47.47,1,.37,3.12,1.29,3,1.6s-7.66-.18-7.66-.18-3.13,1.25-3.73,1.61a17.48,17.48,0,0,0-3.56,2.85c-1.16,1.1-1.74,1.65-1.61,2,.29.66,2.88-.35,6.59-.17a18.16,18.16,0,0,1,4.27.71" transform="translate(0 0)" fill="#3b344d"/><path d="M890.49,72.43c-1.17-.17-2.89-.39-5-.54a27.85,27.85,0,0,0-6.58,0c-3.7.57-6.71,2.21-6.59,2.67,0,.17.48.08,2.47.5.49.1.85.18,1.22.28,0,0,.77.21,1.47.47,1,.37,3.12,1.29,3,1.6s-7.66-.18-7.66-.18-3.13,1.25-3.73,1.61a17.48,17.48,0,0,0-3.56,2.85c-1.16,1.1-1.74,1.65-1.61,2,.29.66,2.88-.35,6.59-.17a18.16,18.16,0,0,1,4.27.71" transform="translate(0 0)" fill="none" stroke="#000" stroke-miterlimit="10" stroke-width="1.66"/><rect x="953.2" y="70.93" width="30.84" height="16.77" transform="translate(478.86 918.75) rotate(-64.42)" fill="#3b344d"/><rect x="889.27" y="60.98" width="20.73" height="30.3" transform="translate(61.26 411.17) rotate(-26.62)" fill="#3b344d"/><path d="M990.35,73.86c4.89,5.6,11.83,8.62,10.49,11.31s-8.22,2-15.35-1.56S973.49,74.9,975,72.3c1.77-3,10.57-3.93,15.35,1.56" transform="translate(0 0)" fill="#3b344d"/><path d="M859.81,145.57A74.72,74.72,0,0,0,846.49,141a77.39,77.39,0,0,0-37.65.8" transform="translate(0 0)" fill="none" stroke="#000" stroke-linecap="round" stroke-miterlimit="10" stroke-width="1.66"/><path d="M865.49,155.45a73.19,73.19,0,0,0-14-1.62,77.21,77.21,0,0,0-36.64,8.73" transform="translate(0 0)" fill="none" stroke="#000" stroke-linecap="round" stroke-miterlimit="10" stroke-width="1.66"/><path d="M1011.33,146.08a74.44,74.44,0,0,1,13.21-5,77.3,77.3,0,0,1,37.66-.37" transform="translate(0 0)" fill="none" stroke="#000" stroke-linecap="round" stroke-miterlimit="10" stroke-width="1.66"/><path d="M1011.77,154.75a77.47,77.47,0,0,1,36.89,7.58" transform="translate(0 0)" fill="none" stroke="#000" stroke-linecap="round" stroke-miterlimit="10" stroke-width="1.66"/><path d="M1062,60.22c2.29-2.7,4.66-5.29,7-7.89s4.79-5.13,7.26-7.61c1.24-1.24,2.36-2.61,3.54-3.91a19.47,19.47,0,0,1,4-3.41,30.81,30.81,0,0,1,4.7-2.53,21.71,21.71,0,0,1,5.45-1.65l.49.57a22.32,22.32,0,0,1-2.53,5.11,32.64,32.64,0,0,1-3.29,4.21,19.45,19.45,0,0,1-4,3.35c-1.48.94-3,1.82-4.45,2.83q-4.29,3-8.71,5.9c-3,1.89-5.91,3.8-9,5.6Z" transform="translate(0 0)" fill="#fff"/><path d="M1060.68,96.37l45.93-4.62" transform="translate(0 0)" fill="#ff6b1f"/><path d="M1060.64,96c3.77-1,7.55-1.8,11.33-2.64s7.58-1.58,11.38-2.26c1.89-.34,3.78-.85,5.67-1.28a24,24,0,0,1,5.73-.61,37,37,0,0,1,5.85.52,25.49,25.49,0,0,1,6,1.68l.07.74a24.75,24.75,0,0,1-5.51,2.83,38.41,38.41,0,0,1-5.67,1.67,24.16,24.16,0,0,1-5.75.53c-1.94,0-3.88-.17-5.81-.13q-5.79.12-11.59,0c-3.88-.07-7.75-.13-11.63-.34Z" transform="translate(0 0)" fill="#fff"/><line x1="806.29" y1="65.02" x2="767.84" y2="33.51" fill="none"/><path d="M806.05,65.31c-3.58-2.17-7.07-4.45-10.56-6.72s-6.93-4.62-10.33-7c-1.69-1.2-3.5-2.26-5.25-3.39a28.39,28.39,0,0,1-4.84-3.91A45.73,45.73,0,0,1,771,39.5a28.62,28.62,0,0,1-3.37-5.69l.48-.58a29.23,29.23,0,0,1,6.24,2.18,45.06,45.06,0,0,1,5.5,3.1,27.79,27.79,0,0,1,4.79,4c1.45,1.5,2.85,3.06,4.35,4.49,3,2.86,6,5.78,8.91,8.75s5.83,6,8.66,9Z" transform="translate(0 0)" fill="#fff"/><path d="M799.34,96.53l-40.07-1.07" transform="translate(0 0)" fill="#ff6b1f"/><path d="M799.33,96.9c-3.35.5-6.7.86-10.06,1.23s-6.7.64-10,.85c-1.68.11-3.35.39-5,.58a17.82,17.82,0,0,1-5-.1,28.75,28.75,0,0,1-5-1.23,20.2,20.2,0,0,1-5-2.4v-.74A20.38,20.38,0,0,1,764.34,93a29.52,29.52,0,0,1,5-1,17.82,17.82,0,0,1,5,.17c1.66.28,3.32.65,5,.84,3.33.39,6.66.86,10,1.39s6.66,1.08,10,1.76Z" transform="translate(0 0)" fill="#fff"/></g></g><rect x="125.49" y="61.75" width="324" height="123" fill="#101010" stroke="#39303a" stroke-miterlimit="10"/><path d="M229.26,111.06a30.9,30.9,0,0,1,1,6.9,29,29,0,0,1-3,12.35,28.18,28.18,0,0,1-7.65,10.15c-.8.53-2.33,1.44-4.6,2.75a26.12,26.12,0,0,1-3.7,1.95h-.77a41.6,41.6,0,0,1-9.1,3.35,52.2,52.2,0,0,1-8.7,1.3c-2.8.16-6.53.25-11.2.25h-1.3l-3.7-.2a2.55,2.55,0,0,1-1.05-.9c-.43-.54-1-1.27-1.65-2.2.4,0,.6-.37.6-1.1a9.88,9.88,0,0,0-.25-1.8,9.88,9.88,0,0,1-.25-1.8l.3-4.4c0-.8-.07-1.94-.2-3.4l-.1-3.3a26.85,26.85,0,0,1,.4-3.9,24.2,24.2,0,0,0,.4-3.5.51.51,0,0,0-.5-.5,19.52,19.52,0,0,0,.5-4.5q0-3.7-.8-11.1c-.53-4.94-.8-8.6-.8-11,0-.67.07-1.74.2-3.2s.2-2.6.2-3.4l-.4-3.1a5.22,5.22,0,0,1,1.65-1.45,5.65,5.65,0,0,1,2.25-.55,10.7,10.7,0,0,1,1.6.15l1.6.25h1.2q.5.2,1.35.45c.57.16,1,.28,1.35.35l1.6-.4,1.5.8c.33,0,1.67,0,4,.1s3.5.3,3.5.7c.13-.2.27-.3.4-.3a.39.39,0,0,1,.4.3h6.7a42,42,0,0,1,7.15,1c3.37.66,5.48,1.4,6.35,2.2l4.4,4.3a3.52,3.52,0,0,1,1.6,1.5c.6.86,1.1,1.33,1.5,1.4,1.33,0,2.52,1.38,3.55,4.15s1.58,4.25,1.65,4.45A43.48,43.48,0,0,0,229.26,111.06Zm-51.65-16a7,7,0,0,0-1.8,1.25,2.86,2.86,0,0,0-.95,1.9,2.67,2.67,0,0,0,1.45-.6,2.68,2.68,0,0,1,1.35-.6,3.66,3.66,0,0,1-.65,2,2.59,2.59,0,0,1-1.55,1.2,1.44,1.44,0,0,1,.4,1.1l-.1.4a3.2,3.2,0,0,0,1.6-1.2l.4,1.6a6.07,6.07,0,0,1,1.8-.65,10.35,10.35,0,0,0,2.15-.75,1.37,1.37,0,0,0,.75-1.3,2.92,2.92,0,0,0-.3-1.3,2.39,2.39,0,0,1-.55.55,3.87,3.87,0,0,0-.45.35.73.73,0,0,1-.35-.15c-.17-.1-.25-.19-.25-.25a1.19,1.19,0,0,1-.3,1,3.15,3.15,0,0,1-1,.45,2.38,2.38,0,0,0-1.05.5,1.84,1.84,0,0,1,.75-1.2,2.63,2.63,0,0,0,.85-1.2,1.17,1.17,0,0,0-1.2.8v-.4a1.13,1.13,0,0,0-.8.4v-.8a34.09,34.09,0,0,1,3.9-1.5,7.07,7.07,0,0,0,1.8-1.1,5,5,0,0,1,2.6-1.3l-.1-.4c0-.47.77-1.1,2.3-1.9a20.18,20.18,0,0,0,3-2.1l-.5-.3a6.32,6.32,0,0,0-3,1.25,14,14,0,0,1-2.15,1.25l-.3-.1c-.8.33-2,.86-3.7,1.6a22,22,0,0,1-2.6,1.1,3.84,3.84,0,0,0-1.35.45ZM175,87.91a7.94,7.94,0,0,0,.25,1.75,4.26,4.26,0,0,0,.55,1.45l.4-.8.4.3a1,1,0,0,1,.45-.85,7.53,7.53,0,0,1,1.25-.75,8.57,8.57,0,0,0,1.6-1,2,2,0,0,0,.7-1.3,11.62,11.62,0,0,0-1.95.2,12.76,12.76,0,0,1-1.85.2c-.6,0-.93-.14-1-.4Zm.15,6.5a5.62,5.62,0,0,0-.15,1,19.57,19.57,0,0,0,4-2.1,15.59,15.59,0,0,0,3.2-2.7,7.61,7.61,0,0,0-3.2,1.3,10.42,10.42,0,0,1-3,1.2.87.87,0,0,1-.5-.1c-.13.51-.25,1-.35,1.45Zm.8,10.15a1.2,1.2,0,0,1,.45.75h.5l.1.7c0,.2-.13.33-.4.4l-.4,3.2.4.4,2.8-3.1-2.4.8a.76.76,0,0,1,.3-.7,3,3,0,0,1,1-.35,1.71,1.71,0,0,0,1.05-.55l.4.3.4-.8h2v-3.1a4.43,4.43,0,0,1-2.5.9.86.86,0,0,0,.5.7l-1.6.8a6,6,0,0,1,2-2.8,12.94,12.94,0,0,0-3.15.5c-1.3.33-2,.76-2,1.3a2.19,2.19,0,0,0,.5.7Zm5.45-17.81a4,4,0,0,1-1,1.7,15.41,15.41,0,0,1-2,1.6,16,16,0,0,0-2.2,1.9h.8l3.6-2.1a1.55,1.55,0,0,0,.6.1,5.28,5.28,0,0,0,1.9-.6,5.46,5.46,0,0,1,1.8-.6l-.8.8h.8a13.1,13.1,0,0,1-2.2,1.8,7.34,7.34,0,0,0-2.1,1.7,2.92,2.92,0,0,0,1.25-.4,2.64,2.64,0,0,1,1.15-.4l9.2-3.9h-2.9V88l-.8.4c-.47-.07-1.2-.24-2.2-.5s-1.47-.5-1.4-.7h-3.2Zm-1.05,39.75a24.84,24.84,0,0,1-2,1.55c-1.2.93-1.9,1.5-2.1,1.7l2.1-.7c.4,0,.63.23.7.7a2.78,2.78,0,0,1,1-1.2,7,7,0,0,0,1.1-1,2.05,2.05,0,0,0,.4-1.35l-.1-1.2a3.67,3.67,0,0,1-1.1,1.51Zm-2.65,5.35a8.19,8.19,0,0,1-1.5,1.5,8.86,8.86,0,0,0,2.1-.4,10.56,10.56,0,0,1,2.3-.4,1.05,1.05,0,0,1,.6.15.81.81,0,0,1,.2.65,3.89,3.89,0,0,1-1.35,2.2,23.5,23.5,0,0,1-2.25,2.1,4.75,4.75,0,0,0,3-1.1,4,4,0,0,0,1.4-3.3,9.52,9.52,0,0,0-.8-3.9,8.49,8.49,0,0,0-3.7,2.51Zm-1.5,2.4v3a5.63,5.63,0,0,0,2.5-1.55,3.45,3.45,0,0,0,1.1-2.35,6.52,6.52,0,0,1-3.6.91Zm1.5,4.35a2.84,2.84,0,0,0-1.5,2.15,5.14,5.14,0,0,0,2.6-1.3c1.13-.87,1.73-1.6,1.8-2.2a8.21,8.21,0,0,0-2.9,1.36Zm-1.35,5.2c.1.43.25.65.45.65a7.75,7.75,0,0,0,2-1.4c1.17-.94,2-1.67,2.55-2.2a12.36,12.36,0,0,0-3.25.55c-1.33.36-2,.91-2,1.65a6.75,6.75,0,0,0,.25.76Zm.15-25.85a4.67,4.67,0,0,0,.1,1c.07.3.2.45.4.45a2.19,2.19,0,0,0,1.25-.45c.43-.3.68-.49.75-.55a4.36,4.36,0,0,1,2-1v-1.9h-.4l-3.2,3.1c-.07-.14-.15-.32-.25-.55a1.73,1.73,0,0,1-.15-.55,2.8,2.8,0,0,1,1.4-2A12.41,12.41,0,0,1,181,114v-2l-.4.8-.4-.3c-2.47,2.42-3.67,4.25-3.67,5.46Zm.95,1.85a2,2,0,0,0-.95,1.65,4.37,4.37,0,0,0,.1,1.3c.2-.2.75-.69,1.65-1.45a3.07,3.07,0,0,0,1.35-2.15,3.67,3.67,0,0,0-2.15.66Zm-.85,8.45,2.8-2.8c-.27-.27-.4-.47-.4-.6,0-.34.22-.59.65-.75a3.67,3.67,0,0,1,1.35-.25v-3.6l-.8-.3a6.54,6.54,0,0,1-1.45,2.25,11.93,11.93,0,0,1-2.15,2Zm3.6-18.2q0,1.2-1.8,1.2a2.19,2.19,0,0,1-1.4-.4v3.9a4.29,4.29,0,0,1,.85-1c.37-.34.65-.6.85-.8a14.4,14.4,0,0,0,2-2.2,4.25,4.25,0,0,0,.7-2.5v-.4c0-.54-.13-.84-.4-.9a3.94,3.94,0,0,1-1.2,1.1,11.93,11.93,0,0,0-1.5,1.15,1.68,1.68,0,0,0-.6,1.25,5.94,5.94,0,0,0,2.5-.39Zm-2,14.6v1.2H177a1.29,1.29,0,0,1,1.2-1.19Zm10.9,23.3c2.93-.27,5.13-.41,6.6-.4a8.39,8.39,0,0,1,1.25-4,26.66,26.66,0,0,1,2.65-4h-8.8a28.79,28.79,0,0,1-4.35,3.75,22.8,22.8,0,0,1-4.75,3l.5.4c0,.53-.4.8-1.2.8q-.9,0-.9-.6c0-.27.62-.77,1.85-1.5a16.85,16.85,0,0,0,2.15-1.4,1.67,1.67,0,0,0,.45-1.1,2,2,0,0,1,.35-1.1,2.53,2.53,0,0,1,1.6-.6,2.82,2.82,0,0,0-1,.85,2.4,2.4,0,0,0-.2,1.15,13,13,0,0,1,2.2-2.3c.87-.8,1.47-1.37,1.8-1.7h-.77a15.68,15.68,0,0,0-3.35.35,3,3,0,0,0-2.15,1.25l-.5-.4a1.52,1.52,0,0,1-.45,1.2,5.79,5.79,0,0,1-1,.7,6.59,6.59,0,0,1-.85.4A7.68,7.68,0,0,0,179,144a6.18,6.18,0,0,1-1.25,1.2,6.14,6.14,0,0,0,1.35-.15,6.14,6.14,0,0,1,1.35-.15l.1.4-.4.3a1.68,1.68,0,0,1-.3-.4,13.48,13.48,0,0,1-1.5,1c-.87.53-1.33,1-1.4,1.4a14.9,14.9,0,0,0,5.5.8c1.44,0,3.64-.13,6.57-.39ZM179.31,96.6a1.56,1.56,0,0,1-.75.45l-.4-.8a5.43,5.43,0,0,1,2.05-1.35,10.6,10.6,0,0,1,2.75-.25h.8a5.09,5.09,0,0,1-2.2.8,12.31,12.31,0,0,0-1.8.4,1.73,1.73,0,0,1-.45.76Zm28.2,5.4a6,6,0,0,0-1-.45c-.37-.14-.85-.34-1.45-.6q-1.09,0-3.9-1.8c-.78-.47-1.58-.91-2.4-1.3l-3.2-.5a50.35,50.35,0,0,0-5.1-.7,7.27,7.27,0,0,1-1.55-.65,3.87,3.87,0,0,0-1.75-.55,2.78,2.78,0,0,0-2.1,1.2,3.61,3.61,0,0,0-1,2.3,5.37,5.37,0,0,0,.05.8,4.17,4.17,0,0,1,0,.5c0,4.26-.12,7.6-.35,10s-.35,3.76-.35,4.1l-.2,2.1a73.91,73.91,0,0,0,.7,9.4q.6,6.19.6,9.3a2.31,2.31,0,0,1-.4,1.65,2.93,2.93,0,0,1-1.25.55,2.1,2.1,0,0,0-1.25.7l-.3-.4a5,5,0,0,1-1.6,1.8,9.68,9.68,0,0,0-1.6,1.4,4.3,4.3,0,0,0,2-.45,9.44,9.44,0,0,0,1.75-1.25,9.4,9.4,0,0,1,1.7-1.15,3.56,3.56,0,0,1,1.6-.35h14.3a12.48,12.48,0,0,0,7.35-2.45,18.26,18.26,0,0,0,5.5-6.25,15.81,15.81,0,0,0,2-7.6,19.32,19.32,0,0,0-.4-3.3,15.32,15.32,0,0,1-.5-3.5,11.14,11.14,0,0,1-1.25-3c-.7-2-1.15-3.44-1.35-4.3-.33-.54-.75-1.24-1.25-2.1a19.74,19.74,0,0,1-1.15-2.3,4.57,4.57,0,0,0-1-.84Zm-22.65,43.55.1.4c0,.53-.3.8-.9.8,0-.26.27-.66.8-1.19Zm1.75-.45a2.46,2.46,0,0,1,1-.25L186,146a.87.87,0,0,1,.6-.84Zm3.88-53.84c-1.3,1.2-2.12,1.8-2.45,1.8h-1.2v1.2l3.6-1.6a1.33,1.33,0,0,1-.25.6c-.2.32-.38.66-.55,1a3.76,3.76,0,0,0,1.8.4c.4,0,1.48-.6,3.25-1.8s2.68-2,2.75-2.5l-2.3.9a12,12,0,0,0-3.9,1.8v-.8c.33-.14,1.32-.59,2.95-1.35s2.45-1.35,2.45-1.75-.6-.5-1.8-.5l-1.7.1C192.69,89.22,191.81,90.06,190.49,91.26Zm-2,53.6-.1-.3a2,2,0,0,1,.45-.5,3,3,0,0,1,.85-.5C189.66,144,189.26,144.46,188.49,144.86Zm6.3-1.85a8,8,0,0,1,2.8-1.75c0,.4-.62,1.06-1.85,2s-2.52,1.81-3.85,2.65-2.2,1.38-2.6,1.65c-.07,0-.1-.2-.1-.6a10.19,10.19,0,0,1,1.75-2.75c1.17-1.57,1.92-2.35,2.25-2.35v.6a3.12,3.12,0,0,1,1.2-1.05,2.88,2.88,0,0,0,1.1-.95l.5.8c-.07.2-.45.53-1.15,1a12.74,12.74,0,0,0-1.75,1.35,2,2,0,0,0-.7,1.55c.44-.47,1.24-1.19,2.37-2.15Zm28.35-20.2q1.35-1.16,1.65-1.35a7.34,7.34,0,0,1,2-1.5c0,.2-.17.46-.5.8,1.13,0,1.7-1.07,1.7-3.2,0-.87-.13-1.4-.4-1.6.07-.34.13-.79.2-1.35a12.26,12.26,0,0,0,.1-1.35,2.92,2.92,0,0,0-.3-1.3l-2.4,1.3c0-.27.28-.6.85-1s.85-.77.85-1.1q-.6,0-.6-.3a5.26,5.26,0,0,0,.8-.9,5,5,0,0,0-.2-1.15,8.08,8.08,0,0,1-.2-.85,1.87,1.87,0,0,0-1,.5,2,2,0,0,1-1,.5c-.2,0-.35-.17-.45-.5s-.18-.5-.25-.5a1.57,1.57,0,0,0-.65.25,2,2,0,0,1-1,.25,1.21,1.21,0,0,1,.8-1.1,6.94,6.94,0,0,1,1.65-.6l1.15-.3a2.8,2.8,0,0,0-.25-1.1,2.57,2.57,0,0,1-.25-.9,3.53,3.53,0,0,0-1.45.65,3.38,3.38,0,0,0-1.25,1v-1.2H222v-1c.2-.07.62-.24,1.25-.5a4.84,4.84,0,0,0,1.15-.6c-.27-.47-.83-1.3-1.7-2.5a32.16,32.16,0,0,0-2.3-2.9,12.73,12.73,0,0,0-2.3-2.1c-.73-.6-1.45-1.22-2.15-1.85s-1-1.12-1-1.45a11,11,0,0,1-3.15-.7c-1.37-.47-2.15-1-2.35-1.5a5.81,5.81,0,0,0-2.5,1,7.88,7.88,0,0,0-2.3,1.8,4.44,4.44,0,0,1-.4-1.6.61.61,0,0,1,.4-.65,6.36,6.36,0,0,1,1.5-.25c.73-.07,1.17-.27,1.3-.6l-1,.1q-1.5,0-1.8-.9a1.46,1.46,0,0,1-.3.8,2.74,2.74,0,0,1-1.05-.25,4.82,4.82,0,0,0-1.85-.25c-1.33,0-2.1.26-2.3.8h1.2c-.13.06-.92.55-2.35,1.45a16,16,0,0,0-3.25,2.55,5.91,5.91,0,0,0,2.3-.5l1.4-.6a16,16,0,0,1,2-.85,5.61,5.61,0,0,1,1.9-.35v.4c0,.33-.83.66-2.5,1a18.89,18.89,0,0,0-3.05.85c-.77.3-1.18.71-1.25,1.25a5.1,5.1,0,0,0,1.6.3,9.57,9.57,0,0,0,2-.3v1c.27,0,.47-.19.6-.55a2.77,2.77,0,0,0,.2-.85l3.9-2.4.1.4c0,.46-.13.73-.4.8V93a5,5,0,0,0-2.15,1.35c-.7.7-1,1.18-1,1.45a7.21,7.21,0,0,1,3.2-1.2v.8l-2.4,1.2a1.39,1.39,0,0,0,.9.5c.4.06.93.11,1.6.15s1,.21,1,.55a2.8,2.8,0,0,0,.25-.35l.25-.45a3.61,3.61,0,0,0-.3-.25.53.53,0,0,1-.2-.45c0-.2.73-.64,2.2-1.3,1.73-.8,2.6-1.3,2.6-1.5a2.08,2.08,0,0,0-.7-.1,1.89,1.89,0,0,0-.7.25,2.17,2.17,0,0,1-.7.25.27.27,0,0,1-.3-.24v-.06c0-.2.27-.45.8-.75a3.38,3.38,0,0,1,1.7-.45,2.66,2.66,0,0,1,1.15.2,2.13,2.13,0,0,0,.55.2c0,.53-.83,1.23-2.5,2.1a8.41,8.41,0,0,0-3.3,2.5,10.1,10.1,0,0,0,2.5-1.2,26.33,26.33,0,0,1,3.5-1.5,9.2,9.2,0,0,1,2.9-.5,5.88,5.88,0,0,1,.6.35c.27.16.4.31.4.45q-2.59.39-6.3,4.7l.3.1a6.85,6.85,0,0,0,.7-.5,1.52,1.52,0,0,1,.9-.4.33.33,0,0,1,.3.15.55.55,0,0,1,.1.35,2.82,2.82,0,0,1,.85-1,4.05,4.05,0,0,1,1.1-.5,9.05,9.05,0,0,0,1.25-.5l.1.4a.47.47,0,0,1-.3.5,2.71,2.71,0,0,1-.75.1.86.86,0,0,0-.65.2c0,.4-.45.83-1.35,1.3s-1.35.9-1.35,1.3c0,.93.27,1.4.8,1.4.27,0,.67-.34,1.2-1a19,19,0,0,1,1.45-1.65,2.2,2.2,0,0,1,1.65-.65c.47,0,.73,0,.8.1a4.61,4.61,0,0,1-1.7,1.3,8.14,8.14,0,0,0-1.8,1.4l.3.4a4.53,4.53,0,0,1,2-1.1,8.22,8.22,0,0,1,2.35-.5c0,.6-.38,1.08-1.15,1.45a15.57,15.57,0,0,1-2.75,1c-1.07.26-1.6.46-1.6.6a4,4,0,0,0,.55,1.45c.37.7.62,1,.75,1,0-.47.6-1.09,1.8-1.85a6.35,6.35,0,0,1,2.4-1.15l.3.1a3.31,3.31,0,0,0,1.5-.9,3.36,3.36,0,0,1,2.1-.9,29.25,29.25,0,0,1-7.1,4.4h.6a11.77,11.77,0,0,0,2.2-.45,13.16,13.16,0,0,0,2.3-.75c0,.46-.82,1.06-2.45,1.8a10.24,10.24,0,0,1-3.45,1.1,60,60,0,0,1,2.7,8.5c.07.46.23,1.23.5,2.3a8.87,8.87,0,0,1,3.4-2.4,10.23,10.23,0,0,0,3.3-2.3,1.72,1.72,0,0,1-.6,1.4,7.2,7.2,0,0,1-1.9,1,7.29,7.29,0,0,0-1.7.9,1.34,1.34,0,0,0-.5,1.1,9.46,9.46,0,0,1,1.6-.7,15.51,15.51,0,0,1,1.5-.5,5.57,5.57,0,0,1-1.65,1.4,4.18,4.18,0,0,1-2,.7,1.55,1.55,0,0,1-.6-.1,4.79,4.79,0,0,0-.5,2.2l.1,2.2a2.28,2.28,0,0,0,.4-.65,2.08,2.08,0,0,1,.4-.65l.6.1c.33,0,1-.5,2-1.5,1.2-1.34,2.13-2,2.8-2,0,.8-.67,1.46-2,2s-1.9,1.16-1.9,1.9c0,.2,0,.3.1.3a9.11,9.11,0,0,1,5.5-2l-6,3.2-.3.4V123a1.25,1.25,0,0,0-.65,1,9,9,0,0,0-.15,1l-.4-.4c-1.07.66-1.6,1.86-1.6,3.6a10.67,10.67,0,0,1,4.7-3.2l.1.4c0,.2-.42.53-1.25,1a3.69,3.69,0,0,0-1.55,1.3,33,33,0,0,1,4.5-1.8c.07-.07.65-.44,1.75-1.1a5.55,5.55,0,0,1,2.65-1V125a2.41,2.41,0,0,0,.85-1.5,17.39,17.39,0,0,0,.15-2.5c-.93.2-1.47.46-1.6.8l.3.4c-.4.2-.88.41-1.45.65a5.94,5.94,0,0,0-1.25.65,1.64,1.64,0,0,0-.7.75c-.13.3-.7.68-1.7,1.15l-.4-1.2a7.07,7.07,0,0,0,2.22-1.4Zm-6.3,17.4a15.11,15.11,0,0,0,3.75-3.15,27.61,27.61,0,0,0,3-4.9c1.87-2.94,3-4.8,3.4-5.6q-.9,1-6.2,2.7a9.37,9.37,0,0,0-2.1.8,8.34,8.34,0,0,1,2.3-1.4c1.53-.74,2.7-1.35,3.5-1.85s1.2-1,1.2-1.45A3.4,3.4,0,0,0,224,126a3.54,3.54,0,0,1-1.65.65l-4.3,1.9a6.35,6.35,0,0,0-3.25,1.3q-2,1.29-2,2.7a5.39,5.39,0,0,0,2.6-1.1,6.38,6.38,0,0,1,2.6-1.2l-.4.3v.8a23.22,23.22,0,0,1,3.25-1.15,11.62,11.62,0,0,1,3.05-.35v.7c0,.26-.33.7-1,1.3a4.59,4.59,0,0,1-1.8,1.1q-.6,0-1.8,1.2a3.76,3.76,0,0,1-2.8,1.8c0-.4.73-1.17,2.2-2.3a38.09,38.09,0,0,1,3.2-2.3.61.61,0,0,0-.4-.4,7,7,0,0,0-3,1.1,8,8,0,0,1-3.3,1.2,1.39,1.39,0,0,1,.4-.8,1.71,1.71,0,0,0,.4-1.1,27.46,27.46,0,0,0-3,3.1q-3,3.3-3.3,3.6a28,28,0,0,1-2.45,1.8,9.52,9.52,0,0,1-2.25,1.4L202.44,143a39.39,39.39,0,0,0-3.55,2.6c-1,.83-1.5,1.51-1.5,2a16.43,16.43,0,0,0,5.6-.9,41.11,41.11,0,0,0,6.4-3.2v.5c2.53-1.14,5-2.41,7.42-3.8Zm-6.1-5.65a8.1,8.1,0,0,0-1.3,1.25,4.08,4.08,0,0,1-1.25,1.05,21.82,21.82,0,0,1-2.7,1.1q-.3.09-2,.75a8.92,8.92,0,0,0-2.85,1.75,5.19,5.19,0,0,0-1.2,2.1c-.07.13-.22.46-.45,1a3.1,3.1,0,0,1-1,1.3,3.73,3.73,0,0,0,1.75-.7,20.47,20.47,0,0,0,1.65-1.3,7.46,7.46,0,0,1,3.2-2l3.2-3.2a.63.63,0,0,0,.4.1,2.19,2.19,0,0,0,1.55-.75,10.69,10.69,0,0,0,1.35-1.65,9.63,9.63,0,0,1,.9-1.2,2.09,2.09,0,0,0-1.28.4Zm-5.5-40.7,1.35-.4c0,.33-.27.66-.8,1a2.66,2.66,0,0,1-1.3.5c-.2,0-.3,0-.3-.1,0-.47.3-.8,1-1Zm2,5.6c.67-.4,1.78-1.17,3.35-2.3a20.72,20.72,0,0,0,2.65-2.1,49.27,49.27,0,0,0-4.65,1.9q-2.85,1.29-2.85,1.8c0,.46.47.7,1.47.7Zm-.7,43.3c.07,0,.1,0,.1.1Zm4.15-3.35a7.59,7.59,0,0,1,2.55-1.75l.1.4q0,.8-3.6,3.8a13.91,13.91,0,0,0-2.4,2.2.74.74,0,0,1-.45-.6,1,1,0,0,0-.25-.6h.3a2.77,2.77,0,0,0,1.8-1.05,2.92,2.92,0,0,0,1-1.75l.4.4a2.31,2.31,0,0,1,.52-1.05Zm1.85-3.35a3.93,3.93,0,0,1,1.1-.8c0,.6-.27.9-.8.9Zm3.5.8a3,3,0,0,1-2.1,1,3,3,0,0,1,.7-1.05c.47-.57.77-.85.9-.85,0,.53.14.79.47.9Zm.8-26.8a2.27,2.27,0,0,1-.8,1.1,3.61,3.61,0,0,1-.25-.3.7.7,0,0,1-.15-.4q.5-1.8,4.7-3.5c-.13.2-.52.83-1.15,1.9s-1.15,1.6-1.55,1.6a2.45,2.45,0,0,1,.4-1.2l-.4-.1c-.3,0-.56.3-.83.9Zm1.9-12.6a7,7,0,0,0-1,.8,2.92,2.92,0,0,1-1,.7,1,1,0,0,1-.7-.3,5.13,5.13,0,0,0,1.25-.75,1.21,1.21,0,0,0,.55-.85h-.6c.07-.34.33-.5.8-.5s.67.3.67.9Zm-2.3,30.8h.4v-.51Zm3.1-14.7a3.92,3.92,0,0,1-1.1,1.7.47.47,0,0,0-.15-.35.41.41,0,0,0-.25-.15.89.89,0,0,0-.45.15.84.84,0,0,0-.35.35.58.58,0,0,1-.1-.4,2.68,2.68,0,0,1,1.3-2,5.77,5.77,0,0,1,2.3-1.2,4.16,4.16,0,0,0-1.23,1.9Zm1.7-12.3-3.3.2c-.07,0-.13-.1-.2-.3,0-.4.52-.74,1.55-1a10.12,10.12,0,0,1,2.25-.4c.27,0,.43.21.5.65a6,6,0,0,1,.1.85Zm-2,8.8a6.38,6.38,0,0,1,.8-1,4.61,4.61,0,0,0,.7-1l.4.4.8-.7-.4,2.3Zm3.45,2.85a9.54,9.54,0,0,1-2.75.85q0-.7,2.7-1.5a11.23,11.23,0,0,1,1.25-.5,5,5,0,0,0,1.25-.6,4.51,4.51,0,0,1-2.48,1.75Zm-.75-2v-.25a1.39,1.39,0,0,1,.15-.8c.1-.14.35-.2.75-.2,0,.46.13.7.4.7l-1.2.8a.31.31,0,0,1-.13-.25Zm5.6,5.85c-.87.46-1.68.93-2.45,1.4s-1.28.8-1.55,1l-.1-.3c0-.74.7-1.17,2.1-1.3q0-.9,1.2-1.2v.4Zm-2.4-1.25a4.22,4.22,0,0,1,1.6-.35v.4l-2.8.8a2.32,2.32,0,0,1,1.17-.85Z" transform="translate(0 0)" fill="#b3b3b3"/><path d="M287.76,131a20.51,20.51,0,0,1-1.65,8.85,14.54,14.54,0,0,1-4.85,5.7,38.61,38.61,0,0,1-8.5,4.25c-.53.2-1.18.46-1.95.8a12,12,0,0,1-2.1.7,11.34,11.34,0,0,1-2.25.2,27.14,27.14,0,0,1-7.75-1.1,70.79,70.79,0,0,1-8.35-3.2c-.47-.2-1.42-.53-2.85-1a27.19,27.19,0,0,1-3.65-1.55,11.49,11.49,0,0,1-3.8-3.7,33.2,33.2,0,0,1-3.4-6,14,14,0,0,1-1.4-5.3,22.18,22.18,0,0,1,1.15-8,51.39,51.39,0,0,1,4.55-8.25q5.29-10.41,19.7-12.3h1.7a10.64,10.64,0,0,1,2.75.35,22.69,22.69,0,0,1,2.65.85l2.8.9q6,1.5,9,5a36.26,36.26,0,0,1,5.7,10.15A33.25,33.25,0,0,1,287.76,131Zm-49.9-.7a23.74,23.74,0,0,1,4.8-2,18.32,18.32,0,0,0,5.7-2.7,27.72,27.72,0,0,0-6.65,1c-2.63.67-3.94,1.63-4,2.9A1.67,1.67,0,0,0,237.86,130.26Zm2.35-8c-1.3.43-2,1.51-2,3.25,1.67-.47,3.68-1.14,6-2s4-1.47,4.75-1.8l-2.6-.1h-.7a18.26,18.26,0,0,0-5.5.7Zm-1.35,11.2a.86.86,0,0,0,.7.25c.8,0,2.73-.74,5.8-2.2.4-.2.77-.37,1.1-.5s.53-.21.8-.3v-.5l-.4.1-2.4.6a21.37,21.37,0,0,0-5.8,1.7,1.37,1.37,0,0,0,.2.9Zm.7-12.65c.47-.2,1.53-.62,3.2-1.25a32.12,32.12,0,0,0,4.1-1.85,14,14,0,0,0-3.15.6,35.54,35.54,0,0,0-3.75,1.2,1.73,1.73,0,0,0-.4,1.35Zm5.5,7.7-2.15.8a20.68,20.68,0,0,0-2.5,1c-.57.3-.85.55-.85.75a17.06,17.06,0,0,1,3.4-.6,18.71,18.71,0,0,0,4.6-1.1,3.18,3.18,0,0,0,1.9-2.6,18.94,18.94,0,0,1-4.4,1.8Zm.2,7q3.41-1.26,4.6-1.75a28.45,28.45,0,0,0-9.4,1.7,3,3,0,0,0,.4.85q.3.45.6.45a28.39,28.39,0,0,0,3.8-1.2Zm2.6-20a24,24,0,0,0-4.45.85,4.35,4.35,0,0,0-2.55,1.85,19.69,19.69,0,0,1,8.9-2.2c.6,0,.93.16,1,.5a2.06,2.06,0,0,0-.6.8,2.47,2.47,0,0,1-.7.9l-6.9,2.6.5.4c.67-.14,1.6-.27,2.8-.4a11.84,11.84,0,0,0,3.6-1,5.17,5.17,0,0,0,2.2-2.55c0-.87.68-1.92,2.05-3.15a22.33,22.33,0,0,1,4.75-3.25,10.12,10.12,0,0,1,4.4-1.4,15.54,15.54,0,0,0,2.05.9,7.28,7.28,0,0,0,2.25.6,6.68,6.68,0,0,0,2.15-1.35,15.78,15.78,0,0,0,2.15-1.85c.07,0,.23-.14.5-.4h-1.3a1,1,0,0,1,.3-.8,2.25,2.25,0,0,1,1-.5,1.67,1.67,0,0,0-.4-.25,1.08,1.08,0,0,0-.5-.15,10.3,10.3,0,0,1-.9.55c-.53.3-.8.55-.8.75.07,0,.15.08.25.25a.89.89,0,0,1,.15.45c0,.86-1.3,1.3-3.9,1.3h-.7q-.6,0-.6-.3l1.3-1.7a63.63,63.63,0,0,0-9.8,3.7q-3,1.4-4.4,1.9a1.93,1.93,0,0,0-1,.75,3.29,3.29,0,0,0-.35,1.1c-.07.43-.2.68-.4.75Zm-2.65,17a14.71,14.71,0,0,0-3.05,1.25h.7a27.47,27.47,0,0,0,4.25-.45c1.83-.3,2.75-.72,2.75-1.25a1.37,1.37,0,0,0-.2-.65c-.13-.24-.27-.35-.4-.35Zm2.2,6.9c2-.84,3.15-1.45,3.35-1.85l-.9-.3a27.28,27.28,0,0,1-7.6,1.4,3,3,0,0,0,.35,1.2,1.35,1.35,0,0,0,.85.8,14.68,14.68,0,0,0,3.95-1.2Zm-1.15-29.85a10.16,10.16,0,0,0-2.65,3,6.23,6.23,0,0,0-1.05,3.15l4.3-1.2a5.57,5.57,0,0,1,.6-1.1c.27-.4.5-.64.7-.7l7.8-3.1-.1-.4a1.12,1.12,0,0,1,.75-1,10.35,10.35,0,0,1,2.25-.65,8.18,8.18,0,0,0,1.1-.2,2,2,0,0,0,1.2-.6l-.5-.1a8.82,8.82,0,0,0-3.6.9c-1.33.6-2.07.93-2.2,1h-.7a1.77,1.77,0,0,0-1.2.3l.4.5-1.1.3v-1.2h-.4l-1.8,1.55a7.37,7.37,0,0,1-4.9,1.45,3.81,3.81,0,0,1,1.55-1.2l1.25-.6c1.07-.34,1.7-.74,1.9-1.2h-.37a5.35,5.35,0,0,0-3.23,1.15Zm5.4,26.4a1.18,1.18,0,0,0-.2-.55c-.13-.24-.27-.35-.4-.35l-4.6,1.3-1-.1c-.87,0-1.3.23-1.3.7l.1.3a19.67,19.67,0,0,0,7.4-1.25Zm-5.55,7.15a10.78,10.78,0,0,0,2,.55l5.2-3-.6-.2-8,1.5a2.83,2.83,0,0,0,1.4,1.2Zm2.15-18.75c.87-.27,1.3-.64,1.3-1.1l-.1-.3a4.73,4.73,0,0,1-1.65.7,19.23,19.23,0,0,0-2.65,1l.9.1a7.78,7.78,0,0,0,2.2-.35Zm1.9,20.55a8.69,8.69,0,0,0,2.2.45c.4-.14,1.17-.42,2.3-.85a28.08,28.08,0,0,0,3.25-1.5c1-.57,1.55-1,1.55-1.45a19.76,19.76,0,0,1-7.3,2l-1.7.25a12.18,12.18,0,0,0-1.8.35c0,.23.5.5,1.5.8Zm-.3-38.25a14.3,14.3,0,0,0,3.9-.55,3.88,3.88,0,0,0,2.6-2c-3.07.53-5.23,1.4-6.5,2.6Zm2.2,32.05c-.67.16-1,.31-1,.45s.3.3.9.3a10.31,10.31,0,0,0,1.75-.2l1.35-.3a2,2,0,0,0-1.3-.5,7,7,0,0,0-1.7.34Zm22.8-6.45a27.22,27.22,0,0,1,5.2-3.2l-.6-.1a8.3,8.3,0,0,0-2.45.65,10.06,10.06,0,0,1-2.15.65c-.13,0-.23-.09-.3-.25a1.08,1.08,0,0,1-.1-.35,2.14,2.14,0,0,1,.85-1.5,20.32,20.32,0,0,1,2.45-1.9c1.33-1.07,2.1-1.7,2.3-1.9h-.4l-5.6,2.1a9,9,0,0,0-.65,2.65,7.58,7.58,0,0,1-1.15,3.35,24.19,24.19,0,0,1-2.9,3h-.5a5.2,5.2,0,0,0,2.1-3.15,19.66,19.66,0,0,0,.5-4.65,28.57,28.57,0,0,0-.65-5.45,20,20,0,0,0-2.05-5.8c-.93-1.7-2.07-2.65-3.4-2.85a2.66,2.66,0,0,1-1.3.5,3,3,0,0,1-1.55-.7,2.79,2.79,0,0,0-1.55-.7,6,6,0,0,0-3.45,1.5,14.83,14.83,0,0,0-3.3,3.5,6.43,6.43,0,0,0-1.35,3.3l.1,1a7.23,7.23,0,0,1-.45,1.7,9.65,9.65,0,0,0-.45,3.2,12.14,12.14,0,0,0,2.7,8.1,9.26,9.26,0,0,0,7.5,3.2q6.19,0,10.9-5.7a2.61,2.61,0,0,0-.4,1.3Zm-21.2,9.2,2.3.1a1.36,1.36,0,0,0,.8-.5,1.53,1.53,0,0,0,.5-1.1Zm1.3,5.2a7.81,7.81,0,0,0,2.85-1,26.5,26.5,0,0,1,2.55-1.15l-6.1,1.7c0,.31.23.45.7.45Zm10.9-3.3v.3l-3.8,1.7a13.26,13.26,0,0,0,5.05-1,21.9,21.9,0,0,0,4.85-2.85c.73-.54,2.39-1.64,5-3.3s4.17-2.67,4.9-3.2a8.84,8.84,0,0,0-3.4.7,27.71,27.71,0,0,0-4,2.1c-1.47.86-2.72,1.53-3.75,2a7.78,7.78,0,0,1-3.15.7v-.9a9.79,9.79,0,0,0-2.65.7c-1.3.46-2,.86-2.05,1.2a8.93,8.93,0,0,0-2-.75,12.53,12.53,0,0,0-2.4-.65c0,.8.55,1.26,1.65,1.4l1.75.2c0,.2-.83.7-2.5,1.5a8.74,8.74,0,0,0-2.2,1.3c2.07-.54,3.33-.84,3.8-.9,1.47-.34,2.93-.74,4.4-1.2a1,1,0,0,1,.5,1Zm-4.1,5.1a12.12,12.12,0,0,0,2.9-1.1,32,32,0,0,0,3.8-2c.07,0,.13-.05.2-.15s.13-.15.2-.15a20.53,20.53,0,0,0-5.45.8,24.39,24.39,0,0,0-5.35,2.1,15.47,15.47,0,0,0,3.7.55Zm1.1-42.7a.33.33,0,0,0,.15.3.55.55,0,0,0,.25.1l4.7-.8a6.82,6.82,0,0,0-2-1,6.9,6.9,0,0,0-2.2-.4c-.6,0-.9.65-.9,1.84Zm18.55,37.4c1.17-1.07,1.75-2,1.75-2.7l-.1-.3a32.06,32.06,0,0,1-5.8,2.75,22.35,22.35,0,0,1-4,1.25,12.85,12.85,0,0,1-4.1,2.3,15,15,0,0,0-2.2,1,10.72,10.72,0,0,0-2,1.4,2.06,2.06,0,0,0,.4.25,1.08,1.08,0,0,0,.5.15,12.1,12.1,0,0,0,2.3-.5,14.32,14.32,0,0,1,3.6-.8,62.35,62.35,0,0,0,6.6-2.6,13.24,13.24,0,0,0,3.05-2.15Zm-3.65-33.7-4.1,3.2-.3-.1a1.9,1.9,0,0,0-.95.5,2.22,2.22,0,0,1-1.35.5,9.06,9.06,0,0,1,2.1-1.8,13.56,13.56,0,0,0,1.8-1.4l-.1-.3c-2.13.8-3.58,1.36-4.35,1.7a7.55,7.55,0,0,0-1.25.6,13.65,13.65,0,0,0,1.4,2.2,13.74,13.74,0,0,1,1.6,2.4,31.79,31.79,0,0,1,3-1.85,7.7,7.7,0,0,1,2.25-1v.9a2.37,2.37,0,0,0-1.3.6,11.29,11.29,0,0,0-1.3,1.1,3.64,3.64,0,0,0-.6.7c.53-.14,1.32-.37,2.35-.7a28.23,28.23,0,0,0,2.65-1,.61.61,0,0,1,.4-.4,2,2,0,0,1,1.3.4,1.38,1.38,0,0,0,.1-.6c0-.6-.45-.93-1.35-1a6,6,0,0,1-1.45-.25,1.33,1.33,0,0,1,.15-.55c.13-.33.25-.66.35-1a3.68,3.68,0,0,0-1.4.5,3.94,3.94,0,0,1-1.6.5l-.9-.1,3.9-1.7Zm-2.9-2a5,5,0,0,0-2.4,1.1,12.71,12.71,0,0,0-2.3,1.9h.4q3.3-1.2,4.45-1.7a9.57,9.57,0,0,0,1.25-.6c0-.42-.47-.65-1.4-.65ZM272.26,135q-2.1,1.14-2.1,2.55a5.17,5.17,0,0,1,1.15-.75,10.6,10.6,0,0,0,1.25-.75,15.15,15.15,0,0,1,1.7-1c.87-.47,1.37-.9,1.5-1.3a9,9,0,0,0-3.5,1.3Zm13-5.15a31.76,31.76,0,0,1-6.7,4c-2.4,1.26-3.9,2.1-4.5,2.5l-1.8.9h.5a28.8,28.8,0,0,0,5.55-2c3.17-1.33,5.36-2.28,6.55-2.85a.57.57,0,0,0,.35-.55v-1Zm-1.8,8.55a4.77,4.77,0,0,0,1.5-3.55q-.9,0-5.5,3.15t-6.3,4.45h.9l5.6-2.6v.8a10.34,10.34,0,0,0,3.83-2.2Zm-1.2-21c0-.67-.27-1-.8-1-.53.26-1.37.65-2.5,1.15a21,21,0,0,0-3,1.6,10,10,0,0,0-2.3,2,7.14,7.14,0,0,0,1.83-.41c.7-.3,1.18-.52,1.45-.65a9.26,9.26,0,0,1,4.4-1.5l.9.1Zm-4.95,4.5c1.43-1.07,2.35-1.74,2.75-2h-.8q-.19,0-4.8,2.1-.6.3-.6,1.5a6.52,6.52,0,0,0,3.45-1.5Zm5.75-2.1c-.2.06-.55.2-1.05.4a3.17,3.17,0,0,0-1,.6,21.35,21.35,0,0,1-2.55,1.65c-1.5.9-2.55,1.51-3.15,1.85l-.4.5,8.2-2.8Zm.5,3.6q-.71,0-4.3,3c-.73.66-1.6,1.36-2.6,2.1a15.54,15.54,0,0,0,4.75-2c1.77-1,2.65-2.09,2.65-3.15Zm1.7,5.6-.4-1.8a1.9,1.9,0,0,0-1.35.65c-.43.43-.88.85-1.35,1.25a6.92,6.92,0,0,1-2.1,1.1v.5a7.88,7.88,0,0,1,3.9-1.3Z" transform="translate(0 0)" fill="#b3b3b3"/><path d="M331.61,140.06a36.39,36.39,0,0,1,1.35,6q-3.4,4.59-16,4.6a24.39,24.39,0,0,1-8.55-1.4,26.76,26.76,0,0,1-7.35-4.3,18.48,18.48,0,0,1-3.25-3.7,13.22,13.22,0,0,1-2.05-3.4c-.27-.8-.6-2.14-1-4a22.46,22.46,0,0,1-.6-4q0-13.71,1.9-16.7,4.1-6.51,9.4-9t13.6-2.5a18.88,18.88,0,0,1,6.45,1.8,32,32,0,0,1,6,3.9v8.39a1.25,1.25,0,0,1-.4.2,2.26,2.26,0,0,1-1.6-.1,2.55,2.55,0,0,1-.75-.85,2.27,2.27,0,0,0-1.1-1,11.38,11.38,0,0,0-3.25-.75q-1.76-.15-4.35-.15a11.39,11.39,0,0,0-8.2,3,10.61,10.61,0,0,0-3.2,8.05q0,7.69,3,12.8l.5.3,2,.9a17.45,17.45,0,0,0,3.2,1.3l4.8.1a10.61,10.61,0,0,0,1.95-.15,16.13,16.13,0,0,0,2.45-.85c.2-.14.7-.52,1.5-1.15a4.3,4.3,0,0,1,1.5-1C330.23,136.56,330.91,137.75,331.61,140.06Zm-30.2-16.6a8.46,8.46,0,0,0-3.75,2.5,6,6,0,0,0-1.3,3.9c.4-.2.88-.49,1.45-.85l1.55-1a3.2,3.2,0,0,1,1.6-.4,1.51,1.51,0,0,1-.8,1.15,6.77,6.77,0,0,1-1.7.85,8.8,8.8,0,0,0,3-.55c1-.37,1.63-.59,1.9-.65a8.28,8.28,0,0,1,3-.9v-1.6a6.71,6.71,0,0,0-2.4.7,4.38,4.38,0,0,1-2.1.7v-.4c.4,0,1.37-.79,2.9-2.35s2.33-2.62,2.4-3.15l-.4-.1c-.2.06-.52.18-.95.35a11.56,11.56,0,0,0-1.25.55c-.47.23-1.52.65-3.15,1.25Zm-4.85,1.4a2.21,2.21,0,0,0,1.3-.75,2.21,2.21,0,0,1,1.3-.75c.33-.14,1.25-.57,2.75-1.3a11.46,11.46,0,0,1,3.15-1.2c0-.07-.05-.14-.15-.2a.46.46,0,0,1-.15-.4.61.61,0,0,1,.4-.4l.8.8.9-.9a7.55,7.55,0,0,0,.9-1.05,1.86,1.86,0,0,0,.3-1c0-.2-.07-.3-.2-.3a8.43,8.43,0,0,0-2.85,1.4,19.8,19.8,0,0,0-3.55,2.7l-1.7.4a2.06,2.06,0,0,0,1.1-.75,5.12,5.12,0,0,0,.7-1.45c.2-.6.4-.94.6-1s1.1-.4,2.3-.8a12.44,12.44,0,0,0,2.85-1.3c.7-.47,1.05-.9,1.05-1.3a.89.89,0,0,0-.15-.45.84.84,0,0,0-.35-.35,19.75,19.75,0,0,0,4.6-1.15,58.5,58.5,0,0,0,6.4-2.5c1.93-.9,2.9-1.59,2.9-2l-.2-.4c-.53.26-1.28.58-2.25,1a19.38,19.38,0,0,1-1.95.65l-6,2a1.16,1.16,0,0,1-.7.4.91.91,0,0,1-.8-.6,8.84,8.84,0,0,1,1.2-1,9.2,9.2,0,0,0,1.1-.85c0-.2.27-.57.8-1.1-1.13.6-2.8,1.41-5,2.45s-4.23,2-6.1,2.75a2.09,2.09,0,0,1-1.05,1l-.95.45a8.86,8.86,0,0,0-1.55.75,1.39,1.39,0,0,0-.65,1l-.8,3.7a7.19,7.19,0,0,1,3.3-1.1c-.33.33-1,.9-2,1.7a7.49,7.49,0,0,1-1.65,1.2Zm.8,9.4a.73.73,0,0,0,.7-.6l6.9-3.5,1.4-1.3a28,28,0,0,0-8.7,2l-.4-.4c-.47.46-.7.8-.7,1v.6c0,1.46.27,2.2.8,2.2Zm2.4,5.85a1.77,1.77,0,0,0,1.3.65,2.54,2.54,0,0,0,1.45-.55c.5-.37.78-.59.85-.65s.4-.3,1-.7a3.32,3.32,0,0,1,1.9-.6c0,.2-.28.6-.85,1.2s-.92.9-1.05.9c.47-.07.93-.15,1.4-.25a5.62,5.62,0,0,1,1-.15l-.4.8-.4-.4a1.8,1.8,0,0,1-1,1.2,3.36,3.36,0,0,0,1.5-.3,7.55,7.55,0,0,0,1.35-.9,4.73,4.73,0,0,1,1.35-.8l-.5-.5a1.59,1.59,0,0,1,.7-.5q.6-.3.6-.6a12.85,12.85,0,0,1-1.2-2.8c-.13-.27-.5-1.1-1.1-2.5s-1-2.14-1.3-2.2l-1.8.8a1.77,1.77,0,0,1-.9.85c-.47.23-.88.41-1.25.55a4.89,4.89,0,0,0-.75.3,14.14,14.14,0,0,0-2.25,1,1.18,1.18,0,0,0-.65,1q-.11,0-.3-.3a2.42,2.42,0,0,1-.5.9,1.87,1.87,0,0,0-.4,1.2,6.66,6.66,0,0,0,2.5-1.2q2.1-1.2,3.75-1.95a7.63,7.63,0,0,1,3.15-.75,1.61,1.61,0,0,1-.85,1.55,11.41,11.41,0,0,1-2.55.85,10.06,10.06,0,0,0-2.15.65,1.18,1.18,0,0,0-.75,1.15,1.13,1.13,0,0,1,.8-.4l1.2.1v.6a3.65,3.65,0,0,1-1.45.4,6.44,6.44,0,0,0-1.5.3.77.77,0,0,0-.55.8,1.93,1.93,0,0,0,.6,1.25Zm-.25-27a2.64,2.64,0,0,0-1,.75c2.4,0,3.63-.37,3.7-1.1l-1.5-.1a6,6,0,0,0-1.22.45Zm3.45,12a10.17,10.17,0,0,1-4.3,2l-.1-.4c0-.47.48-.85,1.45-1.15a8.55,8.55,0,0,1,2.45-.45Zm4.5-19.6A23,23,0,0,0,303,108a5.06,5.06,0,0,0-2.35,3.15l3.9-3.2-2.4,3.6a5.61,5.61,0,0,1,2.1-1.7c1-.54,1.6-.87,1.8-1a17.08,17.08,0,0,0,4.8-3.5l-.5-.8a12.65,12.65,0,0,0-2.87,1Zm-4,38a3.06,3.06,0,0,1,.55-1.15,3.19,3.19,0,0,0,.55-1.25,1.85,1.85,0,0,1-1.3.85,2.44,2.44,0,0,0-1.4.75Zm1.5-7a2.82,2.82,0,0,0-1,.15,2.45,2.45,0,0,1-.65.15c0-.27.42-.5,1.25-.7a9.2,9.2,0,0,1,1.95-.3c.2,0,.53.23,1,.7a.78.78,0,0,1-.55.45,2.64,2.64,0,0,1-.55.15c0-.37-.43-.55-1.45-.55Zm18.3,10.7a4.32,4.32,0,0,1,2-.8,6.27,6.27,0,0,0,2.75-1.15c1.23-.77,1.92-1.49,2.05-2.15l-1.2-3.2-.3-.1-3.5,1.35a36.24,36.24,0,0,0-5.15,2.45c-1.63.93-2.45,1.73-2.45,2.4a2.93,2.93,0,0,1-.15,1.1.57.57,0,0,1-.55.3,4.57,4.57,0,0,1-.9-.15,5.7,5.7,0,0,0-1.3-.15,1.81,1.81,0,0,1,.5-1.25,7.31,7.31,0,0,1,1.43-1.11,4.5,4.5,0,0,0,1.7-1.6l-.8-.4,1.2-1.2a14.2,14.2,0,0,0-2.75.3c-1,.2-1.55.56-1.55,1.1a.44.44,0,0,0,.37.5.29.29,0,0,0,.13,0,3,3,0,0,0,1.8-.7l.1.4a1.44,1.44,0,0,1-.75,1.2,2.61,2.61,0,0,1-1.45.5l-.8-.3v.7c0,.06-.38.18-1.15.35a10.42,10.42,0,0,1-2,.25l-.5-.1,3.3-3-1.9-.4V142l2.3-1.2a1.07,1.07,0,0,0-.65-.75,3.71,3.71,0,0,0-1.15-.15q-2.4,0-7.6,3.7a3.64,3.64,0,0,0,.8-.15,5.51,5.51,0,0,1,1.4-.15c.2,0,.3,0,.3.1,0,1.06-.73,1.6-2.2,1.6q1.2,1.7,5.5,2.85a29.18,29.18,0,0,0,7.3,1.15l1.6-.1,1.2-.8.5.4q.11-1.2,2.8-3.2c1.07-.8,1.6-1.37,1.6-1.7a1.62,1.62,0,0,1,1-1.2,3.46,3.46,0,0,0,1.2-.8c.33.06.5.33.5.8h.7a3.65,3.65,0,0,1-1.6,1.2,12.2,12.2,0,0,0-2.85,2.15,15.56,15.56,0,0,0-2.45,2.35,5,5,0,0,0,1.62-.79Zm-9.6-42.7a4.2,4.2,0,0,1-1.25,1.8,27.14,27.14,0,0,1-2.85,1.9c-.73.4-1.48.83-2.25,1.3a5.36,5.36,0,0,0-1.75,1.6h.4l8.1-4.1a5,5,0,0,1,2-1.4,3.79,3.79,0,0,0,2.1-1.4l-1.1-.1-1.7.1a3.41,3.41,0,0,1-.9-.1.82.82,0,0,0-.8.45Zm-3.3,38.1a1.87,1.87,0,0,0-1,.4,3.47,3.47,0,0,1-1,.5.58.58,0,0,1-.1-.4c0-.67.57-1.07,1.7-1.2a.7.7,0,0,1,.4.75Zm1.3-38.1a.53.53,0,0,0,.45.6.38.38,0,0,0,.15,0c.33,0,.67-.3,1-.9l-.6-.1c-.53,0-.87.18-1,.45Zm6.7,1.9a24.58,24.58,0,0,1-2.1,1.85,3.32,3.32,0,0,1-1.8.85c-.07,0-.2-.1-.4-.3l-.4,1.1a46.72,46.72,0,0,0,4.9-1.6,11.7,11.7,0,0,1,1.9-.7l1.35-.5a11.84,11.84,0,0,0,1.8-.85,4.23,4.23,0,0,0,1.15-1,9.51,9.51,0,0,1-1.8-.6l-1.4-.6c-.6.1-1.67.86-3.2,2.4Zm10.1,1.9a6.89,6.89,0,0,1-2.3.7,21.75,21.75,0,0,0-3.05,1,1.75,1.75,0,0,0-1.15,1.55l6.5.7h.4a17.6,17.6,0,0,1-.37-3.9Zm.55,38.75a2.34,2.34,0,0,0,1.15-2.35q-3.3,2.19-4.6,2.9a8.61,8.61,0,0,0,3.45-.5Zm-2.45-40.2a2.05,2.05,0,0,0-.1.55,3.21,3.21,0,0,0,1.2-.4,3.27,3.27,0,0,0-.35-.3.69.69,0,0,0-.45-.2.53.53,0,0,0-.3.4Z" transform="translate(0 0)" fill="#b3b3b3"/><path d="M355.36,120.46a53.5,53.5,0,0,0,7.9,3.1,72.08,72.08,0,0,1,8.3,3,15.87,15.87,0,0,1,5.5,4.1,10,10,0,0,1,2.3,6.85,12.68,12.68,0,0,1-2.7,7.85,15.47,15.47,0,0,1-6.9,5.15c-.47.2-1.2.55-2.2,1.05a6.51,6.51,0,0,1-2.9.75c-1,0-2.43.06-4.3.2l-4.4.1a17.34,17.34,0,0,1-4-.45,48.14,48.14,0,0,1-4.7-1.45c-1.73-.6-3.2-1-4.4-1.35a18.47,18.47,0,0,0-3.7-.55l-.4-.5v-9.5c0-.27.43-.4,1.3-.4q2.1,0,6.7,1.9c1.87.67,3.42,1.18,4.65,1.55a12.58,12.58,0,0,0,3.55.55,9.79,9.79,0,0,0,2.15-.25,19.45,19.45,0,0,0,2.35-.75,1.38,1.38,0,0,1-.1-.6,4.38,4.38,0,0,1,.7-2.1,6.33,6.33,0,0,0,.8-2.5,3.52,3.52,0,0,0-1.7-3.3,16.71,16.71,0,0,0-5-1.7,12.77,12.77,0,0,1-4.2-1.4c-.4-.27-1.07-.67-2-1.2a24.43,24.43,0,0,1-2.25-1.5q-.9-.7-.9-1.2c-1-.27-2.07-1.33-3.2-3.2a29.18,29.18,0,0,1-2.5-5l-.4-2.5a13.37,13.37,0,0,1,4.4-10.4,15.73,15.73,0,0,1,11-4c.53.06,1.23.18,2.1.35s1.8.31,2.8.45q10.2,1.89,13.2,1.9c.6,0,1.15,1,1.65,2.9a22.68,22.68,0,0,1,.75,5.8c0,2.6-.47,3.9-1.4,3.9l-.4-.1a6,6,0,0,0-2.9-2.65,18.13,18.13,0,0,0-3.75-1.1c-1.3-.24-2-.42-2-.55h-1.4a22,22,0,0,0-6.75,1q-3.15,1-3.15,3.9A4.11,4.11,0,0,0,355.36,120.46Zm-14,26.2a7.8,7.8,0,0,0,4.8-2.6,1.08,1.08,0,0,1-.55-.15.73.73,0,0,0-.35-.15,7.69,7.69,0,0,0-2.5.6q-1.61.6-1.8,1.5A1,1,0,0,0,341.36,146.66Zm0-31h.9a50.81,50.81,0,0,0,5.6-2.2q5.2-2.2,7.8-3.4l4.1-2.3c1.67-.94,3-1.74,4.1-2.4a5.27,5.27,0,0,0-2.4-.6l-.85-.05a3.16,3.16,0,0,1-1.05-.25.88.88,0,0,1-.5-.5l-8.6,4.3a7.35,7.35,0,0,0,2.85-.6c1-.4,1.55-.64,1.75-.7a10.17,10.17,0,0,1,4.4-1.3,1.17,1.17,0,0,1,.7.2.58.58,0,0,1,.3.5q0,.19-11.7,5.4h-.9l-6.5,3.5Zm1.85-4.55c-1.23.76-1.85,1.55-1.85,2.35,3.27-.8,5.43-1.94,6.5-3.4l-.9-.1A7,7,0,0,0,343.21,111.11Zm6,2.75a42.27,42.27,0,0,0-4.45,2,10.09,10.09,0,0,0-3,2.35,4.91,4.91,0,0,0,2.5-.75,13,13,0,0,0,1.6-1,7.87,7.87,0,0,1,4-1.7c0,.26-.3.6-.9,1a7.93,7.93,0,0,0-1.1.8,9.34,9.34,0,0,0-2.1,1.6,13.47,13.47,0,0,0,1.5-.55,15.83,15.83,0,0,1,2.3-.75,11.42,11.42,0,0,0,1.15-1.85,5.56,5.56,0,0,1,2.35-2.45v-.5A25,25,0,0,1,349.16,113.86Zm-3-7.9a17.12,17.12,0,0,0-2.65,1.3,2.09,2.09,0,0,0-.95,1.9h.6q1.2,0,7.9-3l2-.8c-.67-.07-1-.17-1-.3s.43-.42,1.3-.85,1.33-.89,1.4-1.35c-2.67,0-4.4.36-5.2,1.1l-1.3.9C348.13,105.19,347.43,105.56,346.16,106Zm.75,14.3a15.61,15.61,0,0,0,2.65-2,18.13,18.13,0,0,1-3.4.9,20,20,0,0,0-3.5.8c.07.93.5,1.4,1.3,1.4A5.88,5.88,0,0,0,346.91,120.26Zm-2.85,26.9q2.4,0,10.7-1.8c-1.2-.87-3.5-1.31-6.9-1.3-.53.4-1.38,1-2.55,1.75a9.78,9.78,0,0,0-1.75,1.25Zm2.25-22.7a3,3,0,0,0,.45.8,6.62,6.62,0,0,0,2.35-1.4c1.23-.94,1.85-1.54,1.85-1.8a.58.58,0,0,0-.4-.1,8.33,8.33,0,0,0-2.55.65,22.82,22.82,0,0,1-2.25.75A8.68,8.68,0,0,1,346.31,124.46Zm1.85,24.2a12.09,12.09,0,0,0,1.8.2l4.3-1.9a.73.73,0,0,1-.35-.15.89.89,0,0,0-.45-.15c-1,.13-2.23.33-3.7.6s-2.67.5-3.6.7A5.49,5.49,0,0,0,348.16,148.66Zm1.75-27.25c1-.17,1.52-.35,1.45-.55l-.9-1.4-3.9,2.2h.7A18.14,18.14,0,0,0,349.91,121.41Zm-1.15,5.3a6.38,6.38,0,0,0,1.7.55l4.7-2.6c-.33.06-1.53.25-3.6.55a35.6,35.6,0,0,0-4.1.75c0,.13.43.38,1.3.79Zm2.75-3.35a17.21,17.21,0,0,1-1.95.9l.9.4c.07-.14.6-.29,1.6-.45a21.22,21.22,0,0,0,2.2-.45l.5-.4a9,9,0,0,1-.85-.5,3,3,0,0,0-.75-.4c-.33.19-.89.49-1.67.9Zm3.4,2.4a5.27,5.27,0,0,0-2.35,1.9,47.32,47.32,0,0,0,8.7-1.2l3-.5a25.94,25.94,0,0,0-6.2-.9,7.45,7.45,0,0,0-3.15.69Zm19.45,18a3.38,3.38,0,0,0,.7-1.9,9.6,9.6,0,0,0-2.8.6l-4.2,1.2q-13.9,3.3-15.5,5.5a72.69,72.69,0,0,0,7.75-1.25q6.56-1.26,12.55-2.55a7.4,7.4,0,0,0,1.5-1.61ZM361,128.86a5.64,5.64,0,0,1,2.9-1.1v-.5c-.13.06-1.5.23-4.1.5q-3.4.19-5.1.45c-1.13.16-1.67.41-1.6.75a20,20,0,0,0,5.2.9,5.52,5.52,0,0,0,2.7-1Zm7.1,20-1.2-.1a13.42,13.42,0,0,0-2,.2,15.11,15.11,0,0,1-1.9.2c.27,0,.4-.27.4-.8l-6,1.7a1.51,1.51,0,0,0,.65.4,3.15,3.15,0,0,0,.75.1,26.82,26.82,0,0,0,9.3-1.7Zm2.2-19.5-2.5-.8a14.27,14.27,0,0,0-2.7-.9,11.12,11.12,0,0,0-2.4,1.35,9.34,9.34,0,0,0-2.3,1.75,31,31,0,0,0,9.9-1.4Zm-9.9,14.3a2.38,2.38,0,0,0,.4.5.81.81,0,0,0,.5.3c.33-1.07,1.57-2.05,3.7-3a91.18,91.18,0,0,1,8.8-3V138a24.09,24.09,0,0,1-7.4,1.1c-.8,0-1.93-.07-3.4-.2q-.6.3-2.6,4.8Zm4.4-38.3c-.53,0-1.3.51-2.3,1.55l-1.7,1.75h.5l5.2-3a3.83,3.83,0,0,0-1.7-.3Zm1.7,27.05a6,6,0,0,0,2.5-1.65,27.47,27.47,0,0,0-4.25.45c-1.77.3-2.65.71-2.65,1.25s.37.9,1.1.9a8.85,8.85,0,0,0,3.33-1Zm2.5-26.25a4.43,4.43,0,0,0-1.75.4,10.5,10.5,0,0,0-1.5.75l-.75.45a16.13,16.13,0,0,1-2.5,1.4,10.75,10.75,0,0,0,2.7.4c1.53,0,2.8-1.14,3.8-3.4Zm.35,28.05a14.67,14.67,0,0,0-1.85.45,15.76,15.76,0,0,0-3.25.8,1.49,1.49,0,0,0-1,1.5l.1,1.1,10.4-4.7-.5-.1a2.45,2.45,0,0,0-.85.15c-.3.1-.58.18-.85.25a21.34,21.34,0,0,1-2.2.55Zm2.25-3.15-6.9,2.6v.5c.53-.07,1.58-.19,3.15-.35a23.45,23.45,0,0,0,3.9-.7,3.82,3.82,0,0,0,2-1.15,3.8,3.8,0,0,0-2.15-.9Zm3,3.1-8.1,3.4-.5.5c2.13,0,4.39-.12,6.8-.35s3.61-.68,3.6-1.35c0-1.47-.6-2.2-1.8-2.2Zm1.65,6.35a2.56,2.56,0,0,0,.15-.95c0-.74-.17-1.1-.5-1.1l-8.6,3.4v.6a10,10,0,0,0,3.9-1.1c.13-.07.67-.27,1.6-.6a8,8,0,0,1,2.7-.5v.8a1.17,1.17,0,0,0,.75-.55Zm-6.45-33.95a2.36,2.36,0,0,1-.6,1.45,8,8,0,0,0-.7.95.46.46,0,0,0,.1.25.33.33,0,0,0,.3.15c.2,0,.58-.29,1.15-.85a10.37,10.37,0,0,1,1.15-1.05,1.42,1.42,0,0,0-1.4-.9Zm2.2,2.9a9.05,9.05,0,0,0-1.8.15,2,2,0,0,0-1.2.85,10.89,10.89,0,0,0,3,.5Z" transform="translate(0 0)" fill="#b3b3b3"/><ellipse cx="1703.54" cy="120.65" rx="16.58" ry="15.23" fill="none" stroke="#a96dc8" stroke-miterlimit="10" stroke-width="1.77"/><ellipse cx="1704.04" cy="111.48" rx="31.33" ry="28.76" transform="translate(-0.52 8.33) rotate(-0.28)" fill="none" stroke="#a96dc8" stroke-miterlimit="10" stroke-width="1.77"/><ellipse cx="1677.01" cy="142.8" rx="6.91" ry="6.34" transform="translate(-0.67 8.2) rotate(-0.28)" fill="none" stroke="#a96dc8" stroke-miterlimit="10" stroke-width="1.77"/><ellipse cx="1745.95" cy="112.86" rx="6.91" ry="6.34" transform="translate(-0.53 8.53) rotate(-0.28)" fill="none" stroke="#a96dc8" stroke-miterlimit="10" stroke-width="1.77"/><ellipse cx="1732.92" cy="85.85" rx="6.91" ry="6.34" transform="translate(-0.39 8.47) rotate(-0.28)" fill="none" stroke="#a96dc8" stroke-miterlimit="10" stroke-width="1.77"/><ellipse cx="1706.16" cy="74.98" rx="6.91" ry="6.34" transform="translate(-0.34 8.34) rotate(-0.28)" fill="none" stroke="#a96dc8" stroke-miterlimit="10" stroke-width="1.77"/><ellipse cx="1676.71" cy="84.44" rx="6.91" ry="6.34" transform="translate(-0.39 8.19) rotate(-0.28)" fill="none" stroke="#a96dc8" stroke-miterlimit="10" stroke-width="1.77"/><ellipse cx="1662.12" cy="114.96" rx="6.91" ry="6.34" transform="translate(-0.54 8.12) rotate(-0.28)" fill="none" stroke="#a96dc8" stroke-miterlimit="10" stroke-width="1.77"/><ellipse cx="1703.77" cy="152.81" rx="6.91" ry="6.34" transform="translate(-0.72 8.33) rotate(-0.28)" fill="none" stroke="#a96dc8" stroke-miterlimit="10" stroke-width="1.77"/><ellipse cx="1731.36" cy="143.38" rx="6.91" ry="6.34" transform="translate(-0.68 8.46) rotate(-0.28)" fill="none" stroke="#a96dc8" stroke-miterlimit="10" stroke-width="1.77"/><ellipse cx="712.19" cy="130.21" rx="16.58" ry="15.23" fill="none" stroke="#a96dc8" stroke-miterlimit="10" stroke-width="1.77"/><ellipse cx="712.78" cy="125.88" rx="31.33" ry="28.76" transform="translate(-0.6 3.48) rotate(-0.28)" fill="none" stroke="#a96dc8" stroke-miterlimit="10" stroke-width="1.77"/><ellipse cx="685.74" cy="157.2" rx="6.91" ry="6.34" transform="translate(-0.76 3.35) rotate(-0.28)" fill="none" stroke="#a96dc8" stroke-miterlimit="10" stroke-width="1.77"/><ellipse cx="754.69" cy="127.25" rx="6.91" ry="6.34" transform="translate(-0.61 3.69) rotate(-0.28)" fill="none" stroke="#a96dc8" stroke-miterlimit="10" stroke-width="1.77"/><ellipse cx="741.66" cy="100.25" rx="6.91" ry="6.34" transform="translate(-0.48 3.63) rotate(-0.28)" fill="none" stroke="#a96dc8" stroke-miterlimit="10" stroke-width="1.77"/><ellipse cx="714.89" cy="89.38" rx="6.91" ry="6.34" transform="translate(-0.42 3.49) rotate(-0.28)" fill="none" stroke="#a96dc8" stroke-miterlimit="10" stroke-width="1.77"/><ellipse cx="685.46" cy="98.82" rx="6.91" ry="6.34" transform="translate(-0.47 3.35) rotate(-0.28)" fill="none" stroke="#a96dc8" stroke-miterlimit="10" stroke-width="1.77"/><ellipse cx="670.87" cy="129.35" rx="6.91" ry="6.34" transform="translate(-0.62 3.28) rotate(-0.28)" fill="none" stroke="#a96dc8" stroke-miterlimit="10" stroke-width="1.77"/><ellipse cx="712.51" cy="167.22" rx="6.91" ry="6.34" transform="translate(-0.8 3.48) rotate(-0.28)" fill="none" stroke="#a96dc8" stroke-miterlimit="10" stroke-width="1.77"/><ellipse cx="740.1" cy="157.77" rx="6.91" ry="6.34" transform="translate(-0.76 3.62) rotate(-0.28)" fill="none" stroke="#a96dc8" stroke-miterlimit="10" stroke-width="1.77"/></svg>