<svg xmlns="http://www.w3.org/2000/svg" xmlns:xlink="http://www.w3.org/1999/xlink" viewBox="0 0 1871.73 253.51"><defs><clipPath id="a" transform="translate(-0.63 17.56)"><rect x="766.1" y="-18.53" width="351" height="255.46" fill="none"/></clipPath></defs><rect x="625.03" y="98.56" width="312.34" height="121.15" fill="#101010" stroke="#39303a" stroke-miterlimit="10" stroke-width="0.73"/><rect x="312.7" y="98.56" width="312.34" height="121.15" fill="#101010" stroke="#39303a" stroke-miterlimit="10" stroke-width="0.73"/><rect x="1559.02" y="98.57" width="312.34" height="121.13" fill="#101010" stroke="#39303a" stroke-miterlimit="10" stroke-width="0.73"/><rect x="1248.19" y="98.57" width="312.34" height="121.13" fill="#101010" stroke="#39303a" stroke-miterlimit="10" stroke-width="0.73"/><rect x="935.85" y="98.57" width="312.34" height="121.14" fill="#101010" stroke="#39303a" stroke-miterlimit="10" stroke-width="0.73"/><rect x="0.36" y="98.56" width="312.34" height="121.15" fill="#101010" stroke="#39303a" stroke-miterlimit="10" stroke-width="0.73"/><ellipse cx="1416.07" cy="157.77" rx="11.06" ry="10.15" fill="none" stroke="#a96dc8" stroke-miterlimit="10" stroke-width="1.77"/><ellipse cx="1415.61" cy="157.35" rx="23.49" ry="21.57" fill="none" stroke="#a96dc8" stroke-miterlimit="10" stroke-width="1.77"/><ellipse cx="1415.61" cy="157.35" rx="35.47" ry="32.57" fill="none" stroke="#a96dc8" stroke-miterlimit="10" stroke-width="1.77"/><path d="M1151.76,114.31c10.37,7.49,11.62,19.77,6.64,23.74s-19.32,1.7-24.68-9.36c-4.09-8.44-8.62-24.47-6.64-23.74C1129.82,105.94,1142.11,107.34,1151.76,114.31Z" transform="translate(-0.63 17.56)" fill="none" stroke="#a96dc8" stroke-miterlimit="10" stroke-width="1.77"/><path d="M1189.4,128.75c-6.59,10.49-19.66,13.38-24.65,9.42s-4.59-17.31,6.57-23.76c8.53-4.93,25.16-11.33,24.66-9.42C1195.29,107.65,1195.54,119,1189.4,128.75Z" transform="translate(-0.63 17.56)" fill="none" stroke="#a96dc8" stroke-miterlimit="10" stroke-width="1.77"/><path d="M1172.58,165.61c-10.76-7-12.69-19.21-7.94-23.41s19.2-2.6,25.17,8.2c4.55,8.24,10,24,7.94,23.41C1195,172.94,1182.6,172.12,1172.58,165.61Z" transform="translate(-0.63 17.56)" fill="none" stroke="#a96dc8" stroke-miterlimit="10" stroke-width="1.77"/><path d="M1134.19,152.91c6-10.78,18.9-14.28,24.1-10.55s5.54,17.07-5.25,24c-8.24,5.32-24.5,12.48-24.1,10.55C1129.49,174.29,1128.6,162.94,1134.19,152.91Z" transform="translate(-0.63 17.56)" fill="none" stroke="#a96dc8" stroke-miterlimit="10" stroke-width="1.77"/><ellipse cx="459.61" cy="156.3" rx="11.06" ry="10.15" fill="none" stroke="#a96dc8" stroke-miterlimit="10" stroke-width="1.77"/><ellipse cx="459.15" cy="155.88" rx="23.49" ry="21.57" fill="none" stroke="#a96dc8" stroke-miterlimit="10" stroke-width="1.77"/><ellipse cx="459.15" cy="155.88" rx="35.47" ry="32.57" fill="none" stroke="#a96dc8" stroke-miterlimit="10" stroke-width="1.77"/><path d="M119.1,116.64c10.37,7.48,11.62,19.77,6.64,23.74s-19.32,1.7-24.68-9.36c-4.09-8.44-8.57-24.47-6.63-23.74C97.16,108.27,109.49,109.67,119.1,116.64Z" transform="translate(-0.63 17.56)" fill="none" stroke="#a96dc8" stroke-miterlimit="10" stroke-width="1.77"/><path d="M156.74,131.11c-6.59,10.49-19.66,13.38-24.65,9.41s-4.6-17.31,6.57-23.77c8.53-4.93,25.16-11.33,24.66-9.42C162.63,110,162.88,121.35,156.74,131.11Z" transform="translate(-0.63 17.56)" fill="none" stroke="#a96dc8" stroke-miterlimit="10" stroke-width="1.77"/><path d="M139.92,167.94c-10.76-7-12.69-19.21-7.94-23.41s19.2-2.6,25.17,8.2c4.55,8.24,10,24,7.94,23.4C162.3,175.27,149.94,174.45,139.92,167.94Z" transform="translate(-0.63 17.56)" fill="none" stroke="#a96dc8" stroke-miterlimit="10" stroke-width="1.77"/><path d="M101.49,155.24c6-10.78,18.9-14.28,24.1-10.55s5.54,17.07-5.25,24c-8.24,5.31-24.5,12.48-24.1,10.55C96.82,176.62,95.94,165.27,101.49,155.24Z" transform="translate(-0.63 17.56)" fill="none" stroke="#a96dc8" stroke-miterlimit="10" stroke-width="1.77"/><g clip-path="url(#a)"><g clip-path="url(#a)"><path d="M989.37,200.41h36c4.47-41.63-31.86-61.68-76.61-59.37-46.85,2.41-86,20.42-76.62,59.69q58.61-.43,117.21-.35" transform="translate(-0.63 17.56)" fill="#3b344d"/><path d="M989.37,200.41h36c4.47-41.63-31.86-61.68-76.61-59.37-46.85,2.41-86,20.42-76.62,59.69Q930.78,200.33,989.37,200.41Z" transform="translate(-0.63 17.56)" fill="none" stroke="#000" stroke-miterlimit="10" stroke-width="3.32"/><path d="M911.94,214.5c-2.14,12.35-10.92,21.14-19.62,19.63s-14-12.73-11.88-25.08,10.92-21.12,19.66-19.63,14,12.73,11.89,25.08" transform="translate(-0.63 17.56)" fill="#3b344d"/><path d="M911.94,214.5c-2.14,12.35-10.92,21.14-19.62,19.63s-14-12.73-11.88-25.08,10.92-21.12,19.66-19.63S914.1,202.18,911.94,214.5Z" transform="translate(-0.63 17.56)" fill="none" stroke="#000" stroke-miterlimit="10" stroke-width="3.32"/><path d="M1015.75,209.06c1.8,12.4-3.82,23.48-12.56,24.75s-17.28-7.76-19.08-20.16,3.82-23.48,12.56-24.75,17.27,7.76,19.08,20.16" transform="translate(-0.63 17.56)" fill="#3b344d"/><path d="M1015.75,209.06c1.8,12.4-3.82,23.48-12.56,24.75s-17.28-7.76-19.08-20.16,3.82-23.48,12.56-24.75S1013.94,196.66,1015.75,209.06Z" transform="translate(-0.63 17.56)" fill="none" stroke="#000" stroke-miterlimit="10" stroke-width="3.32"/><path d="M996.35,219.83a25.1,25.1,0,0,1-1.6,10.68" transform="translate(-0.63 17.56)" fill="#3b344d"/><path d="M996.35,219.83a25.1,25.1,0,0,1-1.6,10.68" transform="translate(-0.63 17.56)" fill="none" stroke="#000" stroke-linecap="round" stroke-miterlimit="10" stroke-width="2.49"/><path d="M1007.39,221.93a24.65,24.65,0,0,1-1.61,10.68" transform="translate(-0.63 17.56)" fill="#3b344d"/><path d="M1007.39,221.93a24.65,24.65,0,0,1-1.61,10.68" transform="translate(-0.63 17.56)" fill="none" stroke="#000" stroke-linecap="round" stroke-miterlimit="10" stroke-width="2.49"/><path d="M890.42,220.26a25.12,25.12,0,0,1,0,3.47,25.46,25.46,0,0,1-1.6,7.21" transform="translate(-0.63 17.56)" fill="#3b344d"/><path d="M890.42,220.26a25.12,25.12,0,0,1,0,3.47,25.46,25.46,0,0,1-1.6,7.21" transform="translate(-0.63 17.56)" fill="none" stroke="#000" stroke-linecap="round" stroke-miterlimit="10" stroke-width="2.49"/><path d="M901.45,222.38a22.33,22.33,0,0,1,0,3.47,24.79,24.79,0,0,1-1.6,7.21" transform="translate(-0.63 17.56)" fill="#3b344d"/><path d="M901.45,222.38a22.33,22.33,0,0,1,0,3.47,24.79,24.79,0,0,1-1.6,7.21" transform="translate(-0.63 17.56)" fill="none" stroke="#000" stroke-linecap="round" stroke-miterlimit="10" stroke-width="2.49"/><path d="M1044,38.8c-.59-5.72-1.32-13.48-2.09-24.46-3.74-68.16-56.38-.16-73.71,36.32l70.46,31.52c1.36-5.27,2.48-9.32,3.39-12.55a11.53,11.53,0,0,1,.61-3.45c.18-.59.36-1.19.55-1.78a11.64,11.64,0,0,1,.06-1.45,41.31,41.31,0,0,1,.64-5.32,69.07,69.07,0,0,1,.14-18.78" transform="translate(-0.63 17.56)" fill="#3b344d"/><path d="M1044,38.8c-.59-5.72-1.32-13.48-2.09-24.46-3.74-68.16-56.38-.16-73.71,36.32l70.46,31.52c1.36-5.27,2.48-9.32,3.39-12.55a11.53,11.53,0,0,1,.61-3.45c.18-.59.36-1.19.55-1.78a11.64,11.64,0,0,1,.06-1.45,41.31,41.31,0,0,1,.64-5.32A69,69,0,0,1,1044,38.8Z" transform="translate(-0.63 17.56)" fill="none" stroke="#000" stroke-miterlimit="10" stroke-width="3.32"/><path d="M897.1,5.8c-4.61-4.82-11.94-13.09-23-19.23a27.61,27.61,0,0,0-4.31-2l-6.33.08c-1.31.69-3,2.43-6.45,9.39A73.9,73.9,0,0,0,852.2,5.25c-7.3,23.1-3.74,47.54-3.74,47.54a111.83,111.83,0,0,0,8.64,29.39l63-34.71a69.05,69.05,0,0,0-4.82-16.53C910.51,19.93,904.1,13,897.1,5.8Z" transform="translate(-0.63 17.56)" fill="#3b344d"/><path d="M867.78-15.94a17.67,17.67,0,0,1-3.61.46C854.52-5.83,849.7,7,848.1,19.93c-1.61,20.9-1.61,43.41,9,62.28" transform="translate(-0.63 17.56)" fill="none" stroke="#000" stroke-miterlimit="10" stroke-width="3.32"/><path d="M920.1,47.46C916.61,25.25,901,6.71,883.76-7" transform="translate(-0.63 17.56)" fill="none" stroke="#000" stroke-miterlimit="10" stroke-width="3.32"/><path d="M856,74.69c-5.26-16.19-9-67.68,6.94-87,11.5,14.16,31.74,41.93,31,57.14" transform="translate(-0.63 17.56)" fill="#ffdafc"/><path d="M856,74.69c-5.26-16.19-9-67.68,6.94-87,11.5,14.16,31.74,41.93,31,57.14" transform="translate(-0.63 17.56)" fill="none" stroke="#000" stroke-miterlimit="10" stroke-width="1.66"/><path d="M1037.61,75.76c7.69-16.86,5.18-71-7.47-87.59-5.76,2-41.93,49.06-32,58.22" transform="translate(-0.63 17.56)" fill="#ffdafc"/><path d="M1037.61,75.76c7.69-16.86,5.18-71-7.47-87.59-5.76,2-41.93,49.06-32,58.22" transform="translate(-0.63 17.56)" fill="none" stroke="#000" stroke-miterlimit="10" stroke-width="1.66"/><path d="M1036.25,140.38c-20.81,31-65.31,30.48-96.94,31.25-62.1,1.66-123.8-33.82-81.71-99.34,52.7-66.94,230.15-30.6,178.65,68.09" transform="translate(-0.63 17.56)" fill="#3b344d"/><path d="M1036.25,140.38c-20.81,31-65.31,30.48-96.94,31.25-62.1,1.66-123.8-33.82-81.71-99.34C910.3,5.35,1087.75,41.69,1036.25,140.38Z" transform="translate(-0.63 17.56)" fill="none" stroke="#000" stroke-miterlimit="10" stroke-width="4.15"/><path d="M996.43,45.32c1.17-.17,2.89-.39,5-.54a29,29,0,0,1,6.59,0c3.69.57,6.7,2.21,6.58,2.68,0,.16-.47.07-2.47.49-.48.1-.85.18-1.21.28,0,0-.78.21-1.48.47-1,.37-3.12,1.29-3,1.6s7.66-.17,7.66-.17,3.13,1.24,3.74,1.6a17.76,17.76,0,0,1,3.56,2.85c1.15,1.1,1.73,1.65,1.6,2-.28.66-2.88-.35-6.59-.17a18.69,18.69,0,0,0-4.27.71" transform="translate(-0.63 17.56)" fill="#3d334b"/><path d="M996.43,45.32c1.17-.17,2.89-.39,5-.54a29,29,0,0,1,6.59,0c3.69.57,6.7,2.21,6.58,2.68,0,.16-.47.07-2.47.49-.48.1-.85.18-1.21.28,0,0-.78.21-1.48.47-1,.37-3.12,1.29-3,1.6s7.66-.17,7.66-.17,3.13,1.24,3.74,1.6a17.76,17.76,0,0,1,3.56,2.85c1.15,1.1,1.73,1.65,1.6,2-.28.66-2.88-.35-6.59-.17a18.69,18.69,0,0,0-4.27.71" transform="translate(-0.63 17.56)" fill="none" stroke="#000" stroke-miterlimit="10" stroke-width="1.66"/><path d="M966.73,141.39l1.74,1.59-3.23,3.38-1.4-3.6,1.18-1.24a16.4,16.4,0,0,0,1.71-.13" transform="translate(-0.63 17.56)" fill="#fff"/><path d="M966.73,141.39l1.74,1.59-3.23,3.38-1.4-3.6,1.18-1.24C965.61,141.5,966.16,141.45,966.73,141.39Z" transform="translate(-0.63 17.56)" fill="none" stroke="#fff" stroke-miterlimit="10" stroke-width="0.42"/><path d="M948.61,119.64h.22c.57,0,1.14.07,1.72.07h2c.8.31,1.63.59,2.46.82h0v2.88a27.68,27.68,0,0,0-6.23,4.33c-.27.25-.54.5-.79.76h-.38v-8.89h1" transform="translate(-0.63 17.56)"/><path d="M948.61,119.56h.22c.58,0,1.16.08,1.74.08h2c.82.32,1.65.59,2.49.83v.08s.2.19,0,.28v2.69a34.93,34.93,0,0,0-6.06,4.32c-.28.25-.8.68-.8.68h-.63v-9C947.94,119.55,948.26,119.56,948.61,119.56Z" transform="translate(-0.63 17.56)" fill="none" stroke="#000" stroke-miterlimit="10" stroke-width="3.32"/><path d="M977.42,138.06a22.72,22.72,0,0,1-6,2.33,20.52,20.52,0,0,1-10.44,0,16.68,16.68,0,0,1-9.83-6.69,15.19,15.19,0,0,1-2.39-9.3" transform="translate(-0.63 17.56)" fill="none" stroke="#000" stroke-linecap="round" stroke-miterlimit="10" stroke-width="3.32"/><path d="M973.1,110.18a34.81,34.81,0,0,1,6.41-6.25A36.75,36.75,0,0,1,987,99.71a41.14,41.14,0,0,1,7.3-2.18c1.8-.41,1.37-.23,6.45-1h.54a26.31,26.31,0,0,0,4.06-.29,23.12,23.12,0,0,0,2.49-.16h.7a13.91,13.91,0,0,0,1.57.64,4.89,4.89,0,0,1,1.78,2.35,4.32,4.32,0,0,1-.3,3.63,4,4,0,0,1-1.64,1.48,5.17,5.17,0,0,1-2.83.29c-1.78-.18-3.58.06-5.36,0-3-.1-5.55,0-6.26,0-9.41.41-18.48,7.89-19.68,9.74a3.5,3.5,0,0,1-1.49,1.31,2.79,2.79,0,0,1-1.64.14,2.42,2.42,0,0,1-1.49-1c-.47-.83.07-2.15,1.94-4.5" transform="translate(-0.63 17.56)"/><path d="M973.1,110.18a34.81,34.81,0,0,1,6.41-6.25A36.75,36.75,0,0,1,987,99.71a41.14,41.14,0,0,1,7.3-2.18c1.8-.41,1.37-.23,6.45-1h.54a26.31,26.31,0,0,0,4.06-.29,23.12,23.12,0,0,0,2.49-.16h.7a13.91,13.91,0,0,0,1.57.64,4.89,4.89,0,0,1,1.78,2.35,4.32,4.32,0,0,1-.3,3.63,4,4,0,0,1-1.64,1.48,5.17,5.17,0,0,1-2.83.29c-1.78-.18-3.58.06-5.36,0-3-.1-5.55,0-6.26,0-9.41.41-18.48,7.89-19.68,9.74a3.5,3.5,0,0,1-1.49,1.31,2.79,2.79,0,0,1-1.64.14,2.42,2.42,0,0,1-1.49-1C970.69,113.82,971.23,112.5,973.1,110.18Z" transform="translate(-0.63 17.56)" fill="none" stroke="#000" stroke-linecap="round" stroke-miterlimit="10" stroke-width="0.42"/><path d="M992.32,88.93a7.54,7.54,0,0,1,3,9.88" transform="translate(-0.63 17.56)" fill="none" stroke="#000" stroke-linecap="round" stroke-miterlimit="10" stroke-width="1.66"/><path d="M1000.91,88.18a7.55,7.55,0,0,1,3,9.89" transform="translate(-0.63 17.56)" fill="none" stroke="#000" stroke-linecap="round" stroke-miterlimit="10" stroke-width="1.66"/><path d="M1009.48,86.54a7.54,7.54,0,0,1,1.88,10.15" transform="translate(-0.63 17.56)" fill="none" stroke="#000" stroke-linecap="round" stroke-miterlimit="10" stroke-width="1.66"/><path d="M929.61,141.42,927.87,143l3.24,3.39,1.4-3.6-1.19-1.24a16.19,16.19,0,0,1-1.71-.13" transform="translate(-0.63 17.56)" fill="#fff"/><path d="M929.61,141.42,927.87,143l3.24,3.39,1.4-3.6-1.19-1.24C930.71,141.53,930.1,141.48,929.61,141.42Z" transform="translate(-0.63 17.56)" fill="none" stroke="#fff" stroke-miterlimit="10" stroke-width="0.42"/><path d="M947.43,119.67h-.22c-.58,0-1.15.08-1.72.08h-2a24.53,24.53,0,0,1-2.46.83h0l.41.28v2.57a26.26,26.26,0,0,1,5.88,4.33c.26.25.51.5.75.76h.43v-8.87h-1" transform="translate(-0.63 17.56)"/><path d="M947.49,119.56h-.22c-.58,0-1.16.08-1.74.08h-2.07c-.81.32-1.64.59-2.48.83v.11s0,.19.41.28v2.68a42.7,42.7,0,0,1,5.87,4.33c.28.25.8.65.8.65h.39v-9C948.13,119.55,947.81,119.56,947.49,119.56Z" transform="translate(-0.63 17.56)" fill="none" stroke="#000" stroke-miterlimit="10" stroke-width="3.32"/><path d="M918.88,138.09a23.07,23.07,0,0,0,6,2.33,20.52,20.52,0,0,0,10.44,0,16.69,16.69,0,0,0,9.78-6.69,15.19,15.19,0,0,0,2.39-9.3" transform="translate(-0.63 17.56)" fill="none" stroke="#000" stroke-linecap="round" stroke-miterlimit="10" stroke-width="3.32"/><path d="M923.2,110.18a34.54,34.54,0,0,0-6.41-6.26,36.23,36.23,0,0,0-7.45-4.21,41.39,41.39,0,0,0-7.3-2.18c-1.8-.41-1.37-.23-6.45-1h-.54a26.23,26.23,0,0,1-4.06-.29,22.8,22.8,0,0,1-2.49-.16h-.7a13.32,13.32,0,0,1-1.57.65,4.83,4.83,0,0,0-1.78,2.35,4.32,4.32,0,0,0,.3,3.63,4,4,0,0,0,1.64,1.46,5.16,5.16,0,0,0,2.83.29,53.44,53.44,0,0,1,5.37,0c3-.1,5.54,0,6.26,0,9.4.41,18.47,7.89,19.67,9.73A3.27,3.27,0,0,0,922,115.5a2.56,2.56,0,0,0,1.64.15,2.45,2.45,0,0,0,1.49-1c.47-.83-.07-2.15-1.94-4.5" transform="translate(-0.63 17.56)"/><path d="M923.2,110.18a34.54,34.54,0,0,0-6.41-6.26,36.23,36.23,0,0,0-7.45-4.21,41.39,41.39,0,0,0-7.3-2.18c-1.8-.41-1.37-.23-6.45-1h-.54a26.23,26.23,0,0,1-4.06-.29,22.8,22.8,0,0,1-2.49-.16h-.7a13.32,13.32,0,0,1-1.57.65,4.83,4.83,0,0,0-1.78,2.35,4.32,4.32,0,0,0,.3,3.63,4,4,0,0,0,1.64,1.46,5.16,5.16,0,0,0,2.83.29,53.44,53.44,0,0,1,5.37,0c3-.1,5.54,0,6.26,0,9.4.41,18.47,7.89,19.67,9.73A3.27,3.27,0,0,0,922,115.5a2.56,2.56,0,0,0,1.64.15,2.45,2.45,0,0,0,1.49-1C925.61,113.85,925.1,112.53,923.2,110.18Z" transform="translate(-0.63 17.56)" fill="none" stroke="#000" stroke-linecap="round" stroke-miterlimit="10" stroke-width="0.42"/><path d="M904,88.93a7.68,7.68,0,0,0-3.13,3.49,7.86,7.86,0,0,0,.14,6.39" transform="translate(-0.63 17.56)" fill="none" stroke="#000" stroke-linecap="round" stroke-miterlimit="10" stroke-width="1.66"/><path d="M895.39,88.18a7.54,7.54,0,0,0-3,9.89" transform="translate(-0.63 17.56)" fill="none" stroke="#000" stroke-linecap="round" stroke-miterlimit="10" stroke-width="1.66"/><path d="M886.83,86.57a7.52,7.52,0,0,0-1.89,10.15" transform="translate(-0.63 17.56)" fill="none" stroke="#000" stroke-linecap="round" stroke-miterlimit="10" stroke-width="1.66"/><path d="M901.1,45.61c-1.17-.17-2.89-.39-5-.54a27.85,27.85,0,0,0-6.58,0c-3.7.57-6.71,2.21-6.59,2.67,0,.17.48.08,2.47.5.49.1.85.18,1.22.28,0,0,.77.21,1.47.47,1,.37,3.12,1.29,3,1.6s-7.66-.18-7.66-.18S880.3,51.66,879.7,52a17.21,17.21,0,0,0-3.56,2.85c-1.16,1.1-1.74,1.65-1.61,2,.29.66,2.88-.35,6.59-.17a17.74,17.74,0,0,1,4.27.71" transform="translate(-0.63 17.56)" fill="#3b344d"/><path d="M901.1,45.61c-1.17-.17-2.89-.39-5-.54a27.85,27.85,0,0,0-6.58,0c-3.7.57-6.71,2.21-6.59,2.67,0,.17.48.08,2.47.5.49.1.85.18,1.22.28,0,0,.77.21,1.47.47,1,.37,3.12,1.29,3,1.6s-7.66-.18-7.66-.18S880.3,51.66,879.7,52a17.21,17.21,0,0,0-3.56,2.85c-1.16,1.1-1.74,1.65-1.61,2,.29.66,2.88-.35,6.59-.17a17.74,17.74,0,0,1,4.27.71" transform="translate(-0.63 17.56)" fill="none" stroke="#000" stroke-miterlimit="10" stroke-width="1.66"/><rect x="963.81" y="44.11" width="30.84" height="16.77" transform="translate(508.45 930.64) rotate(-64.42)" fill="#3b344d"/><rect x="899.89" y="34.16" width="20.73" height="30.3" transform="translate(73.77 430.64) rotate(-26.62)" fill="#3b344d"/><path d="M1001,47c4.89,5.6,11.83,8.62,10.49,11.31s-8.22,2-15.35-1.56-12-8.71-10.49-11.31c1.77-3,10.57-3.93,15.35,1.56" transform="translate(-0.63 17.56)" fill="#3b344d"/><path d="M870.42,118.75a74.82,74.82,0,0,0-13.32-4.57,77.39,77.39,0,0,0-37.65.8" transform="translate(-0.63 17.56)" fill="none" stroke="#000" stroke-linecap="round" stroke-miterlimit="10" stroke-width="1.66"/><path d="M876.1,128.63a73.29,73.29,0,0,0-14-1.62,77.18,77.18,0,0,0-36.64,8.73" transform="translate(-0.63 17.56)" fill="none" stroke="#000" stroke-linecap="round" stroke-miterlimit="10" stroke-width="1.66"/><path d="M1021.94,119.26a74.15,74.15,0,0,1,13.21-5,77.3,77.3,0,0,1,37.66-.37" transform="translate(-0.63 17.56)" fill="none" stroke="#000" stroke-linecap="round" stroke-miterlimit="10" stroke-width="1.66"/><path d="M1022.38,127.93a77.47,77.47,0,0,1,36.89,7.58" transform="translate(-0.63 17.56)" fill="none" stroke="#000" stroke-linecap="round" stroke-miterlimit="10" stroke-width="1.66"/><path d="M1072.61,33.4c2.29-2.7,4.66-5.29,7-7.89s4.79-5.13,7.26-7.61c1.24-1.24,2.36-2.61,3.54-3.91a19.47,19.47,0,0,1,4-3.41,30,30,0,0,1,4.7-2.53,21.59,21.59,0,0,1,5.45-1.65l.49.57a22.32,22.32,0,0,1-2.53,5.11,32.64,32.64,0,0,1-3.29,4.21,19.72,19.72,0,0,1-4,3.35c-1.48.94-3,1.82-4.45,2.83q-4.29,3-8.71,5.9c-3,1.89-5.91,3.8-9,5.6Z" transform="translate(-0.63 17.56)" fill="#fff"/><path d="M1071.29,69.55l45.93-4.62" transform="translate(-0.63 17.56)" fill="#ff6b1f"/><path d="M1071.25,69.18c3.77-1,7.55-1.8,11.33-2.64s7.58-1.58,11.38-2.26c1.89-.34,3.78-.85,5.67-1.28a24,24,0,0,1,5.73-.61,37.08,37.08,0,0,1,5.85.52,25.62,25.62,0,0,1,6,1.68l.07.74a25,25,0,0,1-5.51,2.83,38.77,38.77,0,0,1-5.67,1.67,24.69,24.69,0,0,1-5.75.53c-1.94,0-3.88-.17-5.81-.13-3.86.08-7.73.08-11.59,0s-7.75-.13-11.63-.34Z" transform="translate(-0.63 17.56)" fill="#fff"/><line x1="816.27" y1="55.76" x2="777.82" y2="24.25" fill="none"/><path d="M816.66,38.49c-3.58-2.17-7.07-4.45-10.56-6.72s-6.93-4.62-10.33-7c-1.69-1.2-3.5-2.26-5.25-3.39a28,28,0,0,1-4.84-3.91,44.2,44.2,0,0,1-4.07-4.79A28.62,28.62,0,0,1,778.24,7l.48-.58A29.43,29.43,0,0,1,785,8.59a45.06,45.06,0,0,1,5.5,3.1,27.79,27.79,0,0,1,4.79,4c1.45,1.5,2.85,3.06,4.35,4.49,3,2.86,6,5.78,8.91,8.75s5.83,6,8.66,9Z" transform="translate(-0.63 17.56)" fill="#fff"/><path d="M810,69.71l-40.07-1.07" transform="translate(-0.63 17.56)" fill="#ff6b1f"/><path d="M809.94,70.08c-3.35.5-6.7.86-10.06,1.23s-6.7.64-10,.85c-1.68.11-3.35.39-5,.58a17.81,17.81,0,0,1-5-.1,28.53,28.53,0,0,1-5-1.23,20.56,20.56,0,0,1-5-2.4v-.74A20.23,20.23,0,0,1,775,66.18a29.13,29.13,0,0,1,5-1,17.84,17.84,0,0,1,5,.17c1.66.28,3.32.65,5,.84,3.33.39,6.66.86,10,1.39s6.66,1.08,10,1.76Z" transform="translate(-0.63 17.56)" fill="#fff"/></g></g><ellipse cx="1702.91" cy="162.21" rx="16.58" ry="15.23" fill="none" stroke="#a96dc8" stroke-miterlimit="10" stroke-width="1.77"/><ellipse cx="1704.04" cy="135.48" rx="31.33" ry="28.76" transform="translate(-1.27 25.89) rotate(-0.28)" fill="none" stroke="#a96dc8" stroke-miterlimit="10" stroke-width="1.77"/><ellipse cx="1677.02" cy="166.8" rx="6.91" ry="6.34" transform="translate(-1.42 25.75) rotate(-0.28)" fill="none" stroke="#a96dc8" stroke-miterlimit="10" stroke-width="1.77"/><ellipse cx="1745.95" cy="136.86" rx="6.91" ry="6.34" transform="translate(-1.27 26.09) rotate(-0.28)" fill="none" stroke="#a96dc8" stroke-miterlimit="10" stroke-width="1.77"/><ellipse cx="1732.93" cy="109.85" rx="6.91" ry="6.34" transform="translate(-1.14 26.03) rotate(-0.28)" fill="none" stroke="#a96dc8" stroke-miterlimit="10" stroke-width="1.77"/><ellipse cx="1706.17" cy="98.98" rx="6.91" ry="6.34" transform="translate(-1.09 25.9) rotate(-0.28)" fill="none" stroke="#a96dc8" stroke-miterlimit="10" stroke-width="1.77"/><ellipse cx="1676.71" cy="108.44" rx="6.91" ry="6.34" transform="translate(-1.14 25.75) rotate(-0.28)" fill="none" stroke="#a96dc8" stroke-miterlimit="10" stroke-width="1.77"/><ellipse cx="1662.12" cy="138.96" rx="6.91" ry="6.34" transform="translate(-1.29 25.68) rotate(-0.28)" fill="none" stroke="#a96dc8" stroke-miterlimit="10" stroke-width="1.77"/><ellipse cx="1703.78" cy="176.81" rx="6.91" ry="6.34" transform="translate(-1.47 25.89) rotate(-0.28)" fill="none" stroke="#a96dc8" stroke-miterlimit="10" stroke-width="1.77"/><ellipse cx="1731.36" cy="167.38" rx="6.91" ry="6.34" transform="translate(-1.42 26.02) rotate(-0.28)" fill="none" stroke="#a96dc8" stroke-miterlimit="10" stroke-width="1.77"/><ellipse cx="711.56" cy="161.77" rx="16.58" ry="15.23" fill="none" stroke="#a96dc8" stroke-miterlimit="10" stroke-width="1.77"/><ellipse cx="712.79" cy="139.88" rx="31.33" ry="28.76" transform="translate(-1.3 21.04) rotate(-0.28)" fill="none" stroke="#a96dc8" stroke-miterlimit="10" stroke-width="1.77"/><ellipse cx="685.74" cy="171.2" rx="6.91" ry="6.34" transform="translate(-1.45 20.91) rotate(-0.28)" fill="none" stroke="#a96dc8" stroke-miterlimit="10" stroke-width="1.77"/><ellipse cx="754.69" cy="141.25" rx="6.91" ry="6.34" transform="translate(-1.31 21.25) rotate(-0.28)" fill="none" stroke="#a96dc8" stroke-miterlimit="10" stroke-width="1.77"/><ellipse cx="741.66" cy="114.25" rx="6.91" ry="6.34" transform="translate(-1.18 21.18) rotate(-0.28)" fill="none" stroke="#a96dc8" stroke-miterlimit="10" stroke-width="1.77"/><ellipse cx="714.9" cy="103.38" rx="6.91" ry="6.34" transform="matrix(1, 0, 0, 1, -1.12, 21.05)" fill="none" stroke="#a96dc8" stroke-miterlimit="10" stroke-width="1.77"/><ellipse cx="685.46" cy="112.82" rx="6.91" ry="6.34" transform="translate(-1.17 20.91) rotate(-0.28)" fill="none" stroke="#a96dc8" stroke-miterlimit="10" stroke-width="1.77"/><ellipse cx="670.87" cy="143.35" rx="6.91" ry="6.34" transform="translate(-1.32 20.84) rotate(-0.28)" fill="none" stroke="#a96dc8" stroke-miterlimit="10" stroke-width="1.77"/><ellipse cx="712.52" cy="181.22" rx="6.91" ry="6.34" transform="translate(-1.5 21.04) rotate(-0.28)" fill="none" stroke="#a96dc8" stroke-miterlimit="10" stroke-width="1.77"/><ellipse cx="740.1" cy="171.77" rx="6.91" ry="6.34" transform="translate(-1.46 21.18) rotate(-0.28)" fill="none" stroke="#a96dc8" stroke-miterlimit="10" stroke-width="1.77"/></svg>