<svg xmlns="http://www.w3.org/2000/svg" width="83.65" height="89.44" viewBox="0 0 83.65 89.44"><path d="M80.09,25.56C75.15,13.19,64.81,7.72,61,5.8c-1.95-1-20.28-9.93-38.82-.35C19.07,7.07,6.74,13.7,2.46,28.39-1,40.16,2.78,50.2,4.57,54.15A39,39,0,0,0,18,70l1.83,0a11.27,11.27,0,0,0-.06,1.16V77A11.41,11.41,0,0,0,31.13,88.38H54.44A11.41,11.41,0,0,0,65.82,77V71.17a12.29,12.29,0,0,0-.1-1.49h1A38.24,38.24,0,0,0,80.8,50.27,37.18,37.18,0,0,0,80.09,25.56Z" fill="#fff" stroke="#000" stroke-width="2.12"/><line x1="31.04" y1="75.12" x2="31.13" y2="88.38" fill="#fff09f" stroke="#000" stroke-linecap="round" stroke-miterlimit="10" stroke-width="2.12"/><line x1="52.79" y1="74.89" x2="52.87" y2="88.15" fill="#fff09f" stroke="#000" stroke-linecap="round" stroke-miterlimit="10" stroke-width="2.12"/><line x1="41.92" y1="74.89" x2="42.01" y2="88.15" fill="#fff09f" stroke="#000" stroke-linecap="round" stroke-miterlimit="10" stroke-width="2.12"/><polyline points="36.25 64.72 42.18 57.51 46.91 64.72" fill="none" stroke="#000" stroke-linecap="round" stroke-width="2.12"/><circle cx="24.78" cy="46.39" r="11.11" stroke="#000" stroke-width="2.12"/><circle cx="59.83" cy="46.39" r="11.11" stroke="#000" stroke-width="2.12"/></svg>