<svg xmlns="http://www.w3.org/2000/svg" xmlns:xlink="http://www.w3.org/1999/xlink" viewBox="0 0 1442.51 598.37"><defs><linearGradient id="a" x1="291.55" y1="229.07" x2="331.18" y2="229.07" gradientUnits="userSpaceOnUse"><stop offset="0" stop-color="#7e4795"/><stop offset="1" stop-color="#3dbfef"/></linearGradient><linearGradient id="c" x1="819.52" y1="291.32" x2="859.62" y2="291.32" xlink:href="#a"/><linearGradient id="e" x1="287.06" y1="96.95" x2="1145.15" y2="96.95" xlink:href="#a"/><linearGradient id="q" x1="1064.45" y1="1103.1" x2="1244.23" y2="1103.1" gradientTransform="matrix(1, 0, 0, -1, 0, 1581.2)" xlink:href="#a"/></defs><rect x="2.06" y="0.79" width="1440" height="595.17" style="fill:#101010;stroke:#3a313b;stroke-miterlimit:10;stroke-width:0.9015993742660341px"/><line x1="0.95" y1="595.45" x2="0.25" style="fill:none;stroke:#3a313b;stroke-miterlimit:10;stroke-width:0.5px"/><line x1="529.95" y1="596.39" x2="529.25" y2="0.94" style="fill:none;stroke:#3a313b;stroke-miterlimit:10;stroke-width:0.5px"/><line x1="306.45" y1="596.39" x2="305.85" y2="1.01" style="fill:none;stroke:#3a313b;stroke-miterlimit:10;stroke-width:0.5px"/><line x1="1441.15" y1="596.39" x2="1440.45" y2="0.94" style="fill:none;stroke:#3a313b;stroke-miterlimit:10;stroke-width:0.5px"/><line x1="846.25" y1="596.39" x2="845.55" y2="0.94" style="fill:none;stroke:#3a313b;stroke-miterlimit:10;stroke-width:0.5px"/><line x1="1117.75" y1="596.39" x2="1117.05" y2="0.94" style="fill:none;stroke:#3a313b;stroke-miterlimit:10;stroke-width:0.5px"/><g style="opacity:0.89"><path d="M169,447.74c7.39,5.82,8.28,15.36,4.73,18.44s-13.77,1.32-17.59-7.27c-2.92-6.56-6.15-19-4.73-18.44C153.34,441.25,162.11,442.33,169,447.74Z" style="fill:none;stroke:#7e4795;stroke-miterlimit:10"/><path d="M195.82,459c-4.7,8.14-14,10.39-17.57,7.31s-3.27-13.44,4.68-18.45c6.08-3.82,17.94-8.79,17.58-7.31C200,442.57,200.2,451.4,195.82,459Z" style="fill:none;stroke:#7e4795;stroke-miterlimit:10"/><path d="M183.83,487.58c-7.67-5.44-9.05-14.92-5.66-18.18s13.69-2,17.94,6.37c3.25,6.4,7.1,18.66,5.66,18.17C199.79,493.27,191,492.63,183.83,487.58Z" style="fill:none;stroke:#7e4795;stroke-miterlimit:10"/><path d="M156.46,477.71c4.28-8.37,13.47-11.08,17.18-8.19s4,13.26-3.74,18.67c-5.87,4.12-17.46,9.69-17.18,8.19C153.1,494.32,152.48,485.51,156.46,477.71Z" style="fill:none;stroke:#7e4795;stroke-miterlimit:10"/><path d="M175.69,456.17,177,598" style="fill:none;stroke:#7e4795;stroke-miterlimit:10"/><circle cx="151.06" cy="514.96" r="4.93" style="fill:none;stroke:#7e4795;stroke-miterlimit:10"/><circle cx="201.64" cy="514.96" r="4.93" style="fill:none;stroke:#7e4795;stroke-miterlimit:10"/><line x1="156.64" y1="514.96" x2="196.05" y2="514.96" style="fill:none;stroke:#7e4795;stroke-miterlimit:10"/><circle cx="151.72" cy="535.32" r="4.93" style="fill:none;stroke:#7e4795;stroke-miterlimit:10"/><circle cx="202.29" cy="535.32" r="4.93" style="fill:none;stroke:#7e4795;stroke-miterlimit:10"/><line x1="157.3" y1="535.32" x2="196.71" y2="535.32" style="fill:none;stroke:#7e4795;stroke-miterlimit:10"/><circle cx="151.72" cy="555.68" r="4.93" style="fill:none;stroke:#7e4795;stroke-miterlimit:10"/><circle cx="202.29" cy="555.68" r="4.93" style="fill:none;stroke:#7e4795;stroke-miterlimit:10"/><line x1="157.3" y1="555.68" x2="196.71" y2="555.68" style="fill:none;stroke:#7e4795;stroke-miterlimit:10"/><circle cx="484.4" cy="527.11" r="10.51" style="fill:none;stroke:#7e4795;stroke-miterlimit:10"/><circle cx="484.07" cy="527.11" r="20.69" style="fill:none;stroke:#7e4795;stroke-miterlimit:10"/><circle cx="285.38" cy="492.29" r="3.94" style="fill:none;stroke:#7e4795;stroke-miterlimit:10"/><circle cx="270.28" cy="486.38" r="3.94" style="fill:none;stroke:#7e4795;stroke-miterlimit:10"/><circle cx="247.29" cy="512" r="3.94" style="fill:none;stroke:#7e4795;stroke-miterlimit:10"/><circle cx="255.17" cy="529.73" r="3.94" style="fill:none;stroke:#7e4795;stroke-miterlimit:10"/><circle cx="284.73" cy="529.73" r="3.94" style="fill:none;stroke:#7e4795;stroke-miterlimit:10"/><circle cx="292.61" cy="510.69" r="3.94" style="fill:none;stroke:#7e4795;stroke-miterlimit:10"/><circle cx="254.51" cy="492.29" r="3.94" style="fill:none;stroke:#7e4795;stroke-miterlimit:10"/><line x1="270.28" y1="490.65" x2="270.28" y2="598.37" style="fill:none;stroke:#7e4795;stroke-miterlimit:10"/><line x1="256.76" y1="496.24" x2="282.1" y2="527.11" style="fill:none;stroke:#7e4795;stroke-miterlimit:10"/><line x1="289.32" y1="512.33" x2="251.23" y2="512.33" style="fill:none;stroke:#7e4795;stroke-miterlimit:10"/><line x1="257.8" y1="526.45" x2="283.3" y2="495.64" style="fill:none;stroke:#7e4795;stroke-miterlimit:10"/><line x1="50.24" y1="500.51" x2="50.24" y2="540.57" style="fill:none;stroke:#7e4795;stroke-miterlimit:10"/><line x1="66.66" y1="521.52" x2="35.13" y2="521.52" style="fill:none;stroke:#7e4795;stroke-miterlimit:10"/><line x1="39.07" y1="507.4" x2="62.06" y2="534.99" style="fill:none;stroke:#7e4795;stroke-miterlimit:10"/><line x1="62.06" y1="506.09" x2="39.07" y2="533.67" style="fill:none;stroke:#7e4795;stroke-miterlimit:10"/><circle cx="71.59" cy="520.87" r="3.94" style="fill:none;stroke:#7e4795;stroke-miterlimit:10"/><circle cx="31.19" cy="521.2" r="3.94" style="fill:none;stroke:#7e4795;stroke-miterlimit:10"/><circle cx="35.13" cy="503.46" r="3.94" style="fill:none;stroke:#7e4795;stroke-miterlimit:10"/><circle cx="64.69" cy="536.96" r="3.94" style="fill:none;stroke:#7e4795;stroke-miterlimit:10"/><circle cx="50.24" cy="496.24" r="3.94" style="fill:none;stroke:#7e4795;stroke-miterlimit:10"/><circle cx="64.03" cy="503.46" r="3.94" style="fill:none;stroke:#7e4795;stroke-miterlimit:10"/><circle cx="50.24" cy="544.18" r="3.94" style="fill:none;stroke:#7e4795;stroke-miterlimit:10"/><circle cx="35.13" cy="535.65" r="3.94" style="fill:none;stroke:#7e4795;stroke-miterlimit:10"/><path d="M332,477.84c2.32-11.14-10.53-18.71-19.71-21.67C311,469,318.11,481.56,332,477.84Z" style="fill:none;stroke:#7e4795;stroke-miterlimit:10"/><circle cx="383.58" cy="493.94" r="4.93" style="fill:none;stroke:#7e4795;stroke-miterlimit:10"/><circle cx="426.6" cy="521.85" r="5.25" style="fill:none;stroke:#7e4795;stroke-miterlimit:10"/><circle cx="383.58" cy="549.11" r="4.93" style="fill:none;stroke:#7e4795;stroke-miterlimit:10"/><line x1="403.61" y1="436.14" x2="403.61" y2="598.37" style="fill:none;stroke:#7e4795;stroke-miterlimit:10"/><path d="M404.27,456.83c11.51-1,18.77,2,18.39-13.14-13.54,1.13-20.71-5.7-18.39,13.14" style="fill:none;stroke:#7e4795;stroke-miterlimit:10"/><path d="M404.27,456.83c11.51-1,18.77,2,18.39-13.14C409.12,444.82,402,438,404.27,456.83Z" style="fill:none;stroke:#7e4795;stroke-miterlimit:10"/><path d="M403.61,439.75c-8.64.06-12.28,2-13.13-8.54,6.75-.2,15.27-1.4,13.13,8.54" style="fill:none;stroke:#7e4795;stroke-miterlimit:10"/><path d="M403.61,439.75c-8.64.06-12.28,2-13.13-8.54C397.23,431,405.75,429.81,403.61,439.75Z" style="fill:none;stroke:#7e4795;stroke-miterlimit:10"/><path d="M333.39,477.44c9.09-.29,13-10.63,13.93-17.59C337.05,461.11,328.33,468.29,333.39,477.44Z" style="fill:none;stroke:#7e4795;stroke-miterlimit:10"/><path d="M529.07,471.93c0-11.61-7.56-11.16-15.77-11.82-2,14.44,4.81,11.67,15.77,13.14Z" style="fill:none;stroke:#7e4795;stroke-miterlimit:10"/><path d="M529.07,471.93c0-11.61-7.56-11.16-15.77-11.82-2,14.44,4.81,11.67,15.77,13.14Z" style="fill:none;stroke:#7e4795;stroke-miterlimit:10"/><path d="M546.14,462.74c-7.08-.43-19.24-.56-17.07,9.85v1.31C537.33,474.81,547.46,473.75,546.14,462.74Z" style="fill:none;stroke:#7e4795;stroke-miterlimit:10"/><path d="M529.07,472.59c-2.17-10.41,10-10.28,17.07-9.85,1.32,11-8.81,12.07-17.07,11.16" style="fill:none;stroke:#7e4795;stroke-miterlimit:10"/><path d="M103.44,554c-1.29-6.82,4.93-13.59,11.83-13.14C116.81,548.1,110.9,555.14,103.44,554Z" style="fill:none;stroke:#7e4795;stroke-miterlimit:10"/></g><g style="opacity:0.89"><path d="M737,445.81c7.39,5.82,8.28,15.36,4.73,18.44s-13.77,1.32-17.59-7.27c-2.92-6.55-6.15-19-4.73-18.43C721.32,439.32,730.09,440.4,737,445.81Z" style="fill:none;stroke:#7e4795;stroke-miterlimit:10"/><path d="M763.8,457.05c-4.7,8.14-14,10.39-17.57,7.31s-3.27-13.44,4.68-18.45c6.08-3.82,17.94-8.79,17.58-7.31C768,440.64,768.18,449.47,763.8,457.05Z" style="fill:none;stroke:#7e4795;stroke-miterlimit:10"/><path d="M751.81,485.65c-7.67-5.43-9-14.92-5.66-18.18s13.69-2,17.94,6.37c3.25,6.4,7.1,18.66,5.66,18.17C767.77,491.34,759,490.7,751.81,485.65Z" style="fill:none;stroke:#7e4795;stroke-miterlimit:10"/><path d="M724.44,475.79c4.28-8.37,13.47-11.09,17.18-8.2s4,13.26-3.74,18.67c-5.87,4.12-17.46,9.69-17.18,8.19C721.08,492.39,720.46,483.58,724.44,475.79Z" style="fill:none;stroke:#7e4795;stroke-miterlimit:10"/><path d="M743.67,454.24,745,596.12" style="fill:none;stroke:#7e4795;stroke-miterlimit:10"/><circle cx="719.04" cy="513.03" r="4.93" style="fill:none;stroke:#7e4795;stroke-miterlimit:10"/><circle cx="769.62" cy="513.03" r="4.93" style="fill:none;stroke:#7e4795;stroke-miterlimit:10"/><line x1="724.62" y1="513.03" x2="764.03" y2="513.03" style="fill:none;stroke:#7e4795;stroke-miterlimit:10"/><circle cx="719.7" cy="533.39" r="4.93" style="fill:none;stroke:#7e4795;stroke-miterlimit:10"/><circle cx="770.27" cy="533.39" r="4.93" style="fill:none;stroke:#7e4795;stroke-miterlimit:10"/><line x1="725.28" y1="533.39" x2="764.69" y2="533.39" style="fill:none;stroke:#7e4795;stroke-miterlimit:10"/><circle cx="719.7" cy="553.75" r="4.93" style="fill:none;stroke:#7e4795;stroke-miterlimit:10"/><circle cx="770.27" cy="553.75" r="4.93" style="fill:none;stroke:#7e4795;stroke-miterlimit:10"/><line x1="725.28" y1="553.75" x2="764.69" y2="553.75" style="fill:none;stroke:#7e4795;stroke-miterlimit:10"/><circle cx="1052.38" cy="525.18" r="10.51" style="fill:none;stroke:#7e4795;stroke-miterlimit:10"/><circle cx="1052.05" cy="525.18" r="20.69" style="fill:none;stroke:#7e4795;stroke-miterlimit:10"/><circle cx="853.36" cy="490.37" r="3.94" style="fill:none;stroke:#7e4795;stroke-miterlimit:10"/><circle cx="838.26" cy="484.45" r="3.94" style="fill:none;stroke:#7e4795;stroke-miterlimit:10"/><circle cx="815.27" cy="510.07" r="3.94" style="fill:none;stroke:#7e4795;stroke-miterlimit:10"/><circle cx="823.15" cy="527.81" r="3.94" style="fill:none;stroke:#7e4795;stroke-miterlimit:10"/><circle cx="852.71" cy="527.81" r="3.94" style="fill:none;stroke:#7e4795;stroke-miterlimit:10"/><circle cx="860.59" cy="508.76" r="3.94" style="fill:none;stroke:#7e4795;stroke-miterlimit:10"/><circle cx="822.49" cy="490.37" r="3.94" style="fill:none;stroke:#7e4795;stroke-miterlimit:10"/><line x1="838.26" y1="488.72" x2="838.26" y2="596.44" style="fill:none;stroke:#7e4795;stroke-miterlimit:10"/><line x1="824.74" y1="494.31" x2="850.08" y2="525.18" style="fill:none;stroke:#7e4795;stroke-miterlimit:10"/><line x1="857.3" y1="510.4" x2="819.21" y2="510.4" style="fill:none;stroke:#7e4795;stroke-miterlimit:10"/><line x1="825.78" y1="524.52" x2="851.28" y2="493.71" style="fill:none;stroke:#7e4795;stroke-miterlimit:10"/><line x1="618.22" y1="498.58" x2="618.22" y2="538.64" style="fill:none;stroke:#7e4795;stroke-miterlimit:10"/><line x1="634.64" y1="519.6" x2="603.11" y2="519.6" style="fill:none;stroke:#7e4795;stroke-miterlimit:10"/><line x1="607.05" y1="505.47" x2="630.04" y2="533.06" style="fill:none;stroke:#7e4795;stroke-miterlimit:10"/><line x1="630.04" y1="504.16" x2="607.05" y2="531.75" style="fill:none;stroke:#7e4795;stroke-miterlimit:10"/><circle cx="639.57" cy="518.94" r="3.94" style="fill:none;stroke:#7e4795;stroke-miterlimit:10"/><circle cx="599.17" cy="519.27" r="3.94" style="fill:none;stroke:#7e4795;stroke-miterlimit:10"/><circle cx="603.11" cy="501.53" r="3.94" style="fill:none;stroke:#7e4795;stroke-miterlimit:10"/><circle cx="632.67" cy="535.03" r="3.94" style="fill:none;stroke:#7e4795;stroke-miterlimit:10"/><circle cx="618.22" cy="494.31" r="3.94" style="fill:none;stroke:#7e4795;stroke-miterlimit:10"/><circle cx="632.01" cy="501.53" r="3.94" style="fill:none;stroke:#7e4795;stroke-miterlimit:10"/><circle cx="618.22" cy="542.26" r="3.94" style="fill:none;stroke:#7e4795;stroke-miterlimit:10"/><circle cx="603.11" cy="533.72" r="3.94" style="fill:none;stroke:#7e4795;stroke-miterlimit:10"/><path d="M900,475.92c2.32-11.15-10.53-18.72-19.71-21.68C879,467.09,886.09,479.63,900,475.92Z" style="fill:none;stroke:#7e4795;stroke-miterlimit:10"/><circle cx="951.56" cy="492.01" r="4.93" style="fill:none;stroke:#7e4795;stroke-miterlimit:10"/><circle cx="994.58" cy="519.92" r="5.25" style="fill:none;stroke:#7e4795;stroke-miterlimit:10"/><circle cx="951.56" cy="547.18" r="4.93" style="fill:none;stroke:#7e4795;stroke-miterlimit:10"/><line x1="971.59" y1="434.21" x2="971.59" y2="596.44" style="fill:none;stroke:#7e4795;stroke-miterlimit:10"/><path d="M972.25,454.9c11.51-1,18.77,2,18.39-13.14-13.54,1.13-20.71-5.7-18.39,13.14" style="fill:none;stroke:#7e4795;stroke-miterlimit:10"/><path d="M972.25,454.9c11.51-1,18.77,2,18.39-13.14C977.1,442.89,969.93,436.06,972.25,454.9Z" style="fill:none;stroke:#7e4795;stroke-miterlimit:10"/><path d="M971.59,437.82c-8.64.06-12.28,2-13.13-8.54,6.75-.19,15.27-1.39,13.13,8.54" style="fill:none;stroke:#7e4795;stroke-miterlimit:10"/><path d="M971.59,437.82c-8.64.06-12.28,2-13.13-8.54C965.21,429.09,973.73,427.89,971.59,437.82Z" style="fill:none;stroke:#7e4795;stroke-miterlimit:10"/><path d="M901.37,475.51c9.09-.28,13-10.62,13.93-17.59C905,459.18,896.31,466.36,901.37,475.51Z" style="fill:none;stroke:#7e4795;stroke-miterlimit:10"/><path d="M1097.05,470c0-11.61-7.56-11.16-15.77-11.82-2,14.44,4.81,11.67,15.77,13.14Z" style="fill:none;stroke:#7e4795;stroke-miterlimit:10"/><path d="M1097.05,470c0-11.61-7.56-11.16-15.77-11.82-2,14.44,4.81,11.67,15.77,13.14Z" style="fill:none;stroke:#7e4795;stroke-miterlimit:10"/><path d="M1114.12,460.81c-7.08-.43-19.24-.56-17.07,9.85V472C1105.31,472.88,1115.44,471.82,1114.12,460.81Z" style="fill:none;stroke:#7e4795;stroke-miterlimit:10"/><path d="M1097.05,470.66c-2.17-10.41,10-10.28,17.07-9.85,1.32,11-8.81,12.07-17.07,11.17" style="fill:none;stroke:#7e4795;stroke-miterlimit:10"/><path d="M671.42,552.11c-1.29-6.82,4.93-13.59,11.83-13.14C684.79,546.17,678.88,553.21,671.42,552.11Z" style="fill:none;stroke:#7e4795;stroke-miterlimit:10"/></g><rect x="69.53" y="237.58" width="460" height="122.46" style="fill:#101010;stroke:#3a313b;stroke-miterlimit:10;stroke-width:0.5px"/><rect x="276.35" y="235.96" width="71.14" height="6.43" style="fill:#101010"/><g style="isolation:isolate"><text transform="translate(212.8 289.24) scale(0.97 1)" style="isolation:isolate;font-size:30px;fill:#fff;font-family:Lato-Light, Lato;font-weight:300">R<tspan x="18.93" y="0" style="letter-spacing:-0.00897699234010649em">e</tspan><tspan x="33.99" y="0">visa mi repo </tspan></text><text transform="translate(130.65 332.43) scale(0.97 1)" style="isolation:isolate;font-size:30px;fill:#fff;font-family:Lato-Light, Lato;font-weight:300"><tspan xml:space="preserve">y descubre  cosas geniales.</tspan></text></g><path d="M275.17,237.21c-.12.19-.24.38-.35.57m74.21-.25c-.88-1.52-1.87-3.09-2.92-4.7,1.2,0,1.7-.4,1.7-.9.1-1.1-1.7-3-2.8-5,2.4-2.1,3.7-5.3,3.9-9.7a13.33,13.33,0,0,0,0-2c-.8-11.4-2.7-18.6-5.6-22-.4-1.9-14.9,8.8-18.7,15.1v.1h-.8a8.58,8.58,0,0,0-2.2-.2,7.61,7.61,0,0,0,1-3.1c.2-2.7-4-.4-8.3,2.1a3.8,3.8,0,0,0,.6-1.8c.2-2.9-6.2-.4-14.4,3.5h-.3v-.1c-3.7-6.4-17.9-17.5-18.4-15.6-3,3.4-5,10.5-6.1,21.9v.1h0c-.2,5.3,1,9.2,3.7,11.6-1.1,1.9-2.9,3.7-2.9,4.8-.1.6.4,1,1.7,1-1.1,1.57-2.13,3.1-3,4.58" style="fill:#101010;stroke:#3a313b;stroke-miterlimit:10;stroke-width:0.5px"/><text transform="translate(290.83 242.18)" style="font-size:36px;font-family:Lato-Black, Lato;font-weight:800">01</text><path d="M311,229.06a21.42,21.42,0,0,1-.74,6,12.27,12.27,0,0,1-2,4.18,8.3,8.3,0,0,1-3.1,2.46,9.3,9.3,0,0,1-3.88.81,9.18,9.18,0,0,1-3.86-.81,8.29,8.29,0,0,1-3.07-2.46,12.25,12.25,0,0,1-2-4.18,24.69,24.69,0,0,1,0-11.92,12.1,12.1,0,0,1,2-4.17,8.1,8.1,0,0,1,3.07-2.46,9.33,9.33,0,0,1,3.86-.8,9.45,9.45,0,0,1,3.88.8,8.11,8.11,0,0,1,3.1,2.46,12.12,12.12,0,0,1,2,4.17A21.42,21.42,0,0,1,311,229.06Zm-5.76,0a24.39,24.39,0,0,0-.34-4.45,9.42,9.42,0,0,0-.91-2.73,3.34,3.34,0,0,0-1.29-1.36,3.13,3.13,0,0,0-1.46-.37,3.09,3.09,0,0,0-1.45.37,3.29,3.29,0,0,0-1.26,1.36,9.5,9.5,0,0,0-.88,2.73,30.3,30.3,0,0,0,0,8.92,9.53,9.53,0,0,0,.88,2.72,3.26,3.26,0,0,0,1.26,1.37,3.09,3.09,0,0,0,1.45.37,3.13,3.13,0,0,0,1.46-.37,3.31,3.31,0,0,0,1.29-1.37,9.45,9.45,0,0,0,.91-2.72A24.55,24.55,0,0,0,305.23,229.06Z" style="fill:url(#a)"/><path d="M316.24,238.15h5V224.92c0-.65,0-1.32.06-2l-3,2.46a2.08,2.08,0,0,1-.58.34,1.89,1.89,0,0,1-.56.1,1.63,1.63,0,0,1-.83-.21,1.86,1.86,0,0,1-.55-.44l-1.77-2.34,8.17-6.86h4.61v22.21h4.32v4H316.24Z" style="fill:url(#a)"/><rect x="612.82" y="302.08" width="448.7" height="190.42" style="fill:#101010;stroke:#3a313b;stroke-miterlimit:10;stroke-width:0.5px"/><path d="M879.76,302.32a67.83,67.83,0,0,0-4.87-8.19c1.2,0,1.7-.4,1.7-.9.1-1.1-1.7-3-2.8-5,2.4-2.1,3.7-5.3,3.9-9.7a13.33,13.33,0,0,0,0-2c-.8-11.4-2.7-18.6-5.6-22-.4-1.9-14.9,8.8-18.7,15.1v.1h-.8a8.58,8.58,0,0,0-2.2-.2,7.61,7.61,0,0,0,1-3.1c.2-2.7-4-.4-8.3,2.1a3.8,3.8,0,0,0,.6-1.8c.2-2.9-6.2-.4-14.4,3.5H829v-.1c-3.7-6.4-17.9-17.5-18.4-15.6-3,3.4-5,10.5-6.1,21.9v.1h0c-.2,5.3,1,9.2,3.7,11.6-1.1,1.9-2.9,3.7-2.9,4.8-.1.6.4,1,1.7,1a63.46,63.46,0,0,0-5.11,8.29" style="fill:#101010;stroke:#3a313b;stroke-miterlimit:10;stroke-width:0.5px"/><rect x="804.24" y="301.79" width="71.14" height="6.43" style="fill:#101010"/><g style="isolation:isolate"><text transform="translate(676.01 350.41) scale(0.97 1)" style="isolation:isolate;font-size:30px;fill:#fff;font-family:Lato-Light, Lato;font-weight:300">No dudes en contactarme </text><text transform="translate(676.01 393.61) scale(0.97 1)" style="isolation:isolate;font-size:30px;fill:#fff;font-family:Lato-Light, Lato;font-weight:300">si tienes alguna consulta.</text></g><path d="M815.39,472.23h-56.9a9.86,9.86,0,0,1-9.9-9.9v-33.8a9.86,9.86,0,0,1,9.9-9.9h56.9a9.86,9.86,0,0,1,9.9,9.9v33.8A9.8,9.8,0,0,1,815.39,472.23Z" style="fill:#5f4c99;stroke:#000;stroke-miterlimit:10;stroke-width:2px"/><polyline points="752.89 420.33 786.29 448.63 820.19 419.43" style="fill:#5f4c99;stroke:#000;stroke-miterlimit:10;stroke-width:2px"/><line x1="752.19" y1="468.53" x2="775.39" y2="449.33" style="fill:#5f4c99;stroke:#000;stroke-miterlimit:10;stroke-width:2px"/><line x1="821.19" y1="468.53" x2="797.69" y2="449.33" style="fill:#5f4c99;stroke:#000;stroke-miterlimit:10;stroke-width:2px"/><circle cx="895.96" cy="446.41" r="28.13" style="fill:#3dbfef;stroke:#000;stroke-miterlimit:10;stroke-width:1.6995449257913506px"/><path d="M908.62,437.32c-.34,2-.6,4.25-.94,6.54-.76,5.27-1.61,10.46-2.38,15.73a2.8,2.8,0,0,1-1,2.2,2.42,2.42,0,0,1-2.89.17c-3.48-2.37-7-4.75-10.45-7.22-1-.68-1-1.7-.08-2.63,3-2.89,5.95-5.87,8.92-8.76.17-.17.34-.25.42-.42a1,1,0,0,0,.09-.68c-.09-.17-.43-.17-.68-.17s-.43.26-.6.34c-4.07,2.63-8.24,5.35-12.23,8.07a5,5,0,0,1-4.76.68c-1.7-.59-3.4-1.1-5-1.7-.51-.17-1.11-.42-.94-1a1.74,1.74,0,0,1,.94-1.1c9.51-4.08,19-8.07,28.55-12.07C907.26,434.6,908.7,435.45,908.62,437.32Z" style="fill:#fff;stroke:#000;stroke-miterlimit:10;stroke-width:1.6995449257913506px"/><text transform="translate(818.79 304.43)" style="font-size:36px;font-family:Lato-Black, Lato;font-weight:800">03</text><path d="M839,291.31a21.37,21.37,0,0,1-.74,6,12.46,12.46,0,0,1-2.05,4.18,8.27,8.27,0,0,1-3.09,2.46,9.33,9.33,0,0,1-3.88.81,9.18,9.18,0,0,1-3.86-.81,8.21,8.21,0,0,1-3.07-2.46,12.26,12.26,0,0,1-2-4.18,25,25,0,0,1,0-11.92,12.2,12.2,0,0,1,2-4.17,8.12,8.12,0,0,1,3.07-2.46,9.33,9.33,0,0,1,3.86-.8,9.49,9.49,0,0,1,3.88.8,8.18,8.18,0,0,1,3.09,2.46,12.41,12.41,0,0,1,2.05,4.17A21.42,21.42,0,0,1,839,291.31Zm-5.77,0a23.6,23.6,0,0,0-.34-4.45,8.86,8.86,0,0,0-.91-2.73,3,3,0,0,0-2.74-1.73,3.19,3.19,0,0,0-1.45.37,3.29,3.29,0,0,0-1.26,1.36,9.2,9.2,0,0,0-.88,2.73,29.42,29.42,0,0,0,0,8.92,9.22,9.22,0,0,0,.88,2.72,3.2,3.2,0,0,0,1.26,1.37,3.06,3.06,0,0,0,1.45.37,3.13,3.13,0,0,0,1.46-.37,3.18,3.18,0,0,0,1.28-1.37,8.88,8.88,0,0,0,.91-2.72A23.68,23.68,0,0,0,833.19,291.31Z" style="fill:url(#c)"/><path d="M851,277.92a10,10,0,0,1,3.46.55A7.9,7.9,0,0,1,857,280a6.34,6.34,0,0,1,2.12,4.77,8.46,8.46,0,0,1-.25,2.19,5,5,0,0,1-.75,1.64,4.72,4.72,0,0,1-1.22,1.18,7.62,7.62,0,0,1-1.67.81,5.82,5.82,0,0,1,4.36,5.92,8.16,8.16,0,0,1-.76,3.64,7.45,7.45,0,0,1-2,2.57,8.74,8.74,0,0,1-3,1.54,11.88,11.88,0,0,1-3.49.51,12.46,12.46,0,0,1-3.33-.4,7.71,7.71,0,0,1-2.59-1.26,8.26,8.26,0,0,1-2-2.19A14.6,14.6,0,0,1,841,297.7l2.48-1a2.73,2.73,0,0,1,.64-.19,3.34,3.34,0,0,1,.62-.06,2.37,2.37,0,0,1,1,.23,1.61,1.61,0,0,1,.69.65,6.45,6.45,0,0,0,1.72,2.17,3.45,3.45,0,0,0,2.13.68,3.92,3.92,0,0,0,1.63-.32,3.5,3.5,0,0,0,1.15-.81,3.18,3.18,0,0,0,.69-1.12,3.58,3.58,0,0,0,.24-1.28,8.76,8.76,0,0,0-.12-1.52,2,2,0,0,0-.66-1.16,3.71,3.71,0,0,0-1.62-.75,14,14,0,0,0-3-.26V289.1a11.77,11.77,0,0,0,2.65-.25,4,4,0,0,0,1.56-.7,2.09,2.09,0,0,0,.72-1.07,5,5,0,0,0,.18-1.38,3.46,3.46,0,0,0-.74-2.39,2.9,2.9,0,0,0-2.28-.84,3.27,3.27,0,0,0-1.15.19,3.62,3.62,0,0,0-.94.48,3.23,3.23,0,0,0-.71.72,3.9,3.9,0,0,0-.48.9,2.61,2.61,0,0,1-.72,1.17,1.87,1.87,0,0,1-1.2.36l-.39,0-.42,0-2.95-.52a9.9,9.9,0,0,1,1.1-3.42,8.11,8.11,0,0,1,2-2.43,8.19,8.19,0,0,1,2.78-1.45A11.37,11.37,0,0,1,851,277.92Z" style="fill:url(#c)"/><rect x="218.32" y="34.74" width="989.57" height="132.77" style="fill:#0f0f0f;stroke:#717070;stroke-miterlimit:10;stroke-width:0.5px"/><text transform="translate(281.06 133.37)" style="font-size:100px;font-family:Lato-Black, Lato;font-weight:800">MADE<tspan x="298.3" y="0" style="letter-spacing:-0.119990234375em">L</tspan><tspan x="338.2" y="0">YN ARANA</tspan></text><path d="M326.24,104q.92,2.06,1.77,4.2c.57-1.47,1.17-2.89,1.8-4.28s1.28-2.73,1.95-4l18.7-36.84a6,6,0,0,1,1-1.47,3.43,3.43,0,0,1,1.17-.78,4.25,4.25,0,0,1,1.48-.25H369v72.8h-14.9V91.47q0-3,.3-6.6l-19.3,37.45a6.37,6.37,0,0,1-2.42,2.65,6.73,6.73,0,0,1-3.48.9h-2.3a6.67,6.67,0,0,1-3.47-.9,6.33,6.33,0,0,1-2.43-2.65l-19.4-37.5q.19,1.75.3,3.48c.07,1.15.1,2.21.1,3.17v41.9h-14.9V60.57h14.83a4.19,4.19,0,0,1,1.47.25,3.47,3.47,0,0,1,1.18.78,6,6,0,0,1,1,1.47l18.75,37C325,101.33,325.62,102.65,326.24,104Z" style="fill:url(#e)"/><path d="M448.76,133.37h-13.1a6.05,6.05,0,0,1-3.62-1,5.35,5.35,0,0,1-2-2.63l-4.3-12.7h-27.7l-4.3,12.7a5.56,5.56,0,0,1-1.95,2.53,5.62,5.62,0,0,1-3.55,1.12h-13.2l28.2-72.85h17.3ZM402,105.52h19.9l-6.7-20-1.52-4.47c-.59-1.72-1.16-3.58-1.73-5.58-.53,2-1.08,3.92-1.65,5.65s-1.1,3.24-1.6,4.5Z" style="fill:url(#e)"/><path d="M520.76,96.92A38.34,38.34,0,0,1,518,111.5a34.16,34.16,0,0,1-7.68,11.55,34.84,34.84,0,0,1-11.92,7.6A42.35,42.35,0,0,1,483,133.37h-28.3V60.52H483a41.94,41.94,0,0,1,15.48,2.75,35.29,35.29,0,0,1,11.92,7.6A33.88,33.88,0,0,1,518,82.4,38.18,38.18,0,0,1,520.76,96.92Zm-17.3,0a31.84,31.84,0,0,0-1.4-9.75,20.69,20.69,0,0,0-4-7.37,17.45,17.45,0,0,0-6.43-4.65A21.7,21.7,0,0,0,483,73.52h-11.3v46.85H483a21.87,21.87,0,0,0,8.65-1.62A17.68,17.68,0,0,0,498,114.1a20.82,20.82,0,0,0,4-7.38A32,32,0,0,0,503.46,96.92Z" style="fill:url(#e)"/><path d="M575.76,60.52v13h-29.9v17h22.9V103h-22.9v17.35h29.9v13h-46.9V60.52Z" style="fill:url(#e)"/><path d="M602.26,119.87h27v13.5h-43.9V60.52h16.9Z" style="fill:url(#e)"/><path d="M661.56,105.67v27.7h-16.9v-27.7l-26.4-45.15h14.9a5.48,5.48,0,0,1,3.5,1,7.47,7.47,0,0,1,2.1,2.62l10.3,21.2,2.3,4.7c.7,1.44,1.31,2.85,1.85,4.25A39.29,39.29,0,0,1,655,90q1.05-2.14,2.25-4.65l10.2-21.2a6.22,6.22,0,0,1,.82-1.3,7.39,7.39,0,0,1,1.2-1.17,5.66,5.66,0,0,1,1.55-.85,5.47,5.47,0,0,1,1.93-.33h15Z" style="fill:url(#e)"/><path d="M703.71,60.62a4.62,4.62,0,0,1,1.35.38,4.54,4.54,0,0,1,1.15.77,13.58,13.58,0,0,1,1.25,1.35l34.6,43.75c-.14-1.4-.24-2.76-.3-4.07s-.1-2.56-.1-3.73V60.52h14.9v72.85h-8.8a8.11,8.11,0,0,1-3.3-.6,7,7,0,0,1-2.6-2.2l-34.35-43.4c.1,1.27.18,2.51.25,3.73s.1,2.36.1,3.42v39.05H693V60.52h8.9A13.8,13.8,0,0,1,703.71,60.62Z" style="fill:url(#e)"/><path d="M855.66,133.37h-13.1a6.09,6.09,0,0,1-3.63-1,5.27,5.27,0,0,1-2-2.63l-4.3-12.7H805l-4.3,12.7a5.7,5.7,0,0,1-1.95,2.53,5.62,5.62,0,0,1-3.55,1.12H782l28.2-72.85h17.3Zm-46.8-27.85h19.9l-6.7-20q-.66-1.91-1.53-4.47c-.58-1.72-1.16-3.58-1.72-5.58-.54,2-1.09,3.92-1.65,5.65s-1.1,3.24-1.6,4.5Z" style="fill:url(#e)"/><path d="M878.46,106.42v27h-16.9V60.52h23.7a48.38,48.38,0,0,1,13.47,1.63,25.27,25.27,0,0,1,9.1,4.52A17.17,17.17,0,0,1,913,73.52a22.85,22.85,0,0,1,1.6,8.6,23.18,23.18,0,0,1-.95,6.7,20.59,20.59,0,0,1-2.83,5.83,21.84,21.84,0,0,1-4.6,4.77,24.56,24.56,0,0,1-6.27,3.45,16.14,16.14,0,0,1,3.17,2.1,12.67,12.67,0,0,1,2.58,3l15.5,25.35h-15.3q-4.26,0-6.1-3.2L887.66,109a5.15,5.15,0,0,0-1.88-2,6.26,6.26,0,0,0-3-.6Zm0-11.65h6.8a17.46,17.46,0,0,0,5.87-.87,10.67,10.67,0,0,0,4-2.43,9.29,9.29,0,0,0,2.25-3.62,14.16,14.16,0,0,0,.7-4.48,9.4,9.4,0,0,0-3.13-7.5q-3.12-2.7-9.67-2.7h-6.8Z" style="fill:url(#e)"/><path d="M995.85,133.37H982.76a6.09,6.09,0,0,1-3.63-1,5.35,5.35,0,0,1-2-2.63l-4.3-12.7h-27.7l-4.3,12.7a5.77,5.77,0,0,1-5.5,3.65h-13.2l28.2-72.85h17.3Zm-46.79-27.85H969l-6.7-20q-.66-1.91-1.53-4.47c-.58-1.72-1.16-3.58-1.72-5.58-.54,2-1.09,3.92-1.66,5.65s-1.09,3.24-1.59,4.5Z" style="fill:url(#e)"/><path d="M1012.51,60.62a4.47,4.47,0,0,1,1.34.38,4.42,4.42,0,0,1,1.16.77,13.58,13.58,0,0,1,1.25,1.35l34.59,43.75c-.13-1.4-.23-2.76-.29-4.07s-.1-2.56-.1-3.73V60.52h14.89v72.85h-8.79a8.11,8.11,0,0,1-3.3-.6,6.93,6.93,0,0,1-2.6-2.2l-34.35-43.4c.1,1.27.18,2.51.25,3.73s.1,2.36.1,3.42v39.05h-14.9V60.52h8.9A13.8,13.8,0,0,1,1012.51,60.62Z" style="fill:url(#e)"/><path d="M1145.15,133.37h-13.09a6.09,6.09,0,0,1-3.63-1,5.35,5.35,0,0,1-2-2.63l-4.3-12.7h-27.7l-4.3,12.7a5.77,5.77,0,0,1-5.5,3.65h-13.2l28.2-72.85H1117Zm-46.8-27.85h19.91l-6.7-20q-.66-1.91-1.53-4.47c-.58-1.72-1.16-3.58-1.72-5.58-.54,2-1.09,3.92-1.66,5.65s-1.09,3.24-1.59,4.5Z" style="fill:url(#e)"/><text transform="translate(283.92 137.16)" style="font-size:100px;fill:none;stroke:#fff;stroke-miterlimit:10;stroke-width:0.75px;font-family:Lato-Black, Lato;font-weight:800">MADE<tspan x="298.3" y="0" style="letter-spacing:-0.119990234375em">L</tspan><tspan x="338.2" y="0">YN ARANA</tspan></text><rect x="608.14" y="150.46" width="210.21" height="32.79" style="fill:#0f0f0f"/><text transform="translate(609.88 172.37)" style="font-size:30px;fill:#7e4795;font-family:Lato-Black, Lato;font-weight:800;letter-spacing:0.025em">Desarrollado<tspan x="187.2" y="0" style="letter-spacing:0.015006510416666667em">r</tspan><tspan x="200.04" y="0" style="letter-spacing:0.024967447916666666em">a</tspan></text><text transform="translate(609.88 172.37)" style="font-size:30px;fill:#7e4795;font-family:Lato-Black, Lato;font-weight:800;letter-spacing:0.025em">Desarrollado<tspan x="187.2" y="0" style="letter-spacing:0.015006510416666667em">r</tspan><tspan x="200.04" y="0" style="letter-spacing:0.024967447916666666em">a</tspan></text><ellipse cx="1210.62" cy="563.88" rx="135.51" ry="25.15" style="fill:#6f6f72;isolation:isolate;opacity:0.140000000596046"/><path d="M1319.5,464.26c-2.8-1.49-5.5-3-8.38-4.28-.09-.35-.18-.7-.27-1.14,6.12.35,14.41.53,16-6.72-6.55.87-13.18-1-19-4-.09-.26-.18-.61-.26-.87,3,.26,7.07,1.31,8.64-1.4,1.75-3.05-1.66-5.32-3.58-7.24-2.44-2.45-5.15-4.63-7.6-7.16-2-2.1-3.49-4.63-5.41-6.81-.09-.18-.26-.7-.44-1.23s-.35-.87-.43-1.13l-8.47-13.19a12,12,0,0,1-2.53.79c-45,10.39-90.9,11-136.83,11-10.65,43.48-33.35,135.69-34.66,136.48-.7.43,1.66.69,4.63.87l-2.1,1.57-1,.87a2.73,2.73,0,0,1,.79-.17c25.23-6.29,61.12,1.4,101.89,15.54,9-1,17.82-2.09,26.2-3.58,14.4,1.57,30-1.66,44.35-10.3,31.35-18.77,44.62-56.23,30.48-84.61,3,.26,7.42.26,7.59-3.49C1329.45,468.8,1323.08,466.18,1319.5,464.26Z" style="fill:#3c344b;stroke:#000;stroke-miterlimit:10;stroke-width:2.278493308689345px"/><path d="M1303.87,413.79c2.71,4.54,2,8.73-1.4,12.75-60.68,20.87-94.82,13.62-121.63-1.4-1.4-4.63-.61-7.95,1.4-10.65Z" style="fill:#7e4795;stroke:#000;stroke-miterlimit:10;stroke-width:1.877803310795068px"/><path d="M1334.25,320.1c11.62-.26,1.58-9.08-3.31-18.07,8.47-7.34,12.48-19.3,12.31-35.72-2.45-35.27-8.3-57.28-17.2-68-1.23-5.93-45.84,27.25-57.72,46.72l-3.93.09a29.1,29.1,0,0,0-5.5-.35c10.48-21.48-5.76-12.49-22.53-3,8.91-16.68-12.83-8.82-41.73,4.8H1193c-11.35-19.65-55.18-54-56.58-48-9.08,10.47-15.54,32.3-18.77,67.58-.62,16.41,3.14,28.46,11.43,36-5.15,8.91-15.45,17.47-3.75,18-13.45,19.3-24,37.28-21.48,49.25,1.66,8.64,6.29,7.5,14.49-5.16-7.42,28.47,21.83,49.6,75.53,65.84l69.42-1.75c54-14.93,83.73-35.45,77-64.09,7.94,12.84,12.57,14.06,14.41,5.42C1357.39,357.91,1347.26,339.75,1334.25,320.1Z" style="fill:#3c344b;stroke:#000;stroke-miterlimit:10;stroke-width:1.1185093107947326px"/><path d="M1263.27,428.11c54-14.93,83.73-35.45,77-64.09,7.94,12.83,12.57,14.06,14.41,5.41,2.79-11.87-7.34-30.12-20.35-49.68,11.61-.26,1.57-9.08-3.32-18.07,8.47-7.34,12.49-19.3,12.32-35.72-2.45-35.27-8.3-57.27-17.21-68-1.22-5.94-45.84,27.24-57.71,46.71" style="fill:none;stroke:#000;stroke-linecap:round;stroke-miterlimit:10;stroke-width:2.278493308689345px"/><path d="M1193.85,429.86c-53.7-16.25-82.86-37.38-75.53-65.84-8.2,12.66-12.92,13.8-14.49,5.15-2.45-12,8-29.95,21.48-49.24-11.61-.53-1.31-9.09,3.75-18-8.29-7.51-12-19.56-11.43-36,3.23-35.18,9.6-57.1,18.77-67.58,1.39-5.94,45.23,28.29,56.58,48" style="fill:none;stroke:#000;stroke-linecap:round;stroke-miterlimit:10;stroke-width:2.278493308689345px"/><path d="M1169.14,258.8c39.82-19.64,78.67-38.59,67.23-17.2,16.77-9.51,33-18.51,22.53,3,6.29-.26,13.19,1.66,21,6.38" style="fill:none;stroke:#000;stroke-linecap:round;stroke-miterlimit:10;stroke-width:2.278493308689345px"/><path d="M1324.13,295c.17,0,.35-.08.52-.08,9.69-36.68,9.87-79-2.18-86-6,4.89-14.32,18.77-24.45,40.25" style="fill:#f2a09f;stroke:#000;stroke-miterlimit:10;stroke-width:2.278493308689345px"/><ellipse cx="1317.98" cy="282.08" rx="4.54" ry="4.37" transform="translate(963.44 1582.45) rotate(-86.83)" style="fill:#f2a09f;stroke:#000;stroke-miterlimit:10.0003058372909;stroke-width:1.1185435189804793px"/><path d="M1135.09,294.52c-8.3-37-7.34-78.67,4.63-85.31,5.93,5.15,13.88,19.47,23.57,41.65l-15,28.81" style="fill:#f2a09f;stroke:#000;stroke-miterlimit:10;stroke-width:2.278493308689345px"/><path d="M1156.83,327a8.06,8.06,0,0,1-3.84-3.76,8.42,8.42,0,0,1-.44-5.06,7.12,7.12,0,0,0,1.4,4.45,6.76,6.76,0,0,0,3.75,2.18,1.27,1.27,0,0,1,.88,1.4,1.22,1.22,0,0,1-1.4.88.63.63,0,0,1-.35-.09Z"/><path d="M1161.89,324.73a8.06,8.06,0,0,1-3.84-3.76,8.41,8.41,0,0,1-.43-5.06,7.11,7.11,0,0,0,1.39,4.45,6.75,6.75,0,0,0,3.76,2.18,1.17,1.17,0,1,1-.53,2.27c-.17,0-.26,0-.35-.08Z"/><path d="M1167,324.2a8,8,0,0,1-3.84-3.75,8.45,8.45,0,0,1-.44-5.07,7.15,7.15,0,0,0,1.4,4.46,6.88,6.88,0,0,0,3.75,2.18,1.26,1.26,0,0,1,.87,1.4,1.24,1.24,0,0,1-1.39.87c-.18,0-.26,0-.35-.09Z"/><path d="M1173.16,324.9a9.7,9.7,0,0,1-1.92-1.92,6.29,6.29,0,0,1-1.14-2.44,8.71,8.71,0,0,1,.7-5,7.25,7.25,0,0,0,.35,4.54,6.14,6.14,0,0,0,3.14,2.79,1.12,1.12,0,0,1,.61,1.49,1.19,1.19,0,0,1-1.48.61.31.31,0,0,1-.26-.09Z"/><path d="M1177.87,325.78a10.4,10.4,0,0,1-1.39-2.36,5.52,5.52,0,0,1-.44-2.62,7.49,7.49,0,0,1,2-4.54,7.44,7.44,0,0,0-.88,4.45,5.9,5.9,0,0,0,2.36,3.41,1.12,1.12,0,1,1-1.4,1.74c-.17,0-.17,0-.26-.08Z"/><path d="M1192.63,327.87a32.85,32.85,0,0,0-7.77-3.75,36.39,36.39,0,0,0-8.12-1.75,54.8,54.8,0,0,0-7.42-.09c-1.75.09-1.31.18-6.29.7-.18.09-.35.09-.52.18a20.3,20.3,0,0,1-3.85.69,21.55,21.55,0,0,1-2.35.44c-.09,0-.09,0-.18.09s-.26.09-.44.17c-.43.35-.87.61-1.31,1a4.2,4.2,0,0,0-1,2.45,3.78,3.78,0,0,0,1.31,3.05,3.91,3.91,0,0,0,1.93.88,5.1,5.1,0,0,0,2.7-.44c1.57-.61,3.32-.79,5-1.31,2.79-.78,5.15-1.4,5.85-1.48,8.82-1.92,19.38,2.27,21,3.49a4.76,4.76,0,0,0,1.75.79,3.12,3.12,0,0,0,1.57-.27,2.57,2.57,0,0,0,1.14-1.22c.17-1.05-.7-2.09-3.06-3.58"/><path d="M1298.11,321.41a6.75,6.75,0,0,0,3.58-2.36,7.22,7.22,0,0,0,1.13-4.54,7.84,7.84,0,0,1-.17,5.07,8.52,8.52,0,0,1-3.67,3.93h0a1.18,1.18,0,0,1-1.57-.44,1.16,1.16,0,0,1,.43-1.57C1297.93,321.5,1298,321.41,1298.11,321.41Z"/><path d="M1293,319.4a6.62,6.62,0,0,0,3.58-2.36,7.16,7.16,0,0,0,1.14-4.54,7.78,7.78,0,0,1-.18,5.07,8.4,8.4,0,0,1-3.66,3.93h0a1.16,1.16,0,0,1-1.14-2C1292.78,319.49,1292.87,319.4,1293,319.4Z"/><path d="M1287.89,319.14a6.68,6.68,0,0,0,3.58-2.36,7.29,7.29,0,0,0,1.14-4.54,7.84,7.84,0,0,1-.18,5.07,8.45,8.45,0,0,1-3.67,3.92h0a1.15,1.15,0,1,1-1.13-2C1287.72,319.23,1287.8,319.14,1287.89,319.14Z"/><path d="M1281.34,320.36a5.78,5.78,0,0,0,3-3,7,7,0,0,0,.09-4.62,7.23,7.23,0,0,1,1,4.88,9.3,9.3,0,0,1-1,2.54,10.65,10.65,0,0,1-1.84,2h0a1.18,1.18,0,1,1-1.57-1.75C1281.17,320.45,1281.25,320.36,1281.34,320.36Z"/><path d="M1276.28,321.76a6.43,6.43,0,0,0,2.18-3.58,7.46,7.46,0,0,0-1-4.45,8,8,0,0,1,2.19,4.45,5.93,5.93,0,0,1-.35,2.71,8.07,8.07,0,0,1-1.31,2.35h0a1.13,1.13,0,1,1-1.84-1.31A.18.18,0,0,0,1276.28,321.76Z"/><path d="M1263.35,326.21a36,36,0,0,1,7.51-4.19,33.91,33.91,0,0,1,8-2.18,43.5,43.5,0,0,1,7.42-.44c1.74,0,1.31.09,6.29.35a1,1,0,0,0,.52.09,31.11,31.11,0,0,0,3.93.52,21,21,0,0,0,2.36.35h.17c.17.09.26.09.44.18a11.43,11.43,0,0,0,1.31.87,3.79,3.79,0,0,1,1.13,2.36,3.69,3.69,0,0,1-1.13,3.05,4.59,4.59,0,0,1-1.92,1,5.18,5.18,0,0,1-2.71-.26c-1.66-.52-3.41-.61-5.07-1.05-2.88-.7-5.23-1.13-5.85-1.22-8.9-1.48-19.29,3.23-20.86,4.63a4.31,4.31,0,0,1-1.75.87,3.88,3.88,0,0,1-1.57-.17,2.08,2.08,0,0,1-1.14-1.14c-.26-.87.53-1.92,2.88-3.58"/><path d="M1240,374.41l-7.94-3.58-3.49-3.41-3.15,2.27-.17.09a14.5,14.5,0,0,1-1.49.88l-2.7,1.48-6.29,1.05-4.72-1c-.61-.09-1.22-.26-1.83-.35l-4.89-1c4.11,14.67,9.43,29.16,24,31.69,10.57-1,20.44-5.32,26-29.34Z" style="fill:#222"/><path d="M1228.17,359c8.47-2,14.49-5.15,17.28-9.86,2.89-4.89-2.7-7.86-12.66-9.78-8.73-.7-15.71-.09-19.73,2.7-1.57,3.23-1,6.81,3.67,11.18C1218.82,355.38,1222.58,357.3,1228.17,359Z" style="fill:#e9b2c1;stroke:#000;stroke-miterlimit:10;stroke-width:2.278493308689345px"/><path d="M1217.25,398.68c7.25-7.07,14.93-8.12,23.14-.26l-7.33,3.67-4.28,1-5.07-1.05Z" style="fill:#e63149"/><path d="M1202.93,371.7c3.23,14.06,12,35.37,30.39,30.48,1-.44,2.27-.79,3.23-1.14,5.59-2.88,9.43-7.6,12-13.36,2-3.93,3.14-8.38,4.28-13" style="fill:none;stroke:#000;stroke-linecap:round;stroke-miterlimit:10;stroke-width:2.278493308689345px"/><polygon points="1239.78 382.09 1244.67 376.42 1246.15 375.11 1238.82 374.24 1239.78 382.09" style="fill:#fff"/><path d="M1211.23,373.54l1.22,1.31,4.19,6.2,1.83-7.6A28.71,28.71,0,0,1,1211.23,373.54Z" style="fill:#fff"/><path d="M1185,358.78a5.22,5.22,0,0,0,.53,3.06,8.68,8.68,0,0,0,1.92,2.44,21.36,21.36,0,0,0,5.32,3.41,42.3,42.3,0,0,0,12.32,3.31,46.67,46.67,0,0,0,12.66,0,27.06,27.06,0,0,0,6-1.57,12.8,12.8,0,0,0,2.62-1.39,6.65,6.65,0,0,0,1.83-2l1-1.75,1,1.75a7.41,7.41,0,0,0,1.92,2.09,16.73,16.73,0,0,0,2.71,1.57,28.12,28.12,0,0,0,6.2,2.1,40.34,40.34,0,0,0,6.55,1,56.46,56.46,0,0,0,6.63.17,46.75,46.75,0,0,0,13.1-1.92,22.07,22.07,0,0,0,6-2.7,11.73,11.73,0,0,0,2.44-2.19,4.79,4.79,0,0,0,1.05-3.05,5,5,0,0,1-.7,3.31,9.33,9.33,0,0,1-2.36,2.54,24,24,0,0,1-6,3.23,49.82,49.82,0,0,1-13.45,2.7,51.54,51.54,0,0,1-13.71-1,29.11,29.11,0,0,1-6.63-2.18,19.71,19.71,0,0,1-3.15-1.83,9.7,9.7,0,0,1-2.53-2.8h2a8.34,8.34,0,0,1-2.53,2.71,14.93,14.93,0,0,1-3.06,1.66,24.64,24.64,0,0,1-6.55,1.57,44.33,44.33,0,0,1-13.18-.44,40.85,40.85,0,0,1-12.49-4.1,19.53,19.53,0,0,1-5.32-3.93,8.74,8.74,0,0,1-1.84-2.79A3.7,3.7,0,0,1,1185,358.78Z"/><path d="M1259.86,358.08a1.7,1.7,0,0,0,0-3.4,1.7,1.7,0,0,0,0,3.4Z"/><path d="M1261.61,368.12a1.7,1.7,0,0,0,0-3.4,1.7,1.7,0,0,0,0,3.4Z"/><path d="M1251.39,363.15a1.71,1.71,0,0,0,0-3.41,1.71,1.71,0,0,0,0,3.41Z"/><path d="M1198,355.9a1.71,1.71,0,0,0,0-3.41c-2.18-.08-2.18,3.41,0,3.41Z"/><path d="M1195.25,365.59a1.7,1.7,0,0,0,0-3.4,1.7,1.7,0,1,0,0,3.4Z"/><path d="M1205.9,361.84a1.71,1.71,0,0,0,0-3.41,1.71,1.71,0,0,0,0,3.41Z"/><path d="M1106.54,352c24.53-6,64.17-2.36,70.46,5.5C1154,349.44,1130.46,348,1106.54,352Z"/><path d="M1170.19,363.15a157.52,157.52,0,0,0-60,2.35C1130,360.26,1150,357.12,1170.19,363.15Z"/><path d="M1178,370.13c-7.68.87-14.93,1.31-21.92,2.71s-13.88,3.49-20.78,5.32C1143.73,372.31,1171.41,366.9,1178,370.13Z"/><path d="M1353.81,361.14c-23.75-8.73-63.56-9.43-70.64-2.27C1306.92,353.45,1330.5,354.68,1353.81,361.14Z"/><path d="M1289.29,365.24a155.83,155.83,0,0,1,59.37,9C1329.54,366.81,1310.07,361.57,1289.29,365.24Z"/><path d="M1280.82,371.35c7.59,1.75,14.67,3,21.48,5.07s13.36,5,20.08,7.59C1314.7,377.29,1287.72,368.91,1280.82,371.35Z"/><path d="M1163.9,277a39.94,39.94,0,0,1-.17-15.46,3.44,3.44,0,0,1,.61-1.13,2.55,2.55,0,0,1,.17-.62,19.31,19.31,0,0,0,2-7.94c-11.61-5.76-18.42-5.41-9.78,14.41-10.74-3.93-15.89-1.75-8.55,14l.78,1.57L1129.85,302l18.51,1.65,15.54-26Z" style="fill:#3c344b"/><path d="M1147.49,280.11c-7.42-15.72-2.27-17.9,8.55-14-8.73-20-1.74-20.17,10-14.23" style="fill:none;stroke:#000;stroke-linecap:round;stroke-miterlimit:10;stroke-width:2.278493308689345px"/><path d="M1129.15,301.94l19.12-20.26-.78-1.57" style="fill:none;stroke:#000;stroke-linecap:round;stroke-miterlimit:10;stroke-width:2.278493308689345px"/><path d="M1295,250.68c11.88-5.67,18.86-5.23,9.69,14.5,11.18-3.76,16.33-1.31,7.43,15.72l18.59,20.69-15.89-1.49-23.48-37.54Z" style="fill:#3c344b"/><path d="M1330.94,301.76l-18.6-20.69c8.9-16.94,3.75-19.47-7.42-15.72,9.16-19.73,2.27-20.17-9.7-14.49" style="fill:none;stroke:#000;stroke-linecap:round;stroke-miterlimit:10;stroke-width:2.278493308689345px"/><polygon points="1247.9 555.15 1295.14 517.43 1175.78 510.1 1173.59 545.99 1247.9 555.15" style="fill:#a2a5a5;stroke:#000;stroke-miterlimit:10;stroke-width:2.278493308689345px"/><path d="M1268.51,441.56c-3.67,10.91-7.43,25.05-11.18,40.95a31.84,31.84,0,0,0-7.33,5.32l-4.46-.87c-11.52,4.19-7.07,20.52,3.58,16.68-2.36,8.64,5.42,16.67,16.5,11,2.36,9.78,19.48,7.68,14.5-6.55a32.87,32.87,0,0,0,1.92-8.82c.26-1.22.35-2.53.52-4,12.14-7.77,18.34-19.73,22.36-33.18-.53-.08-1.05-.17-1.49-.26" style="fill:#3c344b;stroke:#000;stroke-miterlimit:10;stroke-width:2.278493308689345px"/><polygon points="1235.85 549.65 1264.05 528.78 1172.46 523.28 1235.85 549.65" style="fill:#a2a5a5;stroke:#000;stroke-miterlimit:10;stroke-width:2.278493308689345px"/><polygon points="1064.45 401.74 1242.05 420.77 1244.23 554.45 1067.77 533.59 1064.45 401.74" style="stroke:#000;stroke-miterlimit:10;stroke-width:2.278493308689345px;fill:url(#q)"/><path d="M1303.43,553.67c42.09,35.8,79.28-70.64,120.41-9.17,14.23-42.44,3.75-67.49-40-69-32.31,4.8-41.39,55.18-68,62.08l-13.62,16.77" style="fill:#3c344b;stroke:#000;stroke-miterlimit:10;stroke-width:2.278493308689345px"/><path d="M1221.79,536.9c0-.26-.08-.52-.08-.78a74,74,0,0,0-1.4-12.84,6.33,6.33,0,0,1,.61-1c4.1-7.85,4.19-17.81.26-22.17-3-3.32-7.33-2.54-11.09,1.22-1.22-5.76-4.54-9.95-8.38-9.95a5.77,5.77,0,0,0-3.93,1.57,6.39,6.39,0,0,0-1.4,1.22,11.73,11.73,0,0,0-2.44,4.89,25.21,25.21,0,0,0-1,4.1c-3.93-4.45-8.65-5.41-11.79-1.92-4,4.45-3.93,14.32.26,22.18a22.14,22.14,0,0,0,1.75,2.79,77.14,77.14,0,0,0-2.71,11.79c-1.66,11.18-1.13,22,1.22,30.56a23,23,0,0,0,8,15,12.92,12.92,0,0,0,4.45,2.62,17.06,17.06,0,0,0,6.64,1.31c8.12,0,15-5.76,17.9-13.88C1222.4,564.5,1223.89,551,1221.79,536.9Z" style="fill:#3c344b;stroke:#000;stroke-miterlimit:10;stroke-width:2.278493308689345px"/><ellipse cx="1200.14" cy="550.61" rx="9.34" ry="17.73" transform="translate(-1.57 3.43) rotate(-0.16)" style="fill:#ed9ea5;stroke:#000;stroke-miterlimit:10.0000406726332;stroke-width:2.278502575921591px"/><ellipse cx="1189.02" cy="516.67" rx="5.24" ry="10.48" transform="translate(-102.35 402.35) rotate(-18.43)" style="fill:#ed9ea5;stroke:#000;stroke-miterlimit:9.99975460344626;stroke-width:2.2784373952487806px"/><ellipse cx="1212.49" cy="517.59" rx="10.91" ry="4.98" transform="translate(455.79 1597.14) rotate(-78.09)" style="fill:#ed9ea5;stroke:#000;stroke-miterlimit:10.0003161434556;stroke-width:2.2785653417641627px"/><ellipse cx="1201.37" cy="510.94" rx="11.26" ry="4.89" transform="translate(631.81 1685.64) rotate(-87.17)" style="fill:#ed9ea5;stroke:#000;stroke-miterlimit:10.0001683455308;stroke-width:2.2785316661058865px"/><path d="M1354.08,275a40.11,40.11,0,0,0-9.7-.61c-22,.7-43,5.93-64,12.4-9.25,2.88-18,7.16-27.33,9.77-7.42,2.1-15,4-22.79,3.32a71.88,71.88,0,0,1-23.31-6.11c-14.58-6.55-29.25-12.66-44.62-17.2-14.41-4.28-28.9-7.68-44-8.47-1.22,0-2.53-.09-3.75-.09-1,0-2.18.18-3.23.26-3.93.62-5.5,2.89-5,6.82.53,4.45,2.62,8.38,3.67,12.57,3.23,12.48,6.9,24.8,13.1,36.23,8.2,15.2,19.29,27.42,36.32,33,15.63,5.15,30.3,3.49,43.48-6.81,6.38-5,10.48-12,14.76-18.69,2.88-4.54,5.67-9.16,9.87-12.66,3.14-2.62,5-2.62,7.94.26a26,26,0,0,1,3.49,4.11c4.28,5.85,7.25,12.57,11.09,18.77,9.08,14.5,22.44,21.66,39.29,21.13,17.73-.61,31.79-9.08,42.88-22.7,8.64-10.57,14.32-22.7,18.86-35.45,2.7-7.51,5.41-15,7.77-22.62C1360,278.19,1358.09,275.74,1354.08,275Zm-181.36,75a52.26,52.26,0,0,1-19.47-5.59c-5.76-3-10.22-7.85-14.15-13-9.77-12.83-15.1-27.59-17.37-43.39-.7-4.46,1.31-6.38,5.85-6,7.07.53,14,2.1,21,3.41,11.88,2.18,23.75,4.71,35.19,8.82,13,4.71,19,14.75,20.7,27.68C1207.12,341.58,1191.58,350.66,1172.72,350Zm170.18-55.71c-4.63,20.79-13.1,39.38-31,52.39-4.89,3.5-10.65,4.63-16.33,5.77a41.14,41.14,0,0,1-9.34.87c-6.11-.18-11.18-1.22-15.89-3.67-8.73-4.63-12.92-12.05-12.49-21.74a35.17,35.17,0,0,1,11.53-25c4.45-4.11,10-5.76,15.72-7.16,13.7-3.58,27.76-5.24,41.91-6.9,3.49-.35,6.9-1,10.48-1C1341.94,287.88,1343.86,289.8,1342.9,294.25Z" style="fill:#7e4795;stroke:#000;stroke-miterlimit:10;stroke-width:2.237018621589465px"/><path d="M1164.08,488.27c10.21,10.91.52,20.61-6.64,6.46-1,11.61-8.82,13.62-9.87.7-1,10.56-10.91,8.64-6.63-2.53-7.42,12.92-22.44,7.86-5.59-5.94-19.56-.18-29.77-29.51.87-41.21C1188.26,431.86,1196.82,483.12,1164.08,488.27Z" style="fill:#fff;stroke:#000;stroke-miterlimit:10;stroke-width:2.278493308689345px"/><ellipse cx="1160.79" cy="466.53" rx="6.37" ry="11.53" transform="translate(-77.6 289.15) rotate(-13.74)"/><ellipse cx="1140.28" cy="469.79" rx="8.82" ry="4.89" transform="translate(163.28 1222.39) rotate(-60)"/><path d="M1147.57,482c-.43-3.05.88-5.15,4.11-6.28C1151.94,479.36,1150.8,481.72,1147.57,482Z"/><path d="M1154.65,482.77c-1.84-.7-2.36-2.36-1.49-5.07C1155.17,478.84,1156,480.41,1154.65,482.77Z"/><path d="M1128.28,524.24c0-.26-.09-.52-.09-.78a73.05,73.05,0,0,0-1.4-12.84,7.11,7.11,0,0,1,.61-1.05c4.11-7.85,4.2-17.81.27-22.17-3-3.32-7.34-2.54-11.09,1.22-1.23-5.76-4.54-10-8.38-10a5.76,5.76,0,0,0-3.93,1.58,5.93,5.93,0,0,0-1.4,1.22,11.74,11.74,0,0,0-2.45,4.89,27.48,27.48,0,0,0-1,4.1c-3.93-4.45-8.64-5.41-11.78-1.92-4,4.45-3.93,14.32.26,22.18a21,21,0,0,0,1.74,2.79,78.35,78.35,0,0,0-2.7,11.79c-1.66,11.18-1.14,22,1.22,30.56a23,23,0,0,0,8,15,13.12,13.12,0,0,0,4.46,2.62,17,17,0,0,0,6.63,1.31c8.12,0,15-5.76,17.9-13.88C1128.89,551.83,1130.37,538.39,1128.28,524.24Z" style="fill:#3c344b;stroke:#000;stroke-miterlimit:10;stroke-width:2.278493308689345px"/><ellipse cx="1106.63" cy="537.95" rx="9.34" ry="17.73" transform="translate(-1.53 3.16) rotate(-0.16)" style="fill:#ed9ea5;stroke:#000;stroke-miterlimit:10.0000406726332;stroke-width:2.278502575921591px"/><ellipse cx="1095.58" cy="503.98" rx="5.24" ry="10.48" transform="translate(-103.13 372.16) rotate(-18.43)" style="fill:#ed9ea5;stroke:#000;stroke-miterlimit:9.99975460344626;stroke-width:2.2784373952487806px"/><ellipse cx="1119.05" cy="504.99" rx="10.91" ry="4.98" transform="translate(393.97 1495.71) rotate(-78.09)" style="fill:#ed9ea5;stroke:#000;stroke-miterlimit:10.0003161434556;stroke-width:2.2785653417641627px"/><ellipse cx="1107.84" cy="498.32" rx="11.26" ry="4.89" transform="translate(555.49 1580.24) rotate(-87.17)" style="fill:#ed9ea5;stroke:#000;stroke-miterlimit:10.0001683455308;stroke-width:2.2785316661058865px"/></svg>
