<svg xmlns="http://www.w3.org/2000/svg" xmlns:xlink="http://www.w3.org/1999/xlink" viewBox="0 0 1442.51 598.37"><defs><linearGradient id="a" x1="543.31" y1="1110.53" x2="711.65" y2="1110.53" gradientTransform="matrix(1, 0, 0, -1, 0.35, 1582.6)" gradientUnits="userSpaceOnUse"><stop offset="0" stop-color="#7e4795"/><stop offset="1" stop-color="#3dbfef"/></linearGradient><linearGradient id="b" x1="292.98" y1="250.61" x2="332.62" y2="250.61" gradientTransform="matrix(1, 0, 0, 1, 0, 0)" xlink:href="#a"/><linearGradient id="d" x1="1095.27" y1="295.93" x2="1135.37" y2="295.93" gradientTransform="matrix(1, 0, 0, 1, 0, 0)" xlink:href="#a"/><linearGradient id="f" x1="286.71" y1="110.35" x2="1144.8" y2="110.35" gradientTransform="matrix(1, 0, 0, 1, 0, 0)" xlink:href="#a"/></defs><rect x="2.06" y="0.79" width="1440" height="595.17" style="fill:#101010;stroke:#3a313b;stroke-miterlimit:10;stroke-width:0.9015993742660341px"/><line x1="0.95" y1="595.45" x2="0.25" style="fill:none;stroke:#3a313b;stroke-miterlimit:10;stroke-width:0.5px"/><line x1="529.95" y1="596.39" x2="529.25" y2="0.94" style="fill:none;stroke:#3a313b;stroke-miterlimit:10;stroke-width:0.5px"/><line x1="306.45" y1="596.39" x2="305.85" y2="1.01" style="fill:none;stroke:#3a313b;stroke-miterlimit:10;stroke-width:0.5px"/><line x1="1441.15" y1="596.39" x2="1440.45" y2="0.94" style="fill:none;stroke:#3a313b;stroke-miterlimit:10;stroke-width:0.5px"/><line x1="846.25" y1="596.39" x2="845.55" y2="0.94" style="fill:none;stroke:#3a313b;stroke-miterlimit:10;stroke-width:0.5px"/><line x1="1117.75" y1="596.39" x2="1117.05" y2="0.94" style="fill:none;stroke:#3a313b;stroke-miterlimit:10;stroke-width:0.5px"/><ellipse cx="680.52" cy="552.39" rx="126.89" ry="23.55" style="fill:#6f6f72;isolation:isolate;opacity:0.140000000596046"/><path d="M782.12,460.51c-2.62-1.39-5.15-2.78-7.85-4-.08-.32-.16-.65-.24-1.06,5.72.33,13.49.49,15-6.3-6.13.82-12.35-.9-17.82-3.76-.09-.24-.17-.57-.25-.81,2.78.24,6.62,1.22,8.09-1.31,1.64-2.86-1.55-5-3.35-6.79-2.29-2.29-4.82-4.33-7.11-6.7-1.88-2-3.27-4.33-5.07-6.38-.08-.16-.24-.65-.41-1.14s-.33-.82-.41-1.07l-7.93-12.34a10.88,10.88,0,0,1-2.37.73c-42.1,9.73-85.11,10.31-128.11,10.31-10,40.71-31.23,127-32.46,127.78-.65.41,1.56.65,4.34.82l-2,1.47-.9.82a2.48,2.48,0,0,1,.74-.17c23.63-5.88,57.23,1.31,95.41,14.56,8.42-.9,16.68-2,24.53-3.36a66.54,66.54,0,0,0,41.53-9.64c29.35-17.58,41.78-52.65,28.53-79.22,2.86.24,7,.24,7.11-3.27C791.44,464.76,785.47,462.31,782.12,460.51Z" transform="translate(0.35 -1.4)" style="fill:#3c344b;stroke:#000;stroke-miterlimit:10;stroke-width:2.1334245930349174px"/><path d="M767.49,413.25c2.53,4.25,1.88,8.18-1.31,11.94-56.82,19.54-88.79,12.75-113.89-1.31-1.31-4.33-.57-7.44,1.31-10Z" transform="translate(0.35 -1.4)" style="fill:#7e4795;stroke:#000;stroke-miterlimit:10;stroke-width:1.7582460079450675px"/><path d="M795.94,325.53c10.87-.25,1.47-8.5-3.11-16.92,7.93-6.87,11.69-18.07,11.53-33.44-2.29-33-7.77-53.63-16.11-63.69-1.14-5.56-42.92,25.51-54,43.74l-3.68.08a28.76,28.76,0,0,0-5.15-.33c9.81-20.11-5.39-11.69-21.09-2.78,8.34-15.61-12-8.25-39.08,4.5h-1.55c-10.63-18.39-51.67-50.52-53-45-8.5,9.82-14.55,30.25-17.58,63.28-.57,15.37,2.94,26.66,10.71,33.69C599,317,589.34,325,600.3,325.53c-12.6,18.07-22.49,34.91-20.12,46.11,1.56,8.09,5.89,7,13.57-4.82-6.94,26.65,20.44,46.43,70.72,61.64l65-1.64c50.61-14,78.4-33.19,72.11-60,7.44,12,11.77,13.16,13.49,5.06C817.6,360.93,808.12,343.92,795.94,325.53Z" transform="translate(0.35 -1.4)" style="fill:#3c344b;stroke:#000;stroke-miterlimit:10;stroke-width:1.047295272752265px"/><path d="M729.47,426.66c50.61-14,78.4-33.19,72.11-60,7.44,12,11.77,13.17,13.49,5.07,2.61-11.12-6.87-28.2-19.05-46.52,10.87-.24,1.47-8.5-3.11-16.92,7.93-6.87,11.69-18.07,11.53-33.44-2.29-33-7.77-53.63-16.11-63.69-1.14-5.56-42.92,25.51-54,43.74" transform="translate(0.35 -1.4)" style="fill:none;stroke:#000;stroke-linecap:round;stroke-miterlimit:10;stroke-width:2.1334245930349174px"/><path d="M664.47,428.3c-50.28-15.21-77.58-35-70.72-61.65-7.68,11.86-12.1,12.92-13.57,4.83-2.29-11.2,7.52-28.05,20.12-46.11-10.88-.49-1.23-8.51,3.51-16.85-7.77-7-11.28-18.31-10.71-33.68,3-32.95,9-53.47,17.58-63.28,1.31-5.56,42.35,26.49,53,45" transform="translate(0.35 -1.4)" style="fill:none;stroke:#000;stroke-linecap:round;stroke-miterlimit:10;stroke-width:2.1334245930349174px"/><path d="M641.34,268.14C678.62,249.74,715,232,704.29,252c15.7-8.91,30.9-17.33,21.09,2.78,5.89-.25,12.35,1.55,19.71,6" transform="translate(0.35 -1.4)" style="fill:none;stroke:#000;stroke-linecap:round;stroke-miterlimit:10;stroke-width:2.1334245930349174px"/><path d="M786.45,302c.17,0,.33-.08.49-.08,9.08-34.34,9.24-74-2-80.53C779.26,226,771.49,239,762,259.06" transform="translate(0.35 -1.4)" style="fill:#f2a09f;stroke:#000;stroke-miterlimit:10;stroke-width:2.1334245930349174px"/><ellipse cx="780.7" cy="289.93" rx="4.25" ry="4.09" transform="translate(448.39 1052.01) rotate(-86.83)" style="fill:#f2a09f;stroke:#000;stroke-miterlimit:10.0003058372909;stroke-width:1.047327302947165px"/><path d="M609.45,301.57c-7.76-34.66-6.87-73.66,4.33-79.87,5.56,4.82,13,18.23,22.08,39l-14.06,27" transform="translate(0.35 -1.4)" style="fill:#f2a09f;stroke:#000;stroke-miterlimit:10;stroke-width:2.1334245930349174px"/><path d="M629.81,332a7.55,7.55,0,0,1-3.6-3.52,8,8,0,0,1-.41-4.74,6.67,6.67,0,0,0,1.31,4.17,6.39,6.39,0,0,0,3.52,2,1.17,1.17,0,0,1,.81,1.31,1.12,1.12,0,0,1-1.3.82.62.62,0,0,1-.33-.08Z" transform="translate(0.35 -1.4)"/><path d="M634.55,329.86a7.53,7.53,0,0,1-3.6-3.51,8,8,0,0,1-.41-4.75,6.65,6.65,0,0,0,1.31,4.17,6.41,6.41,0,0,0,3.52,2.05,1.09,1.09,0,1,1-.49,2.12c-.17,0-.25,0-.33-.08Z" transform="translate(0.35 -1.4)"/><path d="M639.29,329.37a7.46,7.46,0,0,1-3.59-3.51,7.87,7.87,0,0,1-.41-4.75,6.7,6.7,0,0,0,1.3,4.17,6.41,6.41,0,0,0,3.52,2.05,1.09,1.09,0,1,1-.49,2.12c-.16,0-.25,0-.33-.08Z" transform="translate(0.35 -1.4)"/><path d="M645.1,330a9.3,9.3,0,0,1-1.8-1.8,5.86,5.86,0,0,1-1.06-2.29,8.14,8.14,0,0,1,.65-4.66,6.71,6.71,0,0,0,.33,4.25,5.76,5.76,0,0,0,2.94,2.62,1,1,0,0,1,.57,1.39,1.12,1.12,0,0,1-1.39.57.29.29,0,0,1-.24-.08Z" transform="translate(0.35 -1.4)"/><path d="M649.51,330.84a10,10,0,0,1-1.31-2.2,5.19,5.19,0,0,1-.4-2.46,7,7,0,0,1,1.88-4.25,6.9,6.9,0,0,0-.82,4.17,5.4,5.4,0,0,0,2.21,3.19,1,1,0,0,1-1.31,1.64c-.17,0-.17,0-.25-.09Z" transform="translate(0.35 -1.4)"/><path d="M663.33,332.81a30.57,30.57,0,0,0-7.28-3.52,35,35,0,0,0-7.6-1.64,51,51,0,0,0-7-.08c-1.63.08-1.23.17-5.89.66-.16.08-.32.08-.49.16a19.18,19.18,0,0,1-3.59.65,19.45,19.45,0,0,1-2.21.41c-.08,0-.08,0-.16.09s-.25.08-.41.16c-.41.33-.82.57-1.23.9a3.88,3.88,0,0,0-.9,2.29,3.53,3.53,0,0,0,1.23,2.86,3.64,3.64,0,0,0,1.8.82,4.8,4.8,0,0,0,2.53-.41c1.47-.57,3.11-.74,4.66-1.23,2.62-.73,4.82-1.31,5.48-1.39,8.26-1.8,18.15,2.13,19.7,3.27a4.48,4.48,0,0,0,1.64.74,2.89,2.89,0,0,0,1.47-.25,2.32,2.32,0,0,0,1.06-1.14c.16-1-.65-2-2.86-3.35" transform="translate(0.35 -1.4)"/><path d="M762.09,326.76a6.27,6.27,0,0,0,3.35-2.21,6.77,6.77,0,0,0,1.07-4.25,7.31,7.31,0,0,1-.17,4.74,7.89,7.89,0,0,1-3.43,3.68h0a1.09,1.09,0,0,1-1.47-.41,1.08,1.08,0,0,1,.41-1.47C761.93,326.84,762,326.76,762.09,326.76Z" transform="translate(0.35 -1.4)"/><path d="M757.27,324.88a6.31,6.31,0,0,0,3.35-2.21,6.77,6.77,0,0,0,1.06-4.25,7.31,7.31,0,0,1-.16,4.74,7.91,7.91,0,0,1-3.44,3.68h0A1.08,1.08,0,1,1,757,325C757.1,325,757.19,324.88,757.27,324.88Z" transform="translate(0.35 -1.4)"/><path d="M752.53,324.63a6.25,6.25,0,0,0,3.35-2.21,6.82,6.82,0,0,0,1.06-4.25,7.3,7.3,0,0,1-.16,4.74,7.92,7.92,0,0,1-3.44,3.68h0a1.08,1.08,0,1,1-1.06-1.88C752.36,324.71,752.44,324.63,752.53,324.63Z" transform="translate(0.35 -1.4)"/><path d="M746.39,325.77a5.39,5.39,0,0,0,2.78-2.78,6.48,6.48,0,0,0,.08-4.33,6.73,6.73,0,0,1,.9,4.58,8.11,8.11,0,0,1-.9,2.37,9.29,9.29,0,0,1-1.71,1.88h0a1.1,1.1,0,1,1-1.47-1.63C746.23,325.86,746.31,325.77,746.39,325.77Z" transform="translate(0.35 -1.4)"/><path d="M741.65,327.08a6,6,0,0,0,2.05-3.35,7,7,0,0,0-1-4.17,7.47,7.47,0,0,1,2,4.17,5.4,5.4,0,0,1-.33,2.53,6.94,6.94,0,0,1-1.23,2.21h0a1.05,1.05,0,1,1-1.71-1.22A.18.18,0,0,0,741.65,327.08Z" transform="translate(0.35 -1.4)"/><path d="M729.55,331.25a33.61,33.61,0,0,1,7-3.92,32.35,32.35,0,0,1,7.52-2.05,42,42,0,0,1,6.95-.4c1.64,0,1.23.08,5.89.32a1.06,1.06,0,0,0,.49.08,27.29,27.29,0,0,0,3.68.49,18.71,18.71,0,0,0,2.21.33h.16c.16.08.25.08.41.16a9.74,9.74,0,0,0,1.23.82,3.53,3.53,0,0,1,1.06,2.21,3.48,3.48,0,0,1-1.06,2.86,4.34,4.34,0,0,1-1.8.9,4.89,4.89,0,0,1-2.54-.24c-1.55-.5-3.19-.58-4.74-1-2.7-.65-4.9-1.06-5.48-1.14-8.34-1.39-18.07,3-19.54,4.33a4,4,0,0,1-1.63.82,3.69,3.69,0,0,1-1.47-.16,1.93,1.93,0,0,1-1.07-1.07c-.24-.81.49-1.79,2.7-3.35" transform="translate(0.35 -1.4)"/><path d="M707.64,376.38,700.2,373l-3.27-3.19L694,372l-.17.08a12.61,12.61,0,0,1-1.39.82l-2.53,1.39-5.89,1-4.41-.9c-.57-.08-1.15-.25-1.72-.33l-4.58-.9c3.85,13.74,8.83,27.31,22.49,29.68,9.89-1,19.13-5,24.36-27.47Z" transform="translate(0.35 -1.4)" style="fill:#222"/><path d="M696.6,362c7.93-1.88,13.58-4.82,16.19-9.24s-2.53-7.35-11.85-9.15c-8.18-.66-14.72-.08-18.48,2.53-1.47,3-1,6.38,3.43,10.47C687.86,358.56,691.37,360.36,696.6,362Z" transform="translate(0.35 -1.4)" style="fill:#e9b2c1;stroke:#000;stroke-miterlimit:10;stroke-width:2.1334245930349174px"/><path d="M686.38,399.11c6.79-6.62,14-7.6,21.67-.25l-6.87,3.44-4,.9-4.75-1Z" transform="translate(0.35 -1.4)" style="fill:#e63149"/><path d="M673,373.85c3,13.16,11.2,33.11,28.45,28.53.9-.41,2.12-.74,3-1.06,5.23-2.7,8.83-7.12,11.28-12.51a55.43,55.43,0,0,0,4-12.18" transform="translate(0.35 -1.4)" style="fill:none;stroke:#000;stroke-linecap:round;stroke-miterlimit:10;stroke-width:2.1334245930349174px"/><polygon points="707.83 382.18 712.41 376.86 713.8 375.64 706.93 374.82 707.83 382.18" style="fill:#fff"/><path d="M680.74,375.56l1.15,1.23,3.92,5.8,1.72-7.11A26.57,26.57,0,0,1,680.74,375.56Z" transform="translate(0.35 -1.4)" style="fill:#fff"/><path d="M656.22,361.75a4.8,4.8,0,0,0,.49,2.86,8.26,8.26,0,0,0,1.8,2.29,19.85,19.85,0,0,0,5,3.19,39.58,39.58,0,0,0,11.53,3.1,44,44,0,0,0,11.85,0,25.37,25.37,0,0,0,5.65-1.47,11.92,11.92,0,0,0,2.45-1.31,6.23,6.23,0,0,0,1.72-1.88l.89-1.63,1,1.63a6.62,6.62,0,0,0,1.79,2A15.43,15.43,0,0,0,702.9,372a26.94,26.94,0,0,0,5.8,2,36.76,36.76,0,0,0,6.14,1,51.46,51.46,0,0,0,6.21.16,43.81,43.81,0,0,0,12.26-1.8,20.58,20.58,0,0,0,5.64-2.53,10.78,10.78,0,0,0,2.29-2,4.48,4.48,0,0,0,1-2.87,4.67,4.67,0,0,1-.65,3.11,8.58,8.58,0,0,1-2.21,2.37,22.14,22.14,0,0,1-5.64,3,46.78,46.78,0,0,1-12.59,2.53,48.38,48.38,0,0,1-12.84-.9,27.73,27.73,0,0,1-6.21-2,18,18,0,0,1-2.94-1.72,9,9,0,0,1-2.37-2.61h1.88a7.78,7.78,0,0,1-2.37,2.53,14.2,14.2,0,0,1-2.86,1.55,23.32,23.32,0,0,1-6.14,1.48,41.71,41.71,0,0,1-12.34-.41,38.36,38.36,0,0,1-11.69-3.85,18.18,18.18,0,0,1-5-3.68,8,8,0,0,1-1.72-2.61A3.43,3.43,0,0,1,656.22,361.75Z" transform="translate(0.35 -1.4)"/><path d="M726.28,361.09a1.6,1.6,0,0,0,0-3.19,1.6,1.6,0,0,0,0,3.19Z" transform="translate(0.35 -1.4)"/><path d="M727.92,370.49a1.59,1.59,0,0,0,0-3.18,1.59,1.59,0,0,0,0,3.18Z" transform="translate(0.35 -1.4)"/><path d="M718.35,365.83a1.59,1.59,0,0,0,0-3.18,1.59,1.59,0,0,0,0,3.18Z" transform="translate(0.35 -1.4)"/><path d="M668.4,359.05a1.6,1.6,0,0,0,0-3.19c-2-.08-2,3.19,0,3.19Z" transform="translate(0.35 -1.4)"/><path d="M665.78,368.12a1.59,1.59,0,0,0,0-3.18,1.59,1.59,0,1,0,0,3.18Z" transform="translate(0.35 -1.4)"/><path d="M675.76,364.61a1.6,1.6,0,0,0,0-3.19,1.6,1.6,0,0,0,0,3.19Z" transform="translate(0.35 -1.4)"/><path d="M582.72,355.37c23-5.64,60.09-2.21,66,5.15C627.19,353,605.12,351.69,582.72,355.37Z" transform="translate(0.35 -1.4)"/><path d="M642.32,365.83A147.7,147.7,0,0,0,586.15,368C604.71,363.14,623.43,360.19,642.32,365.83Z" transform="translate(0.35 -1.4)"/><path d="M649.59,372.38c-7.19.81-14,1.22-20.52,2.53s-13,3.27-19.45,5C617.55,374.42,643.46,369.35,649.59,372.38Z" transform="translate(0.35 -1.4)"/><path d="M814.25,364c-22.24-8.17-59.52-8.83-66.14-2.12C770.35,356.76,792.42,357.9,814.25,364Z" transform="translate(0.35 -1.4)"/><path d="M753.83,367.8a146,146,0,0,1,55.6,8.42C791.52,369.27,773.29,364.36,753.83,367.8Z" transform="translate(0.35 -1.4)"/><path d="M745.9,373.52c7.12,1.64,13.74,2.78,20.11,4.74s12.51,4.66,18.81,7.11C777.62,379.08,752.36,371.23,745.9,373.52Z" transform="translate(0.35 -1.4)"/><path d="M636.43,285.14a37.4,37.4,0,0,1-.16-14.47,3.39,3.39,0,0,1,.57-1.06A2,2,0,0,1,637,269a18.11,18.11,0,0,0,1.88-7.44c-10.87-5.4-17.25-5.07-9.15,13.49-10.06-3.68-14.88-1.64-8,13.08l.73,1.47-17.9,19,17.33,1.55,14.55-24.36Z" transform="translate(0.35 -1.4)" style="fill:#3c344b"/><path d="M621.06,288.08c-6.95-14.71-2.12-16.76,8-13.08-8.17-18.72-1.63-18.88,9.41-13.32" transform="translate(0.35 -1.4)" style="fill:none;stroke:#000;stroke-linecap:round;stroke-miterlimit:10;stroke-width:2.1334245930349174px"/><path d="M603.89,308.52l17.91-19-.74-1.48" transform="translate(0.35 -1.4)" style="fill:none;stroke:#000;stroke-linecap:round;stroke-miterlimit:10;stroke-width:2.1334245930349174px"/><path d="M759.15,260.53c11.12-5.31,17.66-4.9,9.07,13.57,10.47-3.51,15.29-1.22,6.95,14.72l17.42,19.38-14.88-1.39-22-35.16Z" transform="translate(0.35 -1.4)" style="fill:#3c344b"/><path d="M792.83,308.36,775.42,289c8.34-15.86,3.51-18.23-6.95-14.71,8.58-18.48,2.12-18.89-9.08-13.57" transform="translate(0.35 -1.4)" style="fill:none;stroke:#000;stroke-linecap:round;stroke-miterlimit:10;stroke-width:2.1334245930349174px"/><polygon points="715.43 544.22 759.66 508.9 647.9 502.03 645.86 535.63 715.43 544.22" style="fill:#a2a5a5;stroke:#000;stroke-miterlimit:10;stroke-width:2.1334245930349174px"/><path d="M734.38,439.25c-3.44,10.22-7,23.47-10.47,38.35a30,30,0,0,0-6.87,5l-4.17-.82c-10.79,3.93-6.62,19.22,3.36,15.62-2.21,8.09,5.06,15.62,15.45,10.3,2.2,9.16,18.23,7.2,13.57-6.13a31.17,31.17,0,0,0,1.8-8.26c.24-1.14.32-2.37.49-3.76,11.36-7.27,17.17-18.48,20.93-31.07l-1.39-.24" transform="translate(0.35 -1.4)" style="fill:#3c344b;stroke:#000;stroke-miterlimit:10;stroke-width:2.1334245930349174px"/><polygon points="704.15 539.07 730.56 519.53 644.79 514.38 704.15 539.07" style="fill:#a2a5a5;stroke:#000;stroke-miterlimit:10;stroke-width:2.1334245930349174px"/><polygon points="543.66 400.57 709.95 418.39 712 543.56 546.77 524.02 543.66 400.57" style="stroke:#000;stroke-miterlimit:10;stroke-width:2.1334245930349174px;fill:url(#a)"/><path d="M767.08,544.23c39.4,33.52,74.23-66.14,112.74-8.59,13.33-39.73,3.51-63.2-37.45-64.59-30.24,4.5-38.75,51.67-63.68,58.13l-12.76,15.7" transform="translate(0.35 -1.4)" style="fill:#3c344b;stroke:#000;stroke-miterlimit:10;stroke-width:2.1334245930349174px"/><path d="M690.64,528.53c0-.25-.09-.49-.09-.74a68.71,68.71,0,0,0-1.3-12,5.59,5.59,0,0,1,.57-1c3.84-7.35,3.92-16.67.24-20.76-2.78-3.11-6.86-2.37-10.38,1.14-1.14-5.39-4.25-9.32-7.85-9.32a5.42,5.42,0,0,0-3.68,1.47,5.88,5.88,0,0,0-1.31,1.15,11,11,0,0,0-2.28,4.58,23.3,23.3,0,0,0-.9,3.84c-3.68-4.17-8.1-5.07-11-1.8-3.76,4.17-3.68,13.41.24,20.77a20,20,0,0,0,1.64,2.61,73.18,73.18,0,0,0-2.53,11c-1.56,10.47-1.07,20.6,1.14,28.62a21.57,21.57,0,0,0,7.52,14.06,12.26,12.26,0,0,0,4.17,2.45,15.86,15.86,0,0,0,6.21,1.23c7.61,0,14.07-5.4,16.76-13C691.21,554.36,692.6,541.69,690.64,528.53Z" transform="translate(0.35 -1.4)" style="fill:#3c344b;stroke:#000;stroke-miterlimit:10;stroke-width:2.1334245930349174px"/><ellipse cx="670.36" cy="541.37" rx="8.75" ry="16.6" transform="translate(-1.19 0.51) rotate(-0.16)" style="fill:#ed9ea5;stroke:#000;stroke-miterlimit:10.0000406726332;stroke-width:2.1334332702344985px"/><ellipse cx="659.95" cy="509.58" rx="4.91" ry="9.81" transform="translate(-126.89 233.35) rotate(-18.43)" style="fill:#ed9ea5;stroke:#000;stroke-miterlimit:9.99975460344626;stroke-width:2.1333722395306407px"/><ellipse cx="681.92" cy="510.44" rx="10.22" ry="4.66" transform="matrix(0.21, -0.98, 0.98, 0.21, 42.08, 1070.93)" style="fill:#ed9ea5;stroke:#000;stroke-miterlimit:10.0003161434556;stroke-width:2.1334920398572286px"/><ellipse cx="671.51" cy="504.22" rx="10.55" ry="4.58" transform="translate(135.14 1148.64) rotate(-87.17)" style="fill:#ed9ea5;stroke:#000;stroke-miterlimit:10.0001683455308;stroke-width:2.1334605082844655px"/><path d="M814.5,283.26a38,38,0,0,0-9.08-.57c-20.6.65-40.3,5.56-59.93,11.61-8.66,2.7-16.84,6.7-25.59,9.16-6.94,2-14.06,3.76-21.33,3.1a67.13,67.13,0,0,1-21.83-5.72C663.08,294.71,649.35,289,635,284.73c-13.49-4-27.06-7.19-41.21-7.93-1.14,0-2.37-.08-3.51-.08-1,0-2,.16-3,.25-3.67.57-5.15,2.69-4.66,6.37.49,4.17,2.46,7.85,3.44,11.78,3,11.69,6.46,23.21,12.26,33.92,7.69,14.23,18.07,25.68,34,30.91,14.64,4.82,28.37,3.27,40.72-6.38,6-4.66,9.81-11.2,13.81-17.49,2.7-4.26,5.32-8.59,9.24-11.86,2.94-2.45,4.66-2.45,7.44.25a24.13,24.13,0,0,1,3.27,3.84c4,5.48,6.79,11.77,10.38,17.58,8.51,13.57,21,20.27,36.79,19.78,16.6-.57,29.76-8.5,40.15-21.26,8.09-9.89,13.41-21.25,17.66-33.19,2.53-7,5.07-14.06,7.27-21.17C820.06,286.29,818.26,284,814.5,283.26ZM644.69,353.49a49,49,0,0,1-18.23-5.23c-5.4-2.78-9.57-7.36-13.25-12.18-9.15-12-14.14-25.84-16.27-40.64-.65-4.17,1.23-6,5.48-5.64,6.62.49,13.08,2,19.62,3.19,11.12,2,22.24,4.42,33,8.26,12.18,4.41,17.82,13.81,19.38,25.91C676.9,345.64,662.35,354.14,644.69,353.49ZM804,301.33c-4.33,19.46-12.26,36.87-29,49.05-4.58,3.27-10,4.34-15.29,5.4a38.68,38.68,0,0,1-8.75.82,33.36,33.36,0,0,1-14.88-3.44c-8.17-4.33-12.1-11.28-11.69-20.35a33,33,0,0,1,10.79-23.39c4.17-3.84,9.4-5.39,14.72-6.7,12.83-3.35,26-4.91,39.24-6.46,3.27-.33,6.46-1,9.81-.9C803.13,295.36,804.93,297.16,804,301.33Z" transform="translate(0.35 -1.4)" style="fill:#7e4795;stroke:#000;stroke-miterlimit:10;stroke-width:2.09459054550453px"/><path d="M636.59,483c9.57,10.22.5,19.3-6.21,6.05-.9,10.87-8.26,12.76-9.24.66-1,9.89-10.22,8.09-6.21-2.38-6.95,12.1-21,7.36-5.23-5.56-18.32-.16-27.88-27.63.81-38.58C659.24,430.18,667.25,478.17,636.59,483Z" transform="translate(0.35 -1.4)" style="fill:#fff;stroke:#000;stroke-miterlimit:10;stroke-width:2.1334245930349174px"/><ellipse cx="633.52" cy="462.63" rx="5.97" ry="10.79" transform="translate(-91.43 162.37) rotate(-13.74)"/><ellipse cx="614.31" cy="465.69" rx="8.26" ry="4.58" transform="translate(-95.8 763.44) rotate(-60)"/><path d="M621.14,477.1c-.41-2.86.82-4.82,3.85-5.88C625.23,474.65,624.17,476.86,621.14,477.1Z" transform="translate(0.35 -1.4)"/><path d="M627.77,477.84c-1.72-.65-2.21-2.21-1.39-4.74C628.26,474.16,629,475.63,627.77,477.84Z" transform="translate(0.35 -1.4)"/><path d="M603.07,516.67c0-.24-.08-.49-.08-.73a68.93,68.93,0,0,0-1.3-12,5.52,5.52,0,0,1,.57-1c3.84-7.36,3.92-16.68.24-20.77-2.78-3.1-6.86-2.37-10.38,1.15-1.14-5.4-4.25-9.32-7.85-9.32a5.4,5.4,0,0,0-3.68,1.47,5.83,5.83,0,0,0-1.31,1.14,11.16,11.16,0,0,0-2.29,4.58,24.8,24.8,0,0,0-.89,3.85c-3.68-4.17-8.1-5.07-11-1.8-3.76,4.17-3.68,13.4.24,20.76a20.87,20.87,0,0,0,1.64,2.62,73.83,73.83,0,0,0-2.54,11c-1.55,10.46-1.06,20.6,1.15,28.61a21.47,21.47,0,0,0,7.52,14.06,12.3,12.3,0,0,0,4.17,2.46,16,16,0,0,0,6.21,1.22c7.61,0,14.07-5.39,16.76-13C603.65,542.51,605,529.92,603.07,516.67Z" transform="translate(0.35 -1.4)" style="fill:#3c344b;stroke:#000;stroke-miterlimit:10;stroke-width:2.1334245930349174px"/><ellipse cx="582.8" cy="529.51" rx="8.75" ry="16.6" transform="translate(-1.16 0.26) rotate(-0.16)" style="fill:#ed9ea5;stroke:#000;stroke-miterlimit:10.0000406726332;stroke-width:2.1334332702344985px"/><ellipse cx="572.46" cy="497.7" rx="4.91" ry="9.81" transform="translate(-127.62 205.08) rotate(-18.43)" style="fill:#ed9ea5;stroke:#000;stroke-miterlimit:9.99975460344626;stroke-width:2.1333722395306407px"/><ellipse cx="594.43" cy="498.64" rx="10.22" ry="4.66" transform="translate(-15.81 975.96) rotate(-78.09)" style="fill:#ed9ea5;stroke:#000;stroke-miterlimit:10.0003161434556;stroke-width:2.1334920398572286px"/><ellipse cx="583.94" cy="492.4" rx="10.55" ry="4.58" transform="translate(63.69 1049.95) rotate(-87.17)" style="fill:#ed9ea5;stroke:#000;stroke-miterlimit:10.0001683455308;stroke-width:2.1334605082844655px"/><g style="opacity:0.89"><path d="M168.64,449.14c7.39,5.82,8.28,15.36,4.73,18.44s-13.77,1.32-17.59-7.27c-2.92-6.56-6.15-19-4.73-18.44C153,442.65,161.76,443.73,168.64,449.14Z" transform="translate(0.35 -1.4)" style="fill:none;stroke:#7e4795;stroke-miterlimit:10"/><path d="M195.47,460.38c-4.7,8.14-14,10.39-17.57,7.31s-3.27-13.44,4.68-18.45c6.08-3.82,17.94-8.79,17.58-7.31C199.67,444,199.85,452.8,195.47,460.38Z" transform="translate(0.35 -1.4)" style="fill:none;stroke:#7e4795;stroke-miterlimit:10"/><path d="M183.48,489c-7.67-5.44-9-14.92-5.66-18.18s13.69-2,17.94,6.37c3.25,6.4,7.1,18.66,5.66,18.17C199.44,494.67,190.63,494,183.48,489Z" transform="translate(0.35 -1.4)" style="fill:none;stroke:#7e4795;stroke-miterlimit:10"/><path d="M156.11,479.11c4.28-8.37,13.47-11.08,17.18-8.19s4,13.26-3.74,18.66c-5.87,4.13-17.46,9.7-17.18,8.2C152.75,495.72,152.13,486.91,156.11,479.11Z" transform="translate(0.35 -1.4)" style="fill:none;stroke:#7e4795;stroke-miterlimit:10"/><path d="M175.34,457.57l1.32,141.87" transform="translate(0.35 -1.4)" style="fill:none;stroke:#7e4795;stroke-miterlimit:10"/><circle cx="151.06" cy="514.96" r="4.93" style="fill:none;stroke:#7e4795;stroke-miterlimit:10"/><circle cx="201.64" cy="514.96" r="4.93" style="fill:none;stroke:#7e4795;stroke-miterlimit:10"/><line x1="156.64" y1="514.96" x2="196.05" y2="514.96" style="fill:none;stroke:#7e4795;stroke-miterlimit:10"/><circle cx="151.72" cy="535.32" r="4.93" style="fill:none;stroke:#7e4795;stroke-miterlimit:10"/><circle cx="202.29" cy="535.32" r="4.93" style="fill:none;stroke:#7e4795;stroke-miterlimit:10"/><line x1="157.3" y1="535.32" x2="196.71" y2="535.32" style="fill:none;stroke:#7e4795;stroke-miterlimit:10"/><circle cx="151.72" cy="555.68" r="4.93" style="fill:none;stroke:#7e4795;stroke-miterlimit:10"/><circle cx="202.29" cy="555.68" r="4.93" style="fill:none;stroke:#7e4795;stroke-miterlimit:10"/><line x1="157.3" y1="555.68" x2="196.71" y2="555.68" style="fill:none;stroke:#7e4795;stroke-miterlimit:10"/><circle cx="484.4" cy="527.11" r="10.51" style="fill:none;stroke:#7e4795;stroke-miterlimit:10"/><circle cx="484.07" cy="527.11" r="20.69" style="fill:none;stroke:#7e4795;stroke-miterlimit:10"/><circle cx="285.38" cy="492.29" r="3.94" style="fill:none;stroke:#7e4795;stroke-miterlimit:10"/><circle cx="270.28" cy="486.38" r="3.94" style="fill:none;stroke:#7e4795;stroke-miterlimit:10"/><circle cx="247.29" cy="512" r="3.94" style="fill:none;stroke:#7e4795;stroke-miterlimit:10"/><circle cx="255.17" cy="529.73" r="3.94" style="fill:none;stroke:#7e4795;stroke-miterlimit:10"/><circle cx="284.73" cy="529.73" r="3.94" style="fill:none;stroke:#7e4795;stroke-miterlimit:10"/><circle cx="292.61" cy="510.69" r="3.94" style="fill:none;stroke:#7e4795;stroke-miterlimit:10"/><circle cx="254.51" cy="492.29" r="3.94" style="fill:none;stroke:#7e4795;stroke-miterlimit:10"/><line x1="270.28" y1="490.65" x2="270.28" y2="598.37" style="fill:none;stroke:#7e4795;stroke-miterlimit:10"/><line x1="256.76" y1="496.24" x2="282.1" y2="527.11" style="fill:none;stroke:#7e4795;stroke-miterlimit:10"/><line x1="289.32" y1="512.33" x2="251.23" y2="512.33" style="fill:none;stroke:#7e4795;stroke-miterlimit:10"/><line x1="257.8" y1="526.45" x2="283.3" y2="495.64" style="fill:none;stroke:#7e4795;stroke-miterlimit:10"/><line x1="50.24" y1="500.51" x2="50.24" y2="540.57" style="fill:none;stroke:#7e4795;stroke-miterlimit:10"/><line x1="66.66" y1="521.52" x2="35.13" y2="521.52" style="fill:none;stroke:#7e4795;stroke-miterlimit:10"/><line x1="39.07" y1="507.4" x2="62.06" y2="534.99" style="fill:none;stroke:#7e4795;stroke-miterlimit:10"/><line x1="62.06" y1="506.09" x2="39.07" y2="533.67" style="fill:none;stroke:#7e4795;stroke-miterlimit:10"/><circle cx="71.59" cy="520.87" r="3.94" style="fill:none;stroke:#7e4795;stroke-miterlimit:10"/><circle cx="31.19" cy="521.2" r="3.94" style="fill:none;stroke:#7e4795;stroke-miterlimit:10"/><circle cx="35.13" cy="503.46" r="3.94" style="fill:none;stroke:#7e4795;stroke-miterlimit:10"/><circle cx="64.69" cy="536.96" r="3.94" style="fill:none;stroke:#7e4795;stroke-miterlimit:10"/><circle cx="50.24" cy="496.24" r="3.94" style="fill:none;stroke:#7e4795;stroke-miterlimit:10"/><circle cx="64.03" cy="503.46" r="3.94" style="fill:none;stroke:#7e4795;stroke-miterlimit:10"/><circle cx="50.24" cy="544.18" r="3.94" style="fill:none;stroke:#7e4795;stroke-miterlimit:10"/><circle cx="35.13" cy="535.65" r="3.94" style="fill:none;stroke:#7e4795;stroke-miterlimit:10"/><path d="M331.67,479.24C334,468.1,321.14,460.53,312,457.57,310.62,470.41,317.76,483,331.67,479.24Z" transform="translate(0.35 -1.4)" style="fill:none;stroke:#7e4795;stroke-miterlimit:10"/><circle cx="383.58" cy="493.94" r="4.93" style="fill:none;stroke:#7e4795;stroke-miterlimit:10"/><circle cx="426.6" cy="521.85" r="5.25" style="fill:none;stroke:#7e4795;stroke-miterlimit:10"/><circle cx="383.58" cy="549.11" r="4.93" style="fill:none;stroke:#7e4795;stroke-miterlimit:10"/><line x1="403.61" y1="436.14" x2="403.61" y2="598.37" style="fill:none;stroke:#7e4795;stroke-miterlimit:10"/><path d="M403.92,458.23c11.51-1,18.77,2,18.39-13.14-13.54,1.13-20.71-5.7-18.39,13.14" transform="translate(0.35 -1.4)" style="fill:none;stroke:#7e4795;stroke-miterlimit:10"/><path d="M403.92,458.23c11.51-1,18.77,2,18.39-13.14C408.77,446.22,401.6,439.39,403.92,458.23Z" transform="translate(0.35 -1.4)" style="fill:none;stroke:#7e4795;stroke-miterlimit:10"/><path d="M403.26,441.15c-8.64.06-12.28,2-13.13-8.54,6.75-.2,15.27-1.4,13.13,8.54" transform="translate(0.35 -1.4)" style="fill:none;stroke:#7e4795;stroke-miterlimit:10"/><path d="M403.26,441.15c-8.64.06-12.28,2-13.13-8.54C396.88,432.41,405.4,431.21,403.26,441.15Z" transform="translate(0.35 -1.4)" style="fill:none;stroke:#7e4795;stroke-miterlimit:10"/><path d="M333,478.84c9.09-.29,13-10.63,13.93-17.59C336.7,462.51,328,469.69,333,478.84Z" transform="translate(0.35 -1.4)" style="fill:none;stroke:#7e4795;stroke-miterlimit:10"/><path d="M528.72,473.33c0-11.61-7.56-11.16-15.77-11.82-2,14.44,4.81,11.67,15.77,13.14Z" transform="translate(0.35 -1.4)" style="fill:none;stroke:#7e4795;stroke-miterlimit:10"/><path d="M528.72,473.33c0-11.61-7.56-11.16-15.77-11.82-2,14.44,4.81,11.67,15.77,13.14Z" transform="translate(0.35 -1.4)" style="fill:none;stroke:#7e4795;stroke-miterlimit:10"/><path d="M545.79,464.14c-7.08-.43-19.24-.56-17.07,9.85v1.31C537,476.21,547.11,475.15,545.79,464.14Z" transform="translate(0.35 -1.4)" style="fill:none;stroke:#7e4795;stroke-miterlimit:10"/><path d="M528.72,474c-2.17-10.41,10-10.28,17.07-9.85,1.32,11-8.81,12.07-17.07,11.16" transform="translate(0.35 -1.4)" style="fill:none;stroke:#7e4795;stroke-miterlimit:10"/><path d="M103.09,555.44c-1.29-6.82,4.93-13.59,11.83-13.14C116.46,549.5,110.55,556.54,103.09,555.44Z" transform="translate(0.35 -1.4)" style="fill:none;stroke:#7e4795;stroke-miterlimit:10"/></g><g style="opacity:0.89"><path d="M1048.07,447.21c7.39,5.82,8.28,15.36,4.73,18.44s-13.77,1.32-17.59-7.27c-2.92-6.55-6.15-19-4.73-18.44C1032.42,440.72,1041.19,441.8,1048.07,447.21Z" transform="translate(0.35 -1.4)" style="fill:none;stroke:#7e4795;stroke-miterlimit:10"/><path d="M1074.9,458.45c-4.7,8.14-14,10.39-17.57,7.31s-3.27-13.44,4.68-18.45c6.08-3.82,17.93-8.79,17.58-7.31C1079.1,442,1079.28,450.87,1074.9,458.45Z" transform="translate(0.35 -1.4)" style="fill:none;stroke:#7e4795;stroke-miterlimit:10"/><path d="M1062.91,487.05c-7.67-5.43-9.05-14.92-5.66-18.18s13.68-2,17.94,6.37c3.25,6.4,7.1,18.66,5.66,18.17C1078.86,492.74,1070.05,492.1,1062.91,487.05Z" transform="translate(0.35 -1.4)" style="fill:none;stroke:#7e4795;stroke-miterlimit:10"/><path d="M1035.54,477.19c4.28-8.37,13.47-11.09,17.18-8.2s4,13.26-3.74,18.67c-5.87,4.12-17.46,9.69-17.18,8.19C1032.18,493.79,1031.55,485,1035.54,477.19Z" transform="translate(0.35 -1.4)" style="fill:none;stroke:#7e4795;stroke-miterlimit:10"/><path d="M1054.77,455.64l1.32,141.88" transform="translate(0.35 -1.4)" style="fill:none;stroke:#7e4795;stroke-miterlimit:10"/><circle cx="1030.49" cy="513.03" r="4.93" style="fill:none;stroke:#7e4795;stroke-miterlimit:10"/><circle cx="1081.07" cy="513.03" r="4.93" style="fill:none;stroke:#7e4795;stroke-miterlimit:10"/><line x1="1036.07" y1="513.03" x2="1075.48" y2="513.03" style="fill:none;stroke:#7e4795;stroke-miterlimit:10"/><circle cx="1031.15" cy="533.39" r="4.93" style="fill:none;stroke:#7e4795;stroke-miterlimit:10"/><circle cx="1081.72" cy="533.39" r="4.93" style="fill:none;stroke:#7e4795;stroke-miterlimit:10"/><line x1="1036.73" y1="533.39" x2="1076.14" y2="533.39" style="fill:none;stroke:#7e4795;stroke-miterlimit:10"/><circle cx="1031.15" cy="553.75" r="4.93" style="fill:none;stroke:#7e4795;stroke-miterlimit:10"/><circle cx="1081.72" cy="553.75" r="4.93" style="fill:none;stroke:#7e4795;stroke-miterlimit:10"/><line x1="1036.73" y1="553.75" x2="1076.14" y2="553.75" style="fill:none;stroke:#7e4795;stroke-miterlimit:10"/><circle cx="1363.83" cy="525.18" r="10.51" style="fill:none;stroke:#7e4795;stroke-miterlimit:10"/><circle cx="1363.5" cy="525.18" r="20.69" style="fill:none;stroke:#7e4795;stroke-miterlimit:10"/><circle cx="1164.81" cy="490.37" r="3.94" style="fill:none;stroke:#7e4795;stroke-miterlimit:10"/><circle cx="1149.7" cy="484.45" r="3.94" style="fill:none;stroke:#7e4795;stroke-miterlimit:10"/><circle cx="1126.72" cy="510.07" r="3.94" style="fill:none;stroke:#7e4795;stroke-miterlimit:10"/><circle cx="1134.6" cy="527.81" r="3.94" style="fill:none;stroke:#7e4795;stroke-miterlimit:10"/><circle cx="1164.15" cy="527.81" r="3.94" style="fill:none;stroke:#7e4795;stroke-miterlimit:10"/><circle cx="1172.04" cy="508.76" r="3.94" style="fill:none;stroke:#7e4795;stroke-miterlimit:10"/><circle cx="1133.94" cy="490.37" r="3.94" style="fill:none;stroke:#7e4795;stroke-miterlimit:10"/><line x1="1149.7" y1="488.72" x2="1149.7" y2="596.44" style="fill:none;stroke:#7e4795;stroke-miterlimit:10"/><line x1="1136.19" y1="494.31" x2="1161.53" y2="525.18" style="fill:none;stroke:#7e4795;stroke-miterlimit:10"/><line x1="1168.75" y1="510.4" x2="1130.66" y2="510.4" style="fill:none;stroke:#7e4795;stroke-miterlimit:10"/><line x1="1137.22" y1="524.52" x2="1162.73" y2="493.71" style="fill:none;stroke:#7e4795;stroke-miterlimit:10"/><line x1="929.67" y1="498.58" x2="929.67" y2="538.64" style="fill:none;stroke:#7e4795;stroke-miterlimit:10"/><line x1="946.09" y1="519.6" x2="914.56" y2="519.6" style="fill:none;stroke:#7e4795;stroke-miterlimit:10"/><line x1="918.5" y1="505.47" x2="941.49" y2="533.06" style="fill:none;stroke:#7e4795;stroke-miterlimit:10"/><line x1="941.49" y1="504.16" x2="918.5" y2="531.75" style="fill:none;stroke:#7e4795;stroke-miterlimit:10"/><circle cx="951.01" cy="518.94" r="3.94" style="fill:none;stroke:#7e4795;stroke-miterlimit:10"/><circle cx="910.62" cy="519.27" r="3.94" style="fill:none;stroke:#7e4795;stroke-miterlimit:10"/><circle cx="914.56" cy="501.53" r="3.94" style="fill:none;stroke:#7e4795;stroke-miterlimit:10"/><circle cx="944.12" cy="535.03" r="3.94" style="fill:none;stroke:#7e4795;stroke-miterlimit:10"/><circle cx="929.67" cy="494.31" r="3.94" style="fill:none;stroke:#7e4795;stroke-miterlimit:10"/><circle cx="943.46" cy="501.53" r="3.94" style="fill:none;stroke:#7e4795;stroke-miterlimit:10"/><circle cx="929.67" cy="542.26" r="3.94" style="fill:none;stroke:#7e4795;stroke-miterlimit:10"/><circle cx="914.56" cy="533.72" r="3.94" style="fill:none;stroke:#7e4795;stroke-miterlimit:10"/><path d="M1211.1,477.32c2.32-11.15-10.53-18.72-19.71-21.68C1190,468.48,1197.18,481,1211.1,477.32Z" transform="translate(0.35 -1.4)" style="fill:none;stroke:#7e4795;stroke-miterlimit:10"/><circle cx="1263.01" cy="492.01" r="4.93" style="fill:none;stroke:#7e4795;stroke-miterlimit:10"/><circle cx="1306.03" cy="519.92" r="5.25" style="fill:none;stroke:#7e4795;stroke-miterlimit:10"/><circle cx="1263.01" cy="547.18" r="4.93" style="fill:none;stroke:#7e4795;stroke-miterlimit:10"/><line x1="1283.04" y1="434.21" x2="1283.04" y2="596.44" style="fill:none;stroke:#7e4795;stroke-miterlimit:10"/><path d="M1283.35,456.3c11.51-1,18.77,2,18.39-13.14-13.54,1.13-20.71-5.7-18.39,13.14" transform="translate(0.35 -1.4)" style="fill:none;stroke:#7e4795;stroke-miterlimit:10"/><path d="M1283.35,456.3c11.51-1,18.77,2,18.39-13.14C1288.2,444.29,1281,437.46,1283.35,456.3Z" transform="translate(0.35 -1.4)" style="fill:none;stroke:#7e4795;stroke-miterlimit:10"/><path d="M1282.69,439.22c-8.64.06-12.28,2-13.13-8.54,6.75-.2,15.27-1.39,13.13,8.54" transform="translate(0.35 -1.4)" style="fill:none;stroke:#7e4795;stroke-miterlimit:10"/><path d="M1282.69,439.22c-8.64.06-12.28,2-13.13-8.54C1276.31,430.48,1284.83,429.29,1282.69,439.22Z" transform="translate(0.35 -1.4)" style="fill:none;stroke:#7e4795;stroke-miterlimit:10"/><path d="M1212.47,476.91c9.09-.28,13-10.63,13.93-17.59C1216.13,460.58,1207.41,467.76,1212.47,476.91Z" transform="translate(0.35 -1.4)" style="fill:none;stroke:#7e4795;stroke-miterlimit:10"/><path d="M1408.14,471.4c0-11.61-7.55-11.16-15.76-11.82-2,14.44,4.81,11.67,15.76,13.14Z" transform="translate(0.35 -1.4)" style="fill:none;stroke:#7e4795;stroke-miterlimit:10"/><path d="M1408.14,471.4c0-11.61-7.55-11.16-15.76-11.82-2,14.44,4.81,11.67,15.76,13.14Z" transform="translate(0.35 -1.4)" style="fill:none;stroke:#7e4795;stroke-miterlimit:10"/><path d="M1425.22,462.21c-7.08-.43-19.24-.56-17.08,9.85v1.31C1416.41,474.28,1426.54,473.22,1425.22,462.21Z" transform="translate(0.35 -1.4)" style="fill:none;stroke:#7e4795;stroke-miterlimit:10"/><path d="M1408.14,472.06c-2.16-10.41,10-10.28,17.08-9.85,1.32,11-8.81,12.07-17.08,11.16" transform="translate(0.35 -1.4)" style="fill:none;stroke:#7e4795;stroke-miterlimit:10"/><path d="M982.52,553.51c-1.29-6.82,4.93-13.59,11.82-13.14C995.89,547.57,990,554.61,982.52,553.51Z" transform="translate(0.35 -1.4)" style="fill:none;stroke:#7e4795;stroke-miterlimit:10"/></g><rect x="71.32" y="257.72" width="460" height="122.46" style="fill:#101010;stroke:#3a313b;stroke-miterlimit:10;stroke-width:0.5px"/><rect x="278.14" y="256.1" width="71.14" height="6.43" style="fill:#101010"/><g style="isolation:isolate"><text transform="translate(214.59 309.38) scale(0.97 1)" style="isolation:isolate;font-size:30px;fill:#fff;font-family:Lato-Light, Lato;font-weight:300">R<tspan x="18.93" y="0" style="letter-spacing:-0.00897699234010649em">e</tspan><tspan x="33.99" y="0">visa mi repo </tspan></text><text transform="translate(132.43 352.58) scale(0.97 1)" style="isolation:isolate;font-size:30px;fill:#fff;font-family:Lato-Light, Lato;font-weight:300"><tspan xml:space="preserve">y descubre  cosas geniales.</tspan></text></g><path d="M276.6,258.75l-.35.57m74.22-.25c-.88-1.52-1.87-3.09-2.93-4.7,1.2,0,1.7-.4,1.7-.9.1-1.1-1.7-3-2.8-5,2.4-2.1,3.7-5.3,3.9-9.7a13.33,13.33,0,0,0,0-2c-.8-11.4-2.7-18.6-5.6-22-.4-1.9-14.9,8.8-18.7,15.1v.1h-.8a8.58,8.58,0,0,0-2.2-.2,7.61,7.61,0,0,0,1-3.1c.2-2.7-4-.4-8.3,2.1a3.8,3.8,0,0,0,.6-1.8c.2-2.9-6.2-.4-14.4,3.5h-.3v-.1c-3.7-6.4-17.9-17.5-18.4-15.6-3,3.4-5,10.5-6.1,21.9v.1h0c-.2,5.3,1,9.2,3.7,11.6-1.1,1.9-2.9,3.7-2.9,4.8-.1.6.4,1,1.7,1-1.1,1.57-2.13,3.1-3,4.58" transform="translate(0.35 -1.4)" style="fill:#101010;stroke:#3a313b;stroke-miterlimit:10;stroke-width:0.5px"/><text transform="translate(292.61 262.33)" style="font-size:36px;font-family:Lato-Black, Lato;font-weight:800">01</text><path d="M312.42,250.6a21.4,21.4,0,0,1-.73,6,12.46,12.46,0,0,1-2.05,4.18,8.27,8.27,0,0,1-3.09,2.46,9.33,9.33,0,0,1-3.88.81,9.14,9.14,0,0,1-3.86-.81,8.14,8.14,0,0,1-3.07-2.46,12.26,12.26,0,0,1-2-4.18,24.65,24.65,0,0,1,0-11.91,12.17,12.17,0,0,1,2-4.18,8.14,8.14,0,0,1,3.07-2.46,9.29,9.29,0,0,1,3.86-.8,9.49,9.49,0,0,1,3.88.8,8.27,8.27,0,0,1,3.09,2.46,12.37,12.37,0,0,1,2.05,4.18A21.37,21.37,0,0,1,312.42,250.6Zm-5.76,0a23.6,23.6,0,0,0-.34-4.45,9.13,9.13,0,0,0-.91-2.73,3.34,3.34,0,0,0-1.29-1.36,3,3,0,0,0-4.16,1.36,9.2,9.2,0,0,0-.88,2.73,29.42,29.42,0,0,0,0,8.92,9.22,9.22,0,0,0,.88,2.72,3.09,3.09,0,0,0,1.26,1.37,3,3,0,0,0,2.9,0,3.25,3.25,0,0,0,1.29-1.37,9.16,9.16,0,0,0,.91-2.72A23.61,23.61,0,0,0,306.66,250.6Z" transform="translate(0.35 -1.4)" style="fill:url(#b)"/><path d="M317.68,259.69h5V246.46c0-.64,0-1.32,0-2l-3,2.47a2.1,2.1,0,0,1-.57.33,1.66,1.66,0,0,1-.56.1,1.69,1.69,0,0,1-.84-.21,1.83,1.83,0,0,1-.55-.44l-1.76-2.34,8.17-6.86h4.61v22.21h4.32v4H317.68Z" transform="translate(0.35 -1.4)" style="fill:url(#b)"/><rect x="888.92" y="305.3" width="448.7" height="190.42" style="fill:#101010;stroke:#3a313b;stroke-miterlimit:10;stroke-width:0.5px"/><path d="M1155.52,306.93a68,68,0,0,0-4.88-8.19c1.2,0,1.7-.4,1.7-.9.1-1.1-1.7-3-2.8-5,2.4-2.1,3.7-5.3,3.9-9.7a13.33,13.33,0,0,0,0-2c-.8-11.4-2.7-18.6-5.6-22-.4-1.9-14.9,8.8-18.7,15.1v.1h-.8a8.58,8.58,0,0,0-2.2-.2,7.61,7.61,0,0,0,1-3.1c.2-2.7-4-.4-8.3,2.1a3.8,3.8,0,0,0,.6-1.8c.2-2.9-6.2-.4-14.4,3.5h-.3v-.1c-3.7-6.4-17.9-17.5-18.4-15.6-3,3.4-5,10.5-6.1,21.9v.1h0c-.2,5.3,1,9.2,3.7,11.6-1.1,1.9-2.9,3.7-2.9,4.8-.1.6.4,1,1.7,1a64.56,64.56,0,0,0-5.11,8.29" transform="translate(0.35 -1.4)" style="fill:#101010;stroke:#3a313b;stroke-miterlimit:10;stroke-width:0.5px"/><rect x="1080.35" y="305.01" width="71.14" height="6.43" style="fill:#101010"/><g style="isolation:isolate"><text transform="translate(952.11 353.63) scale(0.97 1)" style="isolation:isolate;font-size:30px;fill:#fff;font-family:Lato-Light, Lato;font-weight:300">No dudes en contactarme </text><text transform="translate(952.11 396.83) scale(0.97 1)" style="isolation:isolate;font-size:30px;fill:#fff;font-family:Lato-Light, Lato;font-weight:300">si tienes alguna consulta.</text></g><path d="M1091.14,476.84h-56.9a9.86,9.86,0,0,1-9.9-9.9v-33.8a9.86,9.86,0,0,1,9.9-9.9h56.9a9.86,9.86,0,0,1,9.9,9.9v33.8A9.8,9.8,0,0,1,1091.14,476.84Z" transform="translate(0.35 -1.4)" style="fill:#5f4c99;stroke:#000;stroke-miterlimit:10;stroke-width:2px"/><polyline points="1028.99 423.54 1062.39 451.84 1096.29 422.64" style="fill:#5f4c99;stroke:#000;stroke-miterlimit:10;stroke-width:2px"/><line x1="1028.29" y1="471.74" x2="1051.49" y2="452.54" style="fill:#5f4c99;stroke:#000;stroke-miterlimit:10;stroke-width:2px"/><line x1="1097.29" y1="471.74" x2="1073.79" y2="452.54" style="fill:#5f4c99;stroke:#000;stroke-miterlimit:10;stroke-width:2px"/><circle cx="1172.06" cy="449.63" r="28.13" style="fill:#3dbfef;stroke:#000;stroke-miterlimit:10;stroke-width:1.6995449257913506px"/><path d="M1184.37,441.93c-.34,2-.59,4.25-.93,6.55-.77,5.27-1.62,10.45-2.38,15.72a2.9,2.9,0,0,1-1,2.21,2.43,2.43,0,0,1-2.89.17c-3.49-2.38-7-4.76-10.45-7.23-1-.68-1-1.7-.09-2.63,3-2.89,6-5.86,8.92-8.75.17-.17.34-.26.43-.43a1,1,0,0,0,.08-.68c-.08-.17-.42-.17-.68-.17s-.42.26-.59.34c-4.08,2.64-8.24,5.36-12.24,8.08a5.07,5.07,0,0,1-4.76.68c-1.7-.6-3.4-1.11-5-1.7-.51-.17-1.1-.43-.93-1a1.71,1.71,0,0,1,.93-1.11c9.52-4.08,19-8.07,28.55-12.07C1183,439.21,1184.46,440.06,1184.37,441.93Z" transform="translate(0.35 -1.4)" style="fill:#fff;stroke:#000;stroke-miterlimit:10;stroke-width:1.6995449257913506px"/><text transform="translate(1094.9 307.65)" style="font-size:36px;font-family:Lato-Black, Lato;font-weight:800">03</text><path d="M1114.71,295.93a21.35,21.35,0,0,1-.74,5.95,12.17,12.17,0,0,1-2,4.18,8.26,8.26,0,0,1-3.1,2.47,9.3,9.3,0,0,1-3.88.81,9.18,9.18,0,0,1-3.86-.81,8.32,8.32,0,0,1-3.07-2.47,12.16,12.16,0,0,1-2-4.18,24.65,24.65,0,0,1,0-11.91,12.25,12.25,0,0,1,2-4.18,8.29,8.29,0,0,1,3.07-2.46,9.33,9.33,0,0,1,3.86-.8,9.45,9.45,0,0,1,3.88.8,8.23,8.23,0,0,1,3.1,2.46,12.27,12.27,0,0,1,2,4.18A21.37,21.37,0,0,1,1114.71,295.93Zm-5.76,0a24.51,24.51,0,0,0-.34-4.46,9.13,9.13,0,0,0-.91-2.73,3.34,3.34,0,0,0-1.29-1.36,3.12,3.12,0,0,0-2.91,0,3.29,3.29,0,0,0-1.26,1.36,9.5,9.5,0,0,0-.88,2.73,30.3,30.3,0,0,0,0,8.92,9.72,9.72,0,0,0,.88,2.73,3.23,3.23,0,0,0,1.26,1.36,3,3,0,0,0,2.91,0,3.28,3.28,0,0,0,1.29-1.36,9.34,9.34,0,0,0,.91-2.73A24.43,24.43,0,0,0,1109,295.93Z" transform="translate(0.35 -1.4)" style="fill:url(#d)"/><path d="M1126.77,282.53a10.19,10.19,0,0,1,3.45.55,7.75,7.75,0,0,1,2.56,1.49,6.1,6.1,0,0,1,1.58,2.17,6.41,6.41,0,0,1,.54,2.6,8.38,8.38,0,0,1-.25,2.18,5,5,0,0,1-.74,1.64,4.61,4.61,0,0,1-1.23,1.18,6.75,6.75,0,0,1-1.66.81,5.82,5.82,0,0,1,4.35,5.92,8.24,8.24,0,0,1-.75,3.64,7.48,7.48,0,0,1-2,2.57,8.51,8.51,0,0,1-2.94,1.54,11.94,11.94,0,0,1-3.49.52,12.44,12.44,0,0,1-3.33-.41,7.67,7.67,0,0,1-2.6-1.26,8.4,8.4,0,0,1-2-2.19,14.51,14.51,0,0,1-1.49-3.16l2.48-1a2.77,2.77,0,0,1,.64-.2,3.31,3.31,0,0,1,.62-.05,2.33,2.33,0,0,1,1,.22,1.47,1.47,0,0,1,.69.66,6.68,6.68,0,0,0,1.72,2.17,3.49,3.49,0,0,0,2.13.67,3.89,3.89,0,0,0,1.63-.31,3.65,3.65,0,0,0,1.16-.81,3.54,3.54,0,0,0,.69-1.13,3.76,3.76,0,0,0,.23-1.28,9.94,9.94,0,0,0-.11-1.52,2,2,0,0,0-.66-1.16,3.81,3.81,0,0,0-1.63-.75,14,14,0,0,0-3-.26v-3.85a11.12,11.12,0,0,0,2.64-.25,4.2,4.2,0,0,0,1.56-.69,2.09,2.09,0,0,0,.73-1.07,5.08,5.08,0,0,0,.18-1.39,3.48,3.48,0,0,0-.75-2.39,2.93,2.93,0,0,0-2.28-.83,3.51,3.51,0,0,0-1.15.18,3.41,3.41,0,0,0-.93.48,3.23,3.23,0,0,0-.71.72,3.9,3.9,0,0,0-.48.9,2.62,2.62,0,0,1-.73,1.17,1.83,1.83,0,0,1-1.2.36h-.38l-.43-.06-3-.52a9.7,9.7,0,0,1,1.11-3.42,8.18,8.18,0,0,1,2-2.43,8.29,8.29,0,0,1,2.78-1.45A11.49,11.49,0,0,1,1126.77,282.53Z" transform="translate(0.35 -1.4)" style="fill:url(#d)"/><rect x="218.32" y="46.74" width="989.57" height="132.77" style="fill:#0f0f0f;stroke:#717070;stroke-miterlimit:10;stroke-width:0.5px"/><text transform="translate(281.06 145.37)" style="font-size:100px;font-family:Lato-Black, Lato;font-weight:800">MADE<tspan x="298.3" y="0" style="letter-spacing:-0.119990234375em">L</tspan><tspan x="338.2" y="0">YN ARANA</tspan></text><path d="M325.89,117.42q.92,2.06,1.77,4.2c.57-1.47,1.17-2.89,1.8-4.28s1.28-2.73,2-4l18.7-36.84a6,6,0,0,1,1-1.47,3.43,3.43,0,0,1,1.17-.78,4,4,0,0,1,1.48-.25h14.82v72.8h-14.9v-41.9q0-3,.3-6.6l-19.3,37.45a6.37,6.37,0,0,1-2.42,2.65,6.73,6.73,0,0,1-3.48.9h-2.3a6.67,6.67,0,0,1-3.47-.9,6.33,6.33,0,0,1-2.43-2.65l-19.4-37.5q.19,1.75.3,3.48c.07,1.15.1,2.2.1,3.17v41.9h-14.9V74h14.83a4,4,0,0,1,1.47.25,3.47,3.47,0,0,1,1.18.78,6,6,0,0,1,1,1.47l18.75,37C324.63,114.73,325.27,116.05,325.89,117.42Z" transform="translate(0.35 -1.4)" style="fill:url(#f)"/><path d="M448.41,146.77h-13.1a6.05,6.05,0,0,1-3.62-1,5.35,5.35,0,0,1-2-2.63l-4.3-12.7h-27.7l-4.3,12.7a5.77,5.77,0,0,1-5.5,3.65h-13.2l28.2-72.85h17.3Zm-46.8-27.85h19.9l-6.7-20-1.52-4.47c-.59-1.72-1.16-3.58-1.73-5.58-.53,2-1.08,3.92-1.65,5.65s-1.1,3.23-1.6,4.5Z" transform="translate(0.35 -1.4)" style="fill:url(#f)"/><path d="M520.41,110.32a38.34,38.34,0,0,1-2.72,14.58A34.16,34.16,0,0,1,510,136.45a34.84,34.84,0,0,1-11.92,7.6,42.35,42.35,0,0,1-15.48,2.72h-28.3V73.92h28.3a41.94,41.94,0,0,1,15.48,2.75A35.29,35.29,0,0,1,510,84.27a33.88,33.88,0,0,1,7.68,11.53A38.18,38.18,0,0,1,520.41,110.32Zm-17.3,0a31.84,31.84,0,0,0-1.4-9.75,20.69,20.69,0,0,0-4-7.37,17.45,17.45,0,0,0-6.43-4.65,21.7,21.7,0,0,0-8.65-1.63h-11.3v46.85h11.3a21.87,21.87,0,0,0,8.65-1.62,17.68,17.68,0,0,0,6.43-4.65,20.82,20.82,0,0,0,4-7.38A32,32,0,0,0,503.11,110.32Z" transform="translate(0.35 -1.4)" style="fill:url(#f)"/><path d="M575.41,73.92v13h-29.9v17h22.9v12.5h-22.9v17.35h29.9v13h-46.9V73.92Z" transform="translate(0.35 -1.4)" style="fill:url(#f)"/><path d="M601.91,133.27h27v13.5H585V73.92h16.9Z" transform="translate(0.35 -1.4)" style="fill:url(#f)"/><path d="M661.21,119.07v27.7h-16.9v-27.7l-26.4-45.15h14.9a5.48,5.48,0,0,1,3.5,1,7.47,7.47,0,0,1,2.1,2.62l10.3,21.2,2.3,4.7c.7,1.43,1.31,2.85,1.85,4.25a39.29,39.29,0,0,1,1.8-4.3q1.05-2.15,2.25-4.65l10.2-21.2a6.22,6.22,0,0,1,.82-1.3,7.39,7.39,0,0,1,1.2-1.17,5.66,5.66,0,0,1,1.55-.85,5.47,5.47,0,0,1,1.93-.33h15Z" transform="translate(0.35 -1.4)" style="fill:url(#f)"/><path d="M703.36,74a4.62,4.62,0,0,1,1.35.38,4.54,4.54,0,0,1,1.15.77,13.58,13.58,0,0,1,1.25,1.35l34.6,43.75c-.14-1.4-.24-2.76-.3-4.07s-.1-2.56-.1-3.73V73.92h14.9v72.85h-8.8a8.11,8.11,0,0,1-3.3-.6,7,7,0,0,1-2.6-2.2l-34.35-43.4c.1,1.27.18,2.51.25,3.73s.1,2.35.1,3.42v39.05h-14.9V73.92h8.9A13.8,13.8,0,0,1,703.36,74Z" transform="translate(0.35 -1.4)" style="fill:url(#f)"/><path d="M855.31,146.77h-13.1a6.09,6.09,0,0,1-3.63-1,5.27,5.27,0,0,1-2-2.63l-4.3-12.7h-27.7l-4.3,12.7a5.76,5.76,0,0,1-1.95,2.53,5.62,5.62,0,0,1-3.55,1.12h-13.2l28.2-72.85h17.3Zm-46.8-27.85h19.9l-6.7-20q-.66-1.91-1.53-4.47c-.58-1.72-1.16-3.58-1.72-5.58-.54,2-1.09,3.92-1.65,5.65s-1.1,3.23-1.6,4.5Z" transform="translate(0.35 -1.4)" style="fill:url(#f)"/><path d="M878.11,119.82v27h-16.9V73.92h23.7a48.38,48.38,0,0,1,13.47,1.63,25.27,25.27,0,0,1,9.1,4.52,17.17,17.17,0,0,1,5.13,6.85,22.81,22.81,0,0,1,1.6,8.6,23.18,23.18,0,0,1-1,6.7,20.59,20.59,0,0,1-2.83,5.83,21.84,21.84,0,0,1-4.6,4.77,24.56,24.56,0,0,1-6.27,3.45,16.14,16.14,0,0,1,3.17,2.1,12.67,12.67,0,0,1,2.58,3l15.5,25.35h-15.3q-4.26,0-6.1-3.2l-12.1-21.15a5.15,5.15,0,0,0-1.88-2,6.26,6.26,0,0,0-3-.6Zm0-11.65h6.8a17.46,17.46,0,0,0,5.87-.87,10.8,10.8,0,0,0,4-2.43,9.29,9.29,0,0,0,2.25-3.62,14.16,14.16,0,0,0,.7-4.48,9.4,9.4,0,0,0-3.13-7.5q-3.12-2.7-9.67-2.7h-6.8Z" transform="translate(0.35 -1.4)" style="fill:url(#f)"/><path d="M995.5,146.77H982.41a6.09,6.09,0,0,1-3.63-1,5.35,5.35,0,0,1-2-2.63l-4.3-12.7H944.8l-4.3,12.7a5.77,5.77,0,0,1-5.5,3.65H921.8L950,73.92h17.3Zm-46.79-27.85h19.9l-6.7-20q-.66-1.91-1.53-4.47c-.58-1.72-1.16-3.58-1.72-5.58-.54,2-1.09,3.92-1.66,5.65s-1.09,3.23-1.59,4.5Z" transform="translate(0.35 -1.4)" style="fill:url(#f)"/><path d="M1012.16,74a4.47,4.47,0,0,1,1.34.38,4.42,4.42,0,0,1,1.16.77,13.58,13.58,0,0,1,1.25,1.35l34.59,43.75c-.13-1.4-.23-2.76-.29-4.07s-.1-2.56-.1-3.73V73.92H1065v72.85h-8.79a8.11,8.11,0,0,1-3.3-.6,6.93,6.93,0,0,1-2.6-2.2L1016,100.57c.1,1.27.18,2.51.25,3.73s.1,2.35.1,3.42v39.05h-14.9V73.92h8.9A13.8,13.8,0,0,1,1012.16,74Z" transform="translate(0.35 -1.4)" style="fill:url(#f)"/><path d="M1144.8,146.77h-13.09a6.09,6.09,0,0,1-3.63-1,5.35,5.35,0,0,1-2-2.63l-4.3-12.7h-27.7l-4.3,12.7a5.77,5.77,0,0,1-5.5,3.65h-13.2l28.2-72.85h17.3ZM1098,118.92h19.91l-6.7-20q-.66-1.91-1.53-4.47c-.58-1.72-1.16-3.58-1.72-5.58-.54,2-1.09,3.92-1.66,5.65s-1.09,3.23-1.59,4.5Z" transform="translate(0.35 -1.4)" style="fill:url(#f)"/><text transform="translate(286.06 148.37)" style="font-size:100px;fill:none;stroke:#fff;stroke-miterlimit:10;stroke-width:0.75px;font-family:Lato-Black, Lato;font-weight:800">MADE<tspan x="298.3" y="0" style="letter-spacing:-0.119990234375em">L</tspan><tspan x="338.2" y="0">YN ARANA</tspan></text><rect x="608.14" y="162.46" width="210.21" height="32.79" style="fill:#0f0f0f"/><text transform="translate(609.88 184.37)" style="font-size:30px;fill:#7e4795;font-family:Lato-Black, Lato;font-weight:800;letter-spacing:0.025em">Desarrollado<tspan x="187.2" y="0" style="letter-spacing:0.015006510416666667em">r</tspan><tspan x="200.04" y="0" style="letter-spacing:0.024967447916666666em">a</tspan></text><text transform="translate(609.88 184.37)" style="font-size:30px;fill:#7e4795;font-family:Lato-Black, Lato;font-weight:800;letter-spacing:0.025em">Desarrollado<tspan x="187.2" y="0" style="letter-spacing:0.015006510416666667em">r</tspan><tspan x="200.04" y="0" style="letter-spacing:0.024967447916666666em">a</tspan></text></svg>
