<?xml version="1.0" encoding="UTF-8"?><svg id="a" xmlns="http://www.w3.org/2000/svg" viewBox="0 0 54.82 58.18"><defs><style>.b{fill:#fff;}.c{fill:#381f58;}</style></defs><path class="b" d="M54.82,27.4c0,15.15-11.72,19.82-26.85,19.82S0,42.55,0,27.4,12.27,0,27.4,0s27.42,12.28,27.42,27.4Z"/><path class="b" d="M18.01,42.66s-4.33,14.07,0,12.99c4.34-1.08,5.42-6.5,5.42-6.5,0,0-.72,11.17,3.24,8.65,3.98-2.52,3.62-7.92,3.62-7.92,0,0,2.88,9.73,6.86,6.84,3.97-2.88-.72-14.79-.72-14.79l-18.41,.72Z"/><path class="c" d="M49.46,28.47c1.21,5.1-1.41,10.07-5.85,11.13-4.42,1.05-8.99-2.25-10.19-7.36-1.2-5.12,1.41-10.09,5.84-11.15,4.43-1.04,9,2.25,10.2,7.38Z"/><path class="c" d="M5.94,28.47c-1.21,5.1,1.4,10.07,5.84,11.13,4.42,1.05,8.99-2.25,10.19-7.36,1.21-5.12-1.4-10.09-5.84-11.15-4.44-1.04-8.99,2.25-10.19,7.38Z"/><path class="c" d="M26.44,37.71c-.32,.05-.6,.17-.85,.4-.57,.51-2.85,4.33-1.3,4.93,1.83,.75,2.25-1.96,2.25-1.96,0,0,2.28,4.04,3.03,1.32,.65-2.39-1.47-4.87-3.13-4.69Z"/></svg>